<svg width="26" height="51" viewBox="0 0 26 51" fill="none" xmlns="http://www.w3.org/2000/svg">
<path d="M0 0H25.641V19.9076C25.641 20.8956 25.4016 21.7939 24.923 22.6025C24.4444 23.411 23.788 24.0683 22.9538 24.5743L13.7435 30.0717L15.6615 36.3076H24.5639L17.2717 41.4563L20.1127 50.41L12.8205 44.8614L5.52824 50.41L8.36924 41.4563L1.077 36.3076H9.97948L11.8974 30.0717L2.63591 24.6256C1.80171 24.1367 1.15385 23.4794 0.69231 22.6538C0.23077 21.8281 0 20.9127 0 19.9076V0ZM3.9999 3.9999V19.9076C3.9999 20.164 4.06401 20.3991 4.19222 20.6128C4.32044 20.8265 4.49567 21.0017 4.7179 21.1385L10.8205 24.7488V3.9999H3.9999ZM21.641 3.9999H14.8204V24.7488L20.923 21.1385C21.1453 21.0017 21.3205 20.8265 21.4487 20.6128C21.5769 20.3991 21.641 20.164 21.641 19.9076V3.9999Z" fill="#005BBF"/>
</svg>
