<svg width="40" height="53" viewBox="0 0 40 53" fill="none" xmlns="http://www.w3.org/2000/svg">
<path d="M14.1333 29.3024L16.3384 22.0614L10.5384 17.5897H17.7538L19.9999 10.3794L22.246 17.5897H29.4614L23.6204 22.0614L25.8255 29.3024L19.9999 24.7999L14.1333 29.3024ZM5.33333 52.6151V33.5281C3.64444 31.764 2.33333 29.7247 1.4 27.4101C0.466667 25.0956 0 22.6255 0 19.9999C0 14.4204 1.93845 9.69226 5.81536 5.81536C9.69226 1.93845 14.4204 0 19.9999 0C25.5794 0 30.3075 1.93845 34.1844 5.81536C38.0614 9.69226 39.9998 14.4204 39.9998 19.9999C39.9998 22.6255 39.5331 25.0956 38.5998 27.4101C37.6665 29.7247 36.3554 31.764 34.6665 33.5281V52.6151L19.9999 47.9485L5.33333 52.6151ZM19.9999 35.9999C24.4443 35.9999 28.2221 34.4443 31.3332 31.3332C34.4443 28.2221 35.9999 24.4443 35.9999 19.9999C35.9999 15.5555 34.4443 11.7777 31.3332 8.66657C28.2221 5.55546 24.4443 3.9999 19.9999 3.9999C15.5555 3.9999 11.7777 5.55546 8.66657 8.66657C5.55546 11.7777 3.9999 15.5555 3.9999 19.9999C3.9999 24.4443 5.55546 28.2221 8.66657 31.3332C11.7777 34.4443 15.5555 35.9999 19.9999 35.9999ZM9.33324 46.7589L19.9999 43.8973L30.6666 46.7589V36.8511C29.1452 37.8425 27.4802 38.6152 25.6717 39.169C23.8632 39.7229 21.9726 39.9998 19.9999 39.9998C18.0273 39.9998 16.1367 39.7229 14.3281 39.169C12.5196 38.6152 10.8546 37.8425 9.33324 36.8511V46.7589Z" fill="#005BBF"/>
</svg>
