<svg width="46" height="46" viewBox="0 0 46 46" fill="none" xmlns="http://www.w3.org/2000/svg">
<path d="M11.1795 45.3331V41.3332H20.6666V32.1947C18.4034 31.74 16.4034 30.7879 14.6666 29.3383C12.9299 27.8887 11.6957 26.0819 10.964 23.9178C7.88714 23.5519 5.29058 22.246 3.17434 19.9998C1.05811 17.7537 0 15.0871 0 11.9999V9.33324C0 8.24267 0.394008 7.30337 1.18202 6.51536C1.97004 5.72734 2.90933 5.33333 3.9999 5.33333H10.2051V0H35.128V5.33333H41.3332C42.4238 5.33333 43.3631 5.72734 44.1511 6.51536C44.9391 7.30337 45.3331 8.24267 45.3331 9.33324V11.9999C45.3331 15.0871 44.275 17.7537 42.1588 19.9998C40.0426 22.246 37.446 23.5519 34.3691 23.9178C33.6375 26.0819 32.4033 27.8887 30.6665 29.3383C28.9298 30.7879 26.9298 31.74 24.6665 32.1947V41.3332H34.1536V45.3331H11.1795ZM10.2051 19.6204V9.33324H3.9999V11.9999C3.9999 13.8597 4.58282 15.4931 5.74864 16.8999C6.91447 18.3068 8.39995 19.2136 10.2051 19.6204ZM22.6666 28.3589C25.0085 28.3589 26.9956 27.5427 28.6281 25.9102C30.2606 24.2777 31.0769 22.2905 31.0769 19.9486V3.9999H14.2563V19.9486C14.2563 22.2905 15.0725 24.2777 16.705 25.9102C18.3375 27.5427 20.3247 28.3589 22.6666 28.3589ZM35.128 19.6204C36.9332 19.2136 38.4187 18.3068 39.5845 16.8999C40.7503 15.4931 41.3332 13.8597 41.3332 11.9999V9.33324H35.128V19.6204Z" fill="#005BBF"/>
</svg>
