<svg width="24" height="24" viewBox="0 0 24 24" fill="none" xmlns="http://www.w3.org/2000/svg">
<path d="M22 14.9999H21.4L13.2 6.79993C13.111 6.70293 13.0028 6.62549 12.8823 6.57252C12.7618 6.51954 12.6316 6.49219 12.5 6.49219C12.3684 6.49219 12.2382 6.51954 12.1177 6.57252C11.9972 6.62549 11.889 6.70293 11.8 6.79993L8.85 9.74993C8.75654 9.84154 8.63088 9.89285 8.5 9.89285C8.36912 9.89285 8.24346 9.84154 8.15 9.74993L7.4 8.99993L8.2 8.19993L12.5 3.89993L16.8 8.19993C16.9846 8.38834 17.2362 8.49617 17.5 8.49993H22C22.2652 8.49993 22.5196 8.39457 22.7071 8.20703C22.8946 8.0195 23 7.76514 23 7.49993C23 7.23471 22.8946 6.98036 22.7071 6.79282C22.5196 6.60528 22.2652 6.49993 22 6.49993H17.9L13.2 1.79993C13.111 1.70293 13.0028 1.62549 12.8823 1.57252C12.7618 1.51954 12.6316 1.49219 12.5 1.49219C12.3684 1.49219 12.2382 1.51954 12.1177 1.57252C11.9972 1.62549 11.889 1.70293 11.8 1.79993L7.1 6.49993H2C1.73478 6.49993 1.48043 6.60528 1.29289 6.79282C1.10536 6.98036 1 7.23471 1 7.49993C1 7.76514 1.10536 8.0195 1.29289 8.20703C1.48043 8.39457 1.73478 8.49993 2 8.49993H5.3C5.19437 8.76331 5.17128 9.05258 5.23379 9.32939C5.29629 9.6062 5.44144 9.85748 5.65 10.0499L6.75 11.1499C7.21732 11.608 7.84562 11.8646 8.5 11.8646C9.15438 11.8646 9.78268 11.608 10.25 11.1499L12.5 8.89993L20.3 16.6999C20.4846 16.8883 20.7362 16.9962 21 16.9999H22C22.2652 16.9999 22.5196 16.8946 22.7071 16.707C22.8946 16.5195 23 16.2651 23 15.9999C23 15.7347 22.8946 15.4804 22.7071 15.2928C22.5196 15.1053 22.2652 14.9999 22 14.9999Z" fill="#121C2A"/>
<path d="M15.6996 13.7996C15.507 13.6552 15.2688 13.5851 15.0287 13.6021C14.7886 13.6192 14.5627 13.7223 14.3925 13.8925C14.2223 14.0627 14.1192 14.2886 14.1021 14.5287C14.0851 14.7688 14.1552 15.007 14.2996 15.1996L17.7996 18.6996C17.8886 18.7966 17.9968 18.874 18.1173 18.927C18.2378 18.98 18.368 19.0073 18.4996 19.0073C18.6312 19.0073 18.7614 18.98 18.8819 18.927C19.0024 18.874 19.1106 18.7966 19.1996 18.6996C19.2966 18.6106 19.374 18.5024 19.427 18.3819C19.48 18.2614 19.5073 18.1312 19.5073 17.9996C19.5073 17.868 19.48 17.7378 19.427 17.6173C19.374 17.4968 19.2966 17.3886 19.1996 17.2996L15.6996 13.7996Z" fill="#121C2A"/>
<path d="M12.6996 15.2996C12.507 15.1552 12.2688 15.0851 12.0287 15.1021C11.7886 15.1192 11.5627 15.2223 11.3925 15.3925C11.2223 15.5627 11.1192 15.7886 11.1021 16.0287C11.0851 16.2688 11.1552 16.507 11.2996 16.6996L14.7996 20.1996C14.8886 20.2966 14.9968 20.374 15.1173 20.427C15.2378 20.48 15.368 20.5073 15.4996 20.5073C15.6312 20.5073 15.7614 20.48 15.8819 20.427C16.0024 20.374 16.1106 20.2966 16.1996 20.1996C16.2966 20.1106 16.374 20.0024 16.427 19.8819C16.48 19.7614 16.5073 19.6312 16.5073 19.4996C16.5073 19.368 16.48 19.2378 16.427 19.1173C16.374 18.9968 16.2966 18.8886 16.1996 18.7996L12.6996 15.2996Z" fill="#121C2A"/>
<path d="M9.19961 16.2996C9.00704 16.1552 8.76883 16.0851 8.52872 16.1021C8.28861 16.1192 8.06272 16.2223 7.8925 16.3925C7.72229 16.5627 7.61919 16.7886 7.60213 17.0287C7.58506 17.2688 7.65518 17.507 7.79961 17.6996L11.2996 21.1996C11.3886 21.2966 11.4968 21.374 11.6173 21.427C11.7378 21.48 11.868 21.5073 11.9996 21.5073C12.1312 21.5073 12.2614 21.48 12.3819 21.427C12.5024 21.374 12.6106 21.2966 12.6996 21.1996C12.7966 21.1106 12.874 21.0024 12.927 20.8819C12.98 20.7614 13.0073 20.6312 13.0073 20.4996C13.0073 20.368 12.98 20.2378 12.927 20.1173C12.874 19.9968 12.7966 19.8886 12.6996 19.7996L9.19961 16.2996Z" fill="#121C2A"/>
<path d="M3.7 15.3C3.51537 15.1116 3.26377 15.0038 3 15H2C1.73478 15 1.48043 15.1054 1.29289 15.2929C1.10536 15.4804 1 15.7348 1 16C1 16.2652 1.10536 16.5196 1.29289 16.7071C1.48043 16.8946 1.73478 17 2 17H2.6L7.8 22.2C7.88899 22.297 7.99717 22.3744 8.11767 22.4274C8.23817 22.4804 8.36837 22.5077 8.5 22.5077C8.63163 22.5077 8.76183 22.4804 8.88233 22.4274C9.00283 22.3744 9.11101 22.297 9.2 22.2C9.29699 22.111 9.37443 22.0028 9.42741 21.8823C9.48038 21.7618 9.50774 21.6316 9.50774 21.5C9.50774 21.3684 9.48038 21.2382 9.42741 21.1177C9.37443 20.9972 9.29699 20.889 9.2 20.8L3.7 15.3Z" fill="#121C2A"/>
</svg>
