<svg width="16" height="22" viewBox="0 0 16 22" fill="none" xmlns="http://www.w3.org/2000/svg">
<path d="M0.875 20.875V12.875M0.875 12.875L3.34567 12.3809C4.9962 12.0508 6.7071 12.2078 8.2699 12.833C9.9635 13.5104 11.8274 13.6369 13.597 13.1945L13.8114 13.1409C14.4365 12.9846 14.875 12.423 14.875 11.7787V4.41169C14.875 3.63113 14.1415 3.05839 13.3842 3.2477C11.753 3.65551 10.0347 3.53889 8.4736 2.91443L8.2699 2.83297C6.7071 2.20784 4.9962 2.05076 3.34567 2.38087L0.875 2.875M0.875 12.875V9.875M0.875 2.875V0.875M0.875 2.875V5.875" stroke="#121C2A" stroke-width="1.75" stroke-linecap="round"/>
</svg>
