<svg width="24" height="24" viewBox="0 0 24 24" fill="none" xmlns="http://www.w3.org/2000/svg">
<path d="M18 7.16C17.94 7.15 17.87 7.15 17.81 7.16C16.43 7.11 15.33 5.98 15.33 4.58C15.33 3.15 16.48 2 17.91 2C19.34 2 20.49 3.16 20.49 4.58C20.48 5.98 19.38 7.11 18 7.16Z" stroke="#121C2A" stroke-width="1.75" stroke-linecap="round" stroke-linejoin="round"/>
<path d="M16.9695 14.4401C18.3395 14.6701 19.8495 14.4301 20.9095 13.7201C22.3195 12.7801 22.3195 11.2401 20.9095 10.3001C19.8395 9.59017 18.3095 9.35016 16.9395 9.59016" stroke="#121C2A" stroke-width="1.75" stroke-linecap="round" stroke-linejoin="round"/>
<path d="M5.97047 7.16C6.03047 7.15 6.10047 7.15 6.16047 7.16C7.54047 7.11 8.64047 5.98 8.64047 4.58C8.64047 3.15 7.49047 2 6.06047 2C4.63047 2 3.48047 3.16 3.48047 4.58C3.49047 5.98 4.59047 7.11 5.97047 7.16Z" stroke="#121C2A" stroke-width="1.75" stroke-linecap="round" stroke-linejoin="round"/>
<path d="M6.99945 14.4401C5.62945 14.6701 4.11945 14.4301 3.05945 13.7201C1.64945 12.7801 1.64945 11.2401 3.05945 10.3001C4.12945 9.59017 5.65945 9.35016 7.02945 9.59016" stroke="#121C2A" stroke-width="1.75" stroke-linecap="round" stroke-linejoin="round"/>
<path d="M12 14.6298C11.94 14.6198 11.87 14.6198 11.81 14.6298C10.43 14.5798 9.32996 13.4498 9.32996 12.0498C9.32996 10.6198 10.48 9.46973 11.91 9.46973C13.34 9.46973 14.49 10.6298 14.49 12.0498C14.48 13.4498 13.38 14.5898 12 14.6298Z" stroke="#121C2A" stroke-width="1.75" stroke-linecap="round" stroke-linejoin="round"/>
<path d="M9.0907 17.7804C7.6807 18.7204 7.6807 20.2604 9.0907 21.2004C10.6907 22.2704 13.3107 22.2704 14.9107 21.2004C16.3207 20.2604 16.3207 18.7204 14.9107 17.7804C13.3207 16.7204 10.6907 16.7204 9.0907 17.7804Z" stroke="#121C2A" stroke-width="1.75" stroke-linecap="round" stroke-linejoin="round"/>
</svg>
