<svg width="20" height="19" viewBox="0 0 20 19" fill="none" xmlns="http://www.w3.org/2000/svg">
<path d="M10.4606 13.0673C10.3422 13.1904 10.1749 13.2604 9.99935 13.2604C9.82385 13.2604 9.65652 13.1904 9.5381 13.0673L6.20475 9.60379C5.97184 9.36177 5.98954 8.98621 6.24429 8.76494C6.49905 8.54367 6.89437 8.56045 7.12729 8.80246L9.37435 11.1373V2.375C9.37435 2.04708 9.65419 1.78125 9.99935 1.78125C10.3445 1.78125 10.6244 2.04708 10.6244 2.375V11.1373L12.8714 8.80246C13.1044 8.56045 13.4997 8.54367 13.7544 8.76494C14.0092 8.98621 14.0269 9.36177 13.7939 9.60379L10.4606 13.0673Z" fill="white"/>
<path d="M3.125 11.875C3.125 11.5471 2.84518 11.2812 2.5 11.2812C2.15483 11.2812 1.875 11.5471 1.875 11.875V11.9185C1.87498 13.0011 1.87497 13.8738 1.9721 14.5602C2.07295 15.2728 2.28869 15.8727 2.79029 16.3492C3.29189 16.8258 3.92345 17.0307 4.67354 17.1265C5.39602 17.2187 6.31462 17.2188 7.45428 17.2188H12.5458C13.6854 17.2188 14.604 17.2187 15.3265 17.1265C16.0766 17.0307 16.7081 16.8258 17.2097 16.3492C17.7113 15.8727 17.9271 15.2728 18.0279 14.5602C18.125 13.8738 18.125 13.0011 18.125 11.9185V11.875C18.125 11.5471 17.8452 11.2812 17.5 11.2812C17.1548 11.2812 16.875 11.5471 16.875 11.875C16.875 13.0114 16.8737 13.8039 16.7891 14.4019C16.7068 14.9828 16.5565 15.2904 16.3258 15.5095C16.0952 15.7287 15.7714 15.8715 15.1599 15.9496C14.5304 16.03 13.6962 16.0312 12.5 16.0312H7.5C6.30383 16.0312 5.46956 16.03 4.8401 15.9496C4.22863 15.8715 3.90481 15.7287 3.67418 15.5095C3.44354 15.2904 3.29317 14.9828 3.21096 14.4019C3.12633 13.8039 3.125 13.0114 3.125 11.875Z" fill="white"/>
</svg>
