<svg width="18" height="18" viewBox="0 0 18 18" fill="none" xmlns="http://www.w3.org/2000/svg">
<path d="M1.02739 0H16.9726C17.5131 0 18 0.486884 18 1.02739V16.9726C18 17.5131 17.5131 18 16.9726 18H1.02739C0.486884 18 0 17.5131 0 16.9726V1.02739C0 0.486884 0.486884 0 1.02739 0ZM12.7826 10.1069H15.269L15.3771 7.72874H12.7826V5.97233C12.7826 5.29692 12.9176 4.91813 13.7824 4.91813H15.2958L15.3502 2.70164C15.3502 2.70164 14.6748 2.59354 13.7019 2.59354C11.3237 2.59354 10.2695 4.08014 10.2695 5.67483V7.72874H8.51312V10.1069H10.2695V16.7011H12.7826V10.1069Z" fill="#467AFF"/>
</svg>
