<svg width="23" height="23" viewBox="0 0 23 23" fill="none" xmlns="http://www.w3.org/2000/svg">
<path d="M1.31277 0H21.6872C22.3779 0 23 0.622129 23 1.31277V21.6872C23 22.3779 22.3779 23 21.6872 23H1.31277C0.622129 23 0 22.3779 0 21.6872V1.31277C0 0.622129 0.622129 0 1.31277 0ZM16.3334 12.9144H19.5103L19.6485 9.87561H16.3334V7.63131C16.3334 6.76828 16.5058 6.28428 17.6108 6.28428H19.5446L19.6142 3.4521C19.6142 3.4521 18.7512 3.31397 17.508 3.31397C14.4692 3.31397 13.1222 5.21351 13.1222 7.25118V9.87561H10.8779V12.9144H13.1222V21.3403H16.3334V12.9144Z" fill="#467AFF"/>
</svg>
