<svg width="15" height="15" viewBox="0 0 15 15" fill="none" xmlns="http://www.w3.org/2000/svg">
<path d="M0.856155 0H14.1438C14.5943 0 15 0.405737 15 0.856155V14.1438C15 14.5943 14.5943 15 14.1438 15H0.856155C0.405737 15 0 14.5943 0 14.1438V0.856155C0 0.405737 0.405737 0 0.856155 0ZM10.6522 8.42246H12.7241L12.8142 6.44062H10.6522V4.97694C10.6522 4.4141 10.7646 4.09844 11.4853 4.09844H12.7465L12.7919 2.25137C12.7919 2.25137 12.229 2.16129 11.4183 2.16129C9.43644 2.16129 8.55794 3.40012 8.55794 4.72903V6.44062H7.09426V8.42246H8.55794V13.9176H10.6522V8.42246Z" fill="#222222"/>
</svg>
