<svg width="20" height="20" viewBox="0 0 20 20" fill="none" xmlns="http://www.w3.org/2000/svg">
<path d="M13.3475 1.66699H6.62252C5.30848 1.66854 4.04872 2.19128 3.11963 3.12052C2.19054 4.04977 1.66801 5.30962 1.66669 6.62366L1.66669 13.3487C1.66823 14.6627 2.19097 15.9225 3.12022 16.8516C4.04946 17.7806 5.30931 18.3032 6.62335 18.3045H13.3484C14.6624 18.3029 15.9222 17.7802 16.8512 16.851C17.7803 15.9217 18.3029 14.6619 18.3042 13.3478V6.62283C18.3026 5.30879 17.7799 4.04902 16.8507 3.11993C15.9214 2.19084 14.6616 1.66832 13.3475 1.66699V1.66699ZM16.6309 13.3478C16.6309 13.779 16.5459 14.206 16.3809 14.6043C16.2159 15.0027 15.9741 15.3646 15.6692 15.6695C15.3643 15.9744 15.0024 16.2162 14.604 16.3812C14.2056 16.5462 13.7787 16.6312 13.3475 16.6312H6.62252C5.75187 16.6309 4.91696 16.2849 4.30139 15.6692C3.68583 15.0535 3.34002 14.2185 3.34002 13.3478V6.62283C3.34024 5.75218 3.68626 4.91726 4.30198 4.3017C4.9177 3.68613 5.7527 3.34033 6.62335 3.34033H13.3484C14.219 3.34055 15.0539 3.68657 15.6695 4.30229C16.285 4.91801 16.6309 5.75301 16.6309 6.62366V13.3487V13.3478Z" fill="#333333"/>
<path d="M9.98502 5.68262C8.84454 5.68438 7.75129 6.13827 6.94493 6.94479C6.13857 7.75131 5.68489 8.84464 5.68335 9.98512C5.68467 11.1259 6.13837 12.2196 6.94493 13.0263C7.7515 13.833 8.84508 14.2869 9.98585 14.2885C11.1268 14.2871 12.2206 13.8333 13.0273 13.0266C13.834 12.2198 14.2879 11.126 14.2892 9.98512C14.2874 8.84435 13.8333 7.75085 13.0264 6.94445C12.2195 6.13804 11.1258 5.68455 9.98502 5.68345V5.68262ZM9.98502 12.6151C9.28772 12.6151 8.61898 12.3381 8.12591 11.8451C7.63285 11.352 7.35585 10.6832 7.35585 9.98595C7.35585 9.28865 7.63285 8.61991 8.12591 8.12685C8.61898 7.63378 9.28772 7.35678 9.98502 7.35678C10.6823 7.35678 11.3511 7.63378 11.8441 8.12685C12.3372 8.61991 12.6142 9.28865 12.6142 9.98595C12.6142 10.6832 12.3372 11.352 11.8441 11.8451C11.3511 12.3381 10.6823 12.6151 9.98502 12.6151V12.6151Z" fill="#333333"/>
<path d="M14.2966 6.74624C14.866 6.74624 15.3275 6.28472 15.3275 5.7154C15.3275 5.14609 14.866 4.68457 14.2966 4.68457C13.7273 4.68457 13.2658 5.14609 13.2658 5.7154C13.2658 6.28472 13.7273 6.74624 14.2966 6.74624Z" fill="#333333"/>
</svg>
