<svg width="15" height="15" viewBox="0 0 15 15" fill="none" xmlns="http://www.w3.org/2000/svg">
<path d="M10.6478 0H4.35967C1.62831 0 0 1.6275 0 4.3575V10.635C0 13.3725 1.62831 15 4.35967 15H10.6403C13.3717 15 15 13.3725 15 10.6425V4.3575C15.0075 1.6275 13.3792 0 10.6478 0ZM7.50374 10.41C5.89794 10.41 4.59229 9.105 4.59229 7.5C4.59229 5.895 5.89794 4.59 7.50374 4.59C9.10954 4.59 10.4152 5.895 10.4152 7.5C10.4152 9.105 9.10954 10.41 7.50374 10.41ZM11.946 3.66C11.9084 3.75 11.8559 3.8325 11.7884 3.9075C11.7133 3.975 11.6308 4.0275 11.5407 4.065C11.4507 4.1025 11.3532 4.125 11.2556 4.125C11.053 4.125 10.8654 4.05 10.7228 3.9075C10.6553 3.8325 10.6028 3.75 10.5653 3.66C10.5277 3.57 10.5052 3.4725 10.5052 3.375C10.5052 3.2775 10.5277 3.18 10.5653 3.09C10.6028 2.9925 10.6553 2.9175 10.7228 2.8425C10.8954 2.67 11.1581 2.5875 11.3982 2.64C11.4507 2.6475 11.4957 2.6625 11.5407 2.685C11.5858 2.7 11.6308 2.7225 11.6758 2.7525C11.7133 2.775 11.7509 2.8125 11.7884 2.8425C11.8559 2.9175 11.9084 2.9925 11.946 3.09C11.9835 3.18 12.006 3.2775 12.006 3.375C12.006 3.4725 11.9835 3.57 11.946 3.66Z" fill="#222222"/>
</svg>
