<svg width="24" height="24" viewBox="0 0 24 24" fill="none" xmlns="http://www.w3.org/2000/svg">
<path d="M16.426 0H6.72552C2.51194 0 0 2.51069 0 6.72217V16.4063C0 20.6293 2.51194 23.14 6.72552 23.14H16.4144C20.628 23.14 23.14 20.6293 23.14 16.4178V6.72217C23.1515 2.51069 20.6396 0 16.426 0ZM11.5758 16.0592C9.09855 16.0592 7.08437 14.046 7.08437 11.57C7.08437 9.09402 9.09855 7.08084 11.5758 7.08084C14.053 7.08084 16.0672 9.09402 16.0672 11.57C16.0672 14.046 14.053 16.0592 11.5758 16.0592ZM18.4286 5.64616C18.3707 5.785 18.2897 5.91227 18.1855 6.02797C18.0698 6.1321 17.9424 6.21309 17.8035 6.27094C17.6646 6.32879 17.5141 6.3635 17.3637 6.3635C17.0511 6.3635 16.7617 6.2478 16.5418 6.02797C16.4376 5.91227 16.3566 5.785 16.2987 5.64616C16.2408 5.50732 16.2061 5.35691 16.2061 5.2065C16.2061 5.05609 16.2408 4.90568 16.2987 4.76684C16.3566 4.61643 16.4376 4.50073 16.5418 4.38503C16.808 4.11892 17.2132 3.99165 17.5836 4.07264C17.6646 4.08421 17.7341 4.10735 17.8035 4.14206C17.873 4.1652 17.9424 4.19991 18.0119 4.24619C18.0698 4.2809 18.1277 4.33875 18.1855 4.38503C18.2897 4.50073 18.3707 4.61643 18.4286 4.76684C18.4865 4.90568 18.5212 5.05609 18.5212 5.2065C18.5212 5.35691 18.4865 5.50732 18.4286 5.64616Z" fill="url(#paint0_linear_571_8227)"/>
<defs>
<linearGradient id="paint0_linear_571_8227" x1="21.0293" y1="0.075123" x2="-3.04885" y2="26.9676" gradientUnits="userSpaceOnUse">
<stop offset="0.0567512" stop-color="#FFE135"/>
<stop offset="0.346309" stop-color="#FF00E6"/>
<stop offset="0.681223" stop-color="#FFA641"/>
<stop offset="0.937338" stop-color="#FF00B2"/>
</linearGradient>
</defs>
</svg>
