<svg width="17" height="15" viewBox="0 0 17 15" fill="none" xmlns="http://www.w3.org/2000/svg">
<path d="M0.533234 15H2.66798C2.96249 15 3.20121 14.7613 3.20121 14.4667V5.1358C3.20121 4.84126 2.96249 4.60257 2.66798 4.60257H0.533234C0.238693 4.60257 0 4.84126 0 5.1358V14.4667C0 14.7612 0.238693 15 0.533234 15Z" fill="#222222"/>
<path d="M0.533234 2.96214H2.66798C2.96249 2.96214 3.20121 2.72341 3.20121 2.4289V0.533234C3.20121 0.238722 2.96249 0 2.66798 0H0.533234C0.238693 0 0 0.238722 0 0.533234V2.4289C0 2.72341 0.238693 2.96214 0.533234 2.96214Z" fill="#222222"/>
<path d="M15.6177 5.68483C15.3177 5.28997 14.8754 4.96525 14.2906 4.71072C13.7057 4.45638 13.0601 4.32911 12.3538 4.32911C10.9199 4.32911 9.70489 4.87634 8.7088 5.971C8.5106 6.18881 8.36649 6.14119 8.36649 5.84665V5.1358C8.36649 4.84126 8.12774 4.60256 7.83323 4.60256H5.9263C5.63176 4.60256 5.39307 4.84126 5.39307 5.1358V14.4667C5.39307 14.7612 5.63179 15 5.9263 15H8.06105C8.35559 15 8.59428 14.7612 8.59428 14.4667V11.2217C8.59428 9.86978 8.67592 8.94315 8.83918 8.44191C9.00239 7.94067 9.30439 7.53817 9.74488 7.23436C10.1854 6.93055 10.6828 6.77857 11.2373 6.77857C11.6702 6.77857 12.0405 6.88492 12.3482 7.09765C12.6558 7.31035 12.8779 7.60831 13.0147 7.99194C13.1514 8.37551 13.2197 9.22043 13.2197 10.5268V14.4667C13.2197 14.7612 13.4584 15 13.753 15H15.8877C16.1822 15 16.4209 14.7612 16.4209 14.4667V9.18243C16.4209 8.24831 16.362 7.53054 16.2444 7.0293C16.1268 6.52806 15.9179 6.0799 15.6177 5.68483Z" fill="#222222"/>
</svg>
