<svg width="26" height="24" viewBox="0 0 26 24" fill="none" xmlns="http://www.w3.org/2000/svg">
<path d="M0.822648 23.1413H4.11603C4.57039 23.1413 4.93868 22.7729 4.93868 22.3186V7.92323C4.93868 7.46883 4.57039 7.10059 4.11603 7.10059H0.822648C0.368244 7.10059 0 7.46883 0 7.92323V22.3186C0 22.7729 0.368244 23.1413 0.822648 23.1413Z" fill="#0454E6"/>
<path d="M0.822648 4.56984H4.11603C4.57039 4.56984 4.93868 4.20156 4.93868 3.7472V0.822648C4.93868 0.36829 4.57039 0 4.11603 0H0.822648C0.368244 0 0 0.36829 0 0.822648V3.7472C0 4.20156 0.368244 4.56984 0.822648 4.56984Z" fill="#0454E6"/>
<path d="M24.0944 8.77025C23.6316 8.16108 22.9492 7.66011 22.0469 7.26744C21.1446 6.87505 20.1487 6.67871 19.059 6.67871C16.8468 6.67871 14.9724 7.52294 13.4357 9.21173C13.1299 9.54776 12.9076 9.47429 12.9076 9.01989V7.92322C12.9076 7.46882 12.5392 7.10058 12.0849 7.10058H9.14296C8.68856 7.10058 8.32031 7.46882 8.32031 7.92322V22.3186C8.32031 22.7729 8.6886 23.1413 9.14296 23.1413H12.4363C12.8908 23.1413 13.259 22.7729 13.259 22.3186V17.3122C13.259 15.2266 13.3849 13.797 13.6368 13.0237C13.8886 12.2504 14.3545 11.6295 15.0341 11.1608C15.7137 10.6921 16.4811 10.4576 17.3366 10.4576C18.0044 10.4576 18.5757 10.6217 19.0503 10.9499C19.5249 11.278 19.8676 11.7377 20.0785 12.3295C20.2895 12.9213 20.3949 14.2248 20.3949 16.2402V22.3185C20.3949 22.7729 20.7632 23.1412 21.2176 23.1412H24.5109C24.9653 23.1412 25.3335 22.7729 25.3335 22.3185V14.1662C25.3335 12.7251 25.2427 11.6177 25.0613 10.8444C24.8798 10.0711 24.5575 9.37975 24.0944 8.77025Z" fill="#0454E6"/>
</svg>
