<svg width="17" height="15" viewBox="0 0 17 15" fill="none" xmlns="http://www.w3.org/2000/svg">
<path d="M0.533234 15H2.66798C2.96249 15 3.20121 14.7612 3.20121 14.4667V5.13577C3.20121 4.84123 2.96249 4.60254 2.66798 4.60254H0.533234C0.238693 4.60254 0 4.84123 0 5.13577V14.4667C0 14.7612 0.238693 15 0.533234 15Z" fill="white"/>
<path d="M0.533234 2.96214H2.66798C2.96249 2.96214 3.20121 2.72341 3.20121 2.4289V0.533234C3.20121 0.238722 2.96249 0 2.66798 0H0.533234C0.238693 0 0 0.238722 0 0.533234V2.4289C0 2.72341 0.238693 2.96214 0.533234 2.96214Z" fill="white"/>
<path d="M15.6177 5.68482C15.3177 5.28996 14.8754 4.96524 14.2906 4.71071C13.7057 4.45636 13.0601 4.3291 12.3538 4.3291C10.9199 4.3291 9.70489 4.87633 8.7088 5.97099C8.5106 6.1888 8.36649 6.14118 8.36649 5.84663V5.13579C8.36649 4.84124 8.12774 4.60255 7.83323 4.60255H5.9263C5.63176 4.60255 5.39307 4.84124 5.39307 5.13579V14.4667C5.39307 14.7612 5.63179 15 5.9263 15H8.06105C8.35559 15 8.59428 14.7612 8.59428 14.4667V11.2217C8.59428 9.86977 8.67592 8.94314 8.83918 8.4419C9.00239 7.94066 9.30439 7.53816 9.74488 7.23435C10.1854 6.93054 10.6828 6.77856 11.2373 6.77856C11.6702 6.77856 12.0405 6.88491 12.3482 7.09764C12.6558 7.31034 12.8779 7.6083 13.0147 7.99193C13.1514 8.3755 13.2197 9.22042 13.2197 10.5268V14.4667C13.2197 14.7612 13.4584 15 13.753 15H15.8877C16.1822 15 16.4209 14.7612 16.4209 14.4667V9.18242C16.4209 8.2483 16.362 7.53053 16.2444 7.02929C16.1268 6.52805 15.9179 6.07989 15.6177 5.68482Z" fill="white"/>
</svg>
