<svg width="20" height="20" viewBox="0 0 20 20" fill="none" xmlns="http://www.w3.org/2000/svg">
<path d="M18.2992 11.4326V17.5818H14.7342V11.8443C14.7342 10.4026 14.2184 9.41931 12.9284 9.41931C11.9434 9.41931 11.3567 10.0826 11.0992 10.7235C11.005 10.9526 10.9809 11.2718 10.9809 11.5926V17.5818H7.41419C7.41419 17.5818 7.46252 7.86514 7.41419 6.85764H10.9809V8.37764L10.9575 8.41264H10.9809V8.37764C11.4542 7.64848 12.3 6.60598 14.1942 6.60598C16.54 6.60598 18.2992 8.13931 18.2992 11.4326ZM3.68419 1.68848C2.46502 1.68848 1.66669 2.48848 1.66669 3.54098C1.66669 4.57014 2.44169 5.39431 3.63752 5.39431H3.66085C4.90502 5.39431 5.67752 4.57014 5.67752 3.54098C5.65585 2.48848 4.90585 1.68848 3.68502 1.68848H3.68419ZM1.87835 17.5818H5.44335V6.85764H1.87835V17.5818Z" fill="#333333"/>
</svg>
