<svg width="160" height="49" viewBox="0 0 160 49" fill="none" xmlns="http://www.w3.org/2000/svg">
<path d="M23 37.45C19.9667 37.4167 17.75 36.6833 16.35 35.25C14.95 33.7833 14.25 31.7833 14.25 29.25V29H13.95C13.6833 30.1667 13.3667 31.15 13 31.95C12.6667 32.75 12.2333 33.4 11.7 33.9C11.1667 34.3667 10.5333 34.7167 9.8 34.95C9.06667 35.15 8.2 35.25 7.2 35.25C4.8 35.25 3 34.6167 1.8 33.35C0.6 32.05 1.41561e-07 30.2333 1.41561e-07 27.9C1.41561e-07 25.1667 0.75 22.95 2.25 21.25C3.78333 19.5167 5.83333 18.0167 8.4 16.75L14 13.95V11.2H20V27.25C20 28.25 20.2167 28.95 20.65 29.35C21.1167 29.75 21.9 29.95 23 29.95H24.5V35.95L23 37.45ZM8.85 27.75C10.7833 27.75 12.1167 27.5667 12.85 27.2C13.6167 26.8333 14 26.1667 14 25.2V19.2L10.3 20.95C9.4 21.3833 8.61667 21.7667 7.95 22.1C7.31667 22.4333 6.76667 22.7833 6.3 23.15C5.86667 23.4833 5.53333 23.8333 5.3 24.2C5.1 24.5667 5 24.9833 5 25.45C5 26.2833 5.26667 26.8833 5.8 27.25C6.36667 27.5833 7.38333 27.75 8.85 27.75ZM16.55 7.2C15.6833 7.2 14.9667 6.93333 14.4 6.39999C13.8667 5.86666 13.6 5.01666 13.6 3.84999C13.6 2.68333 13.8667 1.83333 14.4 1.29999C14.9667 0.766662 15.6833 0.499996 16.55 0.499996H17.55C18.4167 0.499996 19.1167 0.766662 19.65 1.29999C20.2167 1.83333 20.5 2.68333 20.5 3.84999C20.5 5.01666 20.2167 5.86666 19.65 6.39999C19.1167 6.93333 18.4167 7.2 17.55 7.2H16.55ZM8.65 7.2C7.78333 7.2 7.06667 6.93333 6.5 6.39999C5.96667 5.86666 5.7 5.01666 5.7 3.84999C5.7 2.68333 5.96667 1.83333 6.5 1.29999C7.06667 0.766662 7.78333 0.499996 8.65 0.499996H9.65C10.5167 0.499996 11.2167 0.766662 11.75 1.29999C12.3167 1.83333 12.6 2.68333 12.6 3.84999C12.6 5.01666 12.3167 5.86666 11.75 6.39999C11.2167 6.93333 10.5167 7.2 9.65 7.2H8.65ZM21.5137 31.45L23.0137 29.95H28.3637L28.4637 29.7C27.197 28.4333 26.3137 27.1 25.8137 25.7C25.347 24.2667 25.1137 22.8833 25.1137 21.55C25.1137 20.05 25.347 18.65 25.8137 17.35C26.2803 16.0167 26.947 14.8667 27.8137 13.9C28.6803 12.9 29.7137 12.1167 30.9137 11.55C32.147 10.9833 33.497 10.7 34.9637 10.7C36.4303 10.7 37.7637 10.9833 38.9637 11.55C40.197 12.1167 41.247 12.9 42.1137 13.9C42.9803 14.8667 43.647 16.0167 44.1137 17.35C44.5803 18.65 44.8137 20.05 44.8137 21.55C44.8137 22.8833 44.5637 24.2667 44.0637 25.7C43.597 27.1 42.7303 28.4333 41.4637 29.7L41.5637 29.95H47.1137V35.95L45.6137 37.45H45.1137C43.3137 37.45 41.5637 37.2167 39.8637 36.75C38.1637 36.2833 36.547 35.45 35.0137 34.25C33.4803 35.45 31.8637 36.2833 30.1637 36.75C28.4637 37.2167 26.7137 37.45 24.9137 37.45H21.5137V31.45ZM34.9637 29.3C36.6637 28.3333 37.947 27.3333 38.8137 26.3C39.6803 25.2333 40.1137 24.0333 40.1137 22.7C40.1137 21.3 39.647 20.2 38.7137 19.4C37.7803 18.6 36.6303 18.2 35.2637 18.2H34.6637C33.297 18.2 32.147 18.6 31.2137 19.4C30.2803 20.2 29.8137 21.3 29.8137 22.7C29.8137 24.0333 30.247 25.2333 31.1137 26.3C31.9803 27.3333 33.2637 28.3333 34.9637 29.3ZM34.4637 6.7C33.597 6.7 32.8803 6.43333 32.3137 5.89999C31.7803 5.36666 31.5137 4.51666 31.5137 3.34999C31.5137 2.18333 31.7803 1.33333 32.3137 0.799995C32.8803 0.266663 33.597 -3.69549e-06 34.4637 -3.69549e-06H35.4637C36.3303 -3.69549e-06 37.0303 0.266663 37.5637 0.799995C38.1303 1.33333 38.4137 2.18333 38.4137 3.34999C38.4137 4.51666 38.1303 5.36666 37.5637 5.89999C37.0303 6.43333 36.3303 6.7 35.4637 6.7H34.4637ZM44.1348 31.45L45.6348 29.95H47.1348C49.8014 29.95 51.1348 28.7833 51.1348 26.45V19.3H56.6348V26.45C56.6348 28.7833 57.8014 29.95 60.1348 29.95H62.1348V35.95L60.6348 37.45C57.9681 37.45 55.9348 36.9167 54.5348 35.85C53.1681 34.75 52.2514 33.0333 51.7848 30.7H51.4848C51.0181 33.0333 50.2181 34.75 49.0848 35.85C47.9514 36.9167 46.3014 37.45 44.1348 37.45V31.45ZM57.3348 48.2C56.4681 48.2 55.7514 47.9333 55.1848 47.4C54.6514 46.8667 54.3848 46.0167 54.3848 44.85C54.3848 43.6833 54.6514 42.8333 55.1848 42.3C55.7514 41.7667 56.4681 41.5 57.3348 41.5H58.3348C59.2014 41.5 59.9014 41.7667 60.4348 42.3C61.0014 42.8333 61.2848 43.6833 61.2848 44.85C61.2848 46.0167 61.0014 46.8667 60.4348 47.4C59.9014 47.9333 59.2014 48.2 58.3348 48.2H57.3348ZM49.4348 48.2C48.5681 48.2 47.8514 47.9333 47.2848 47.4C46.7514 46.8667 46.4848 46.0167 46.4848 44.85C46.4848 43.6833 46.7514 42.8333 47.2848 42.3C47.8514 41.7667 48.5681 41.5 49.4348 41.5H50.4348C51.3014 41.5 52.0014 41.7667 52.5348 42.3C53.1014 42.8333 53.3848 43.6833 53.3848 44.85C53.3848 46.0167 53.1014 46.8667 52.5348 47.4C52.0014 47.9333 51.3014 48.2 50.4348 48.2H49.4348ZM59.1387 31.45L60.6387 29.95H64.0887C65.9553 29.95 67.622 29.9333 69.0887 29.9C70.5887 29.8333 72.0053 29.7 73.3387 29.5C74.672 29.3 75.972 29 77.2387 28.6C78.5053 28.2 79.8553 27.65 81.2887 26.95L83.1387 26.05V25.8L75.1387 24.1L67.5887 22.25V26H61.8387V22.15C61.8387 19.7833 62.3387 18.05 63.3387 16.95C64.372 15.85 65.9387 15.3 68.0387 15.3C68.3053 15.3 68.572 15.3167 68.8387 15.35C69.1387 15.3833 69.472 15.4333 69.8387 15.5C70.2387 15.5667 70.7053 15.6667 71.2387 15.8C71.772 15.9333 72.4387 16.1 73.2387 16.3L82.8887 18.8C84.222 19.1667 85.6553 19.45 87.1887 19.65C88.722 19.85 90.2387 19.95 91.7387 19.95H92.7387V27.45H89.2387C89.272 28.3833 89.5387 29.0333 90.0387 29.4C90.572 29.7667 91.472 29.95 92.7387 29.95H94.2387V35.95L92.7387 37.45C90.2387 37.4167 88.2887 36.85 86.8887 35.75C85.522 34.6167 84.672 32.8667 84.3387 30.5L84.1387 30.65C81.9387 32.15 79.9553 33.35 78.1887 34.25C76.4553 35.1167 74.8053 35.8 73.2387 36.3C71.672 36.7667 70.1553 37.0833 68.6887 37.25C67.222 37.3833 65.6887 37.45 64.0887 37.45H59.1387V31.45ZM137.432 37.45C136.266 37.45 135.149 37.3167 134.082 37.05C133.049 36.75 132.066 36.2167 131.132 35.45C128.999 36.7833 125.966 37.45 122.032 37.45H107.732C105.066 37.45 103.032 36.9167 101.632 35.85C100.266 34.75 99.3491 33.0333 98.8824 30.7H98.5824C98.1158 33.0333 97.3158 34.75 96.1824 35.85C95.0491 36.9167 93.3991 37.45 91.2324 37.45V31.45L92.7324 29.95H94.2324C96.8991 29.95 98.2324 28.7833 98.2324 26.45V23.3H103.732V26.45C103.732 27.8833 104.132 28.8667 104.932 29.4L107.132 25.6C108.299 23.5667 109.482 21.8333 110.682 20.4C111.916 18.9667 113.199 17.8 114.532 16.9C115.866 16 117.266 15.35 118.732 14.95C120.232 14.5167 121.832 14.3 123.532 14.3C127.466 14.3 130.416 15.3833 132.382 17.55C134.349 19.6833 135.332 22.6667 135.332 26.5C135.332 27.7667 135.216 28.8667 134.982 29.8C135.816 29.9 136.632 29.95 137.432 29.95H138.932V35.95L137.432 37.45ZM122.032 29.95C123.632 29.95 124.949 29.9 125.982 29.8C127.049 29.6667 127.899 29.4667 128.532 29.2C129.199 28.9 129.666 28.5 129.932 28C130.199 27.5 130.332 26.85 130.332 26.05C130.332 24.6167 129.866 23.55 128.932 22.85C127.999 22.15 126.449 21.8 124.282 21.8H122.782C121.282 21.8 119.966 21.8667 118.832 22C117.699 22.1 116.699 22.3167 115.832 22.65C114.966 22.9833 114.182 23.45 113.482 24.05C112.782 24.65 112.116 25.4333 111.482 26.4L109.332 29.65L109.482 29.95H122.032ZM135.924 31.45L137.424 29.95H139.624C140.89 29.95 141.724 29.7167 142.124 29.25C142.557 28.75 142.774 27.9833 142.774 26.95V0.449996H148.774V26.95C148.774 30.5167 148.074 33.15 146.674 34.85C145.307 36.55 142.957 37.4167 139.624 37.45H135.924V31.45ZM153.279 0.449996H159.279V37.45H153.279V0.449996Z" fill="#0058C5"/>
</svg>
