<svg width="160" height="49" viewBox="0 0 160 49" fill="none" xmlns="http://www.w3.org/2000/svg">
<path d="M23 37.4502C19.9667 37.4169 17.75 36.6835 16.35 35.2502C14.95 33.7835 14.25 31.7835 14.25 29.2502V29.0002H13.95C13.6833 30.1669 13.3667 31.1502 13 31.9502C12.6667 32.7502 12.2333 33.4002 11.7 33.9002C11.1667 34.3669 10.5333 34.7169 9.8 34.9502C9.06667 35.1502 8.2 35.2502 7.2 35.2502C4.8 35.2502 3 34.6169 1.8 33.3502C0.6 32.0502 1.41561e-07 30.2335 1.41561e-07 27.9002C1.41561e-07 25.1669 0.75 22.9502 2.25 21.2502C3.78333 19.5169 5.83333 18.0169 8.4 16.7502L14 13.9502V11.2002H20V27.2502C20 28.2502 20.2167 28.9502 20.65 29.3502C21.1167 29.7502 21.9 29.9502 23 29.9502H24.5V35.9502L23 37.4502ZM8.85 27.7502C10.7833 27.7502 12.1167 27.5669 12.85 27.2002C13.6167 26.8335 14 26.1669 14 25.2002V19.2002L10.3 20.9502C9.4 21.3835 8.61667 21.7669 7.95 22.1002C7.31667 22.4335 6.76667 22.7835 6.3 23.1502C5.86667 23.4835 5.53333 23.8335 5.3 24.2002C5.1 24.5669 5 24.9835 5 25.4502C5 26.2835 5.26667 26.8835 5.8 27.2502C6.36667 27.5835 7.38333 27.7502 8.85 27.7502ZM16.55 7.20019C15.6833 7.20019 14.9667 6.93353 14.4 6.40019C13.8667 5.86686 13.6 5.01686 13.6 3.85019C13.6 2.68353 13.8667 1.83353 14.4 1.30019C14.9667 0.76686 15.6833 0.500194 16.55 0.500194H17.55C18.4167 0.500194 19.1167 0.76686 19.65 1.30019C20.2167 1.83353 20.5 2.68353 20.5 3.85019C20.5 5.01686 20.2167 5.86686 19.65 6.40019C19.1167 6.93353 18.4167 7.20019 17.55 7.20019H16.55ZM8.65 7.20019C7.78333 7.20019 7.06667 6.93353 6.5 6.40019C5.96667 5.86686 5.7 5.01686 5.7 3.85019C5.7 2.68353 5.96667 1.83353 6.5 1.30019C7.06667 0.76686 7.78333 0.500194 8.65 0.500194H9.65C10.5167 0.500194 11.2167 0.76686 11.75 1.30019C12.3167 1.83353 12.6 2.68353 12.6 3.85019C12.6 5.01686 12.3167 5.86686 11.75 6.40019C11.2167 6.93353 10.5167 7.20019 9.65 7.20019H8.65ZM21.5137 31.4502L23.0137 29.9502H28.3637L28.4637 29.7002C27.197 28.4335 26.3137 27.1002 25.8137 25.7002C25.347 24.2669 25.1137 22.8835 25.1137 21.5502C25.1137 20.0502 25.347 18.6502 25.8137 17.3502C26.2803 16.0169 26.947 14.8669 27.8137 13.9002C28.6803 12.9002 29.7137 12.1169 30.9137 11.5502C32.147 10.9835 33.497 10.7002 34.9637 10.7002C36.4303 10.7002 37.7637 10.9835 38.9637 11.5502C40.197 12.1169 41.247 12.9002 42.1137 13.9002C42.9803 14.8669 43.647 16.0169 44.1137 17.3502C44.5803 18.6502 44.8137 20.0502 44.8137 21.5502C44.8137 22.8835 44.5637 24.2669 44.0637 25.7002C43.597 27.1002 42.7303 28.4335 41.4637 29.7002L41.5637 29.9502H47.1137V35.9502L45.6137 37.4502H45.1137C43.3137 37.4502 41.5637 37.2169 39.8637 36.7502C38.1637 36.2835 36.547 35.4502 35.0137 34.2502C33.4803 35.4502 31.8637 36.2835 30.1637 36.7502C28.4637 37.2169 26.7137 37.4502 24.9137 37.4502H21.5137V31.4502ZM34.9637 29.3002C36.6637 28.3335 37.947 27.3335 38.8137 26.3002C39.6803 25.2335 40.1137 24.0335 40.1137 22.7002C40.1137 21.3002 39.647 20.2002 38.7137 19.4002C37.7803 18.6002 36.6303 18.2002 35.2637 18.2002H34.6637C33.297 18.2002 32.147 18.6002 31.2137 19.4002C30.2803 20.2002 29.8137 21.3002 29.8137 22.7002C29.8137 24.0335 30.247 25.2335 31.1137 26.3002C31.9803 27.3335 33.2637 28.3335 34.9637 29.3002ZM34.4637 6.70019C33.597 6.70019 32.8803 6.43353 32.3137 5.90019C31.7803 5.36686 31.5137 4.51686 31.5137 3.35019C31.5137 2.18353 31.7803 1.33353 32.3137 0.800193C32.8803 0.266861 33.597 0.000194669 34.4637 0.000194669H35.4637C36.3303 0.000194669 37.0303 0.266861 37.5637 0.800193C38.1303 1.33353 38.4137 2.18353 38.4137 3.35019C38.4137 4.51686 38.1303 5.36686 37.5637 5.90019C37.0303 6.43353 36.3303 6.70019 35.4637 6.70019H34.4637ZM44.1348 31.4502L45.6348 29.9502H47.1348C49.8014 29.9502 51.1348 28.7835 51.1348 26.4502V19.3002H56.6348V26.4502C56.6348 28.7835 57.8014 29.9502 60.1348 29.9502H62.1348V35.9502L60.6348 37.4502C57.9681 37.4502 55.9348 36.9169 54.5348 35.8502C53.1681 34.7502 52.2514 33.0335 51.7848 30.7002H51.4848C51.0181 33.0335 50.2181 34.7502 49.0848 35.8502C47.9514 36.9169 46.3014 37.4502 44.1348 37.4502V31.4502ZM57.3348 48.2002C56.4681 48.2002 55.7514 47.9335 55.1848 47.4002C54.6514 46.8669 54.3848 46.0169 54.3848 44.8502C54.3848 43.6835 54.6514 42.8335 55.1848 42.3002C55.7514 41.7669 56.4681 41.5002 57.3348 41.5002H58.3348C59.2014 41.5002 59.9014 41.7669 60.4348 42.3002C61.0014 42.8335 61.2848 43.6835 61.2848 44.8502C61.2848 46.0169 61.0014 46.8669 60.4348 47.4002C59.9014 47.9335 59.2014 48.2002 58.3348 48.2002H57.3348ZM49.4348 48.2002C48.5681 48.2002 47.8514 47.9335 47.2848 47.4002C46.7514 46.8669 46.4848 46.0169 46.4848 44.8502C46.4848 43.6835 46.7514 42.8335 47.2848 42.3002C47.8514 41.7669 48.5681 41.5002 49.4348 41.5002H50.4348C51.3014 41.5002 52.0014 41.7669 52.5348 42.3002C53.1014 42.8335 53.3848 43.6835 53.3848 44.8502C53.3848 46.0169 53.1014 46.8669 52.5348 47.4002C52.0014 47.9335 51.3014 48.2002 50.4348 48.2002H49.4348ZM59.1387 31.4502L60.6387 29.9502H64.0887C65.9553 29.9502 67.622 29.9335 69.0887 29.9002C70.5887 29.8335 72.0053 29.7002 73.3387 29.5002C74.672 29.3002 75.972 29.0002 77.2387 28.6002C78.5053 28.2002 79.8553 27.6502 81.2887 26.9502L83.1387 26.0502V25.8002L75.1387 24.1002L67.5887 22.2502V26.0002H61.8387V22.1502C61.8387 19.7835 62.3387 18.0502 63.3387 16.9502C64.372 15.8502 65.9387 15.3002 68.0387 15.3002C68.3053 15.3002 68.572 15.3169 68.8387 15.3502C69.1387 15.3835 69.472 15.4335 69.8387 15.5002C70.2387 15.5669 70.7053 15.6669 71.2387 15.8002C71.772 15.9335 72.4387 16.1002 73.2387 16.3002L82.8887 18.8002C84.222 19.1669 85.6553 19.4502 87.1887 19.6502C88.722 19.8502 90.2387 19.9502 91.7387 19.9502H92.7387V27.4502H89.2387C89.272 28.3835 89.5387 29.0335 90.0387 29.4002C90.572 29.7669 91.472 29.9502 92.7387 29.9502H94.2387V35.9502L92.7387 37.4502C90.2387 37.4169 88.2887 36.8502 86.8887 35.7502C85.522 34.6169 84.672 32.8669 84.3387 30.5002L84.1387 30.6502C81.9387 32.1502 79.9553 33.3502 78.1887 34.2502C76.4553 35.1169 74.8053 35.8002 73.2387 36.3002C71.672 36.7669 70.1553 37.0835 68.6887 37.2502C67.222 37.3835 65.6887 37.4502 64.0887 37.4502H59.1387V31.4502ZM137.432 37.4502C136.266 37.4502 135.149 37.3169 134.082 37.0502C133.049 36.7502 132.066 36.2169 131.132 35.4502C128.999 36.7835 125.966 37.4502 122.032 37.4502H107.732C105.066 37.4502 103.032 36.9169 101.632 35.8502C100.266 34.7502 99.3491 33.0335 98.8824 30.7002H98.5824C98.1158 33.0335 97.3158 34.7502 96.1824 35.8502C95.0491 36.9169 93.3991 37.4502 91.2324 37.4502V31.4502L92.7324 29.9502H94.2324C96.8991 29.9502 98.2324 28.7835 98.2324 26.4502V23.3002H103.732V26.4502C103.732 27.8835 104.132 28.8669 104.932 29.4002L107.132 25.6002C108.299 23.5669 109.482 21.8335 110.682 20.4002C111.916 18.9669 113.199 17.8002 114.532 16.9002C115.866 16.0002 117.266 15.3502 118.732 14.9502C120.232 14.5169 121.832 14.3002 123.532 14.3002C127.466 14.3002 130.416 15.3835 132.382 17.5502C134.349 19.6835 135.332 22.6669 135.332 26.5002C135.332 27.7669 135.216 28.8669 134.982 29.8002C135.816 29.9002 136.632 29.9502 137.432 29.9502H138.932V35.9502L137.432 37.4502ZM122.032 29.9502C123.632 29.9502 124.949 29.9002 125.982 29.8002C127.049 29.6669 127.899 29.4669 128.532 29.2002C129.199 28.9002 129.666 28.5002 129.932 28.0002C130.199 27.5002 130.332 26.8502 130.332 26.0502C130.332 24.6169 129.866 23.5502 128.932 22.8502C127.999 22.1502 126.449 21.8002 124.282 21.8002H122.782C121.282 21.8002 119.966 21.8669 118.832 22.0002C117.699 22.1002 116.699 22.3169 115.832 22.6502C114.966 22.9835 114.182 23.4502 113.482 24.0502C112.782 24.6502 112.116 25.4335 111.482 26.4002L109.332 29.6502L109.482 29.9502H122.032ZM135.924 31.4502L137.424 29.9502H139.624C140.89 29.9502 141.724 29.7169 142.124 29.2502C142.557 28.7502 142.774 27.9835 142.774 26.9502V0.450195H148.774V26.9502C148.774 30.5169 148.074 33.1502 146.674 34.8502C145.307 36.5502 142.957 37.4169 139.624 37.4502H135.924V31.4502ZM153.279 0.450195H159.279V37.4502H153.279V0.450195Z" fill="#0058C5"/>
</svg>
