<svg width="81" height="24" viewBox="0 0 81 24" fill="none" xmlns="http://www.w3.org/2000/svg">
<path d="M11.04 17.9756C9.58396 17.9596 8.51996 17.6076 7.84796 16.9196C7.17596 16.2156 6.83996 15.2556 6.83996 14.0396V13.9196H6.69596C6.56796 14.4796 6.41596 14.9516 6.23996 15.3356C6.07996 15.7196 5.87196 16.0316 5.61596 16.2716C5.35996 16.4956 5.05596 16.6636 4.70396 16.7756C4.35196 16.8716 3.93596 16.9196 3.45596 16.9196C2.30396 16.9196 1.43996 16.6156 0.863963 16.0076C0.287963 15.3836 -3.71635e-05 14.5116 -3.71635e-05 13.3916C-3.71635e-05 12.0796 0.359963 11.0156 1.07996 10.1996C1.81596 9.36759 2.79996 8.64759 4.03196 8.03959L6.71996 6.69559V5.37559H9.59996V13.0796C9.59996 13.5596 9.70396 13.8956 9.91196 14.0876C10.136 14.2796 10.512 14.3756 11.04 14.3756H11.76V17.2556L11.04 17.9756ZM4.24796 13.3196C5.17596 13.3196 5.81596 13.2316 6.16796 13.0556C6.53596 12.8796 6.71996 12.5596 6.71996 12.0956V9.21559L4.94396 10.0556C4.51196 10.2636 4.13596 10.4476 3.81596 10.6076C3.51196 10.7676 3.24796 10.9356 3.02396 11.1116C2.81596 11.2716 2.65596 11.4396 2.54396 11.6156C2.44796 11.7916 2.39996 11.9916 2.39996 12.2156C2.39996 12.6156 2.52796 12.9036 2.78396 13.0796C3.05596 13.2396 3.54396 13.3196 4.24796 13.3196ZM7.94396 3.45559C7.52796 3.45559 7.18396 3.32759 6.91196 3.07158C6.65596 2.81559 6.52796 2.40759 6.52796 1.84758C6.52796 1.28759 6.65596 0.879585 6.91196 0.623585C7.18396 0.367585 7.52796 0.239585 7.94396 0.239585H8.42396C8.83996 0.239585 9.17596 0.367585 9.43196 0.623585C9.70396 0.879585 9.83996 1.28759 9.83996 1.84758C9.83996 2.40759 9.70396 2.81559 9.43196 3.07158C9.17596 3.32759 8.83996 3.45559 8.42396 3.45559H7.94396ZM4.15196 3.45559C3.73596 3.45559 3.39196 3.32759 3.11996 3.07158C2.86396 2.81559 2.73596 2.40759 2.73596 1.84758C2.73596 1.28759 2.86396 0.879585 3.11996 0.623585C3.39196 0.367585 3.73596 0.239585 4.15196 0.239585H4.63196C5.04796 0.239585 5.38396 0.367585 5.63996 0.623585C5.91196 0.879585 6.04796 1.28759 6.04796 1.84758C6.04796 2.40759 5.91196 2.81559 5.63996 3.07158C5.38396 3.32759 5.04796 3.45559 4.63196 3.45559H4.15196ZM11.0465 15.0956L11.7665 14.3756H14.3345L14.3825 14.2556C13.7745 13.6476 13.3505 13.0076 13.1105 12.3356C12.8865 11.6476 12.7745 10.9836 12.7745 10.3436C12.7745 9.62359 12.8865 8.95159 13.1105 8.32759C13.3345 7.68759 13.6545 7.13559 14.0705 6.67159C14.4865 6.19159 14.9825 5.81559 15.5585 5.54359C16.1505 5.27159 16.7985 5.13559 17.5025 5.13559C18.2065 5.13559 18.8465 5.27159 19.4225 5.54359C20.0145 5.81559 20.5185 6.19159 20.9345 6.67159C21.3505 7.13559 21.6705 7.68759 21.8945 8.32759C22.1185 8.95159 22.2305 9.62359 22.2305 10.3436C22.2305 10.9836 22.1105 11.6476 21.8705 12.3356C21.6465 13.0076 21.2305 13.6476 20.6225 14.2556L20.6705 14.3756H23.3345V17.2556L22.6145 17.9756H22.3745C21.5105 17.9756 20.6705 17.8636 19.8545 17.6396C19.0385 17.4156 18.2625 17.0156 17.5265 16.4396C16.7905 17.0156 16.0145 17.4156 15.1985 17.6396C14.3825 17.8636 13.5425 17.9756 12.6785 17.9756H11.0465V15.0956ZM17.5025 14.0636C18.3185 13.5996 18.9345 13.1196 19.3505 12.6236C19.7665 12.1116 19.9745 11.5356 19.9745 10.8956C19.9745 10.2236 19.7505 9.69559 19.3025 9.31159C18.8545 8.92759 18.3025 8.73559 17.6465 8.73559H17.3585C16.7025 8.73559 16.1505 8.92759 15.7025 9.31159C15.2545 9.69559 15.0305 10.2236 15.0305 10.8956C15.0305 11.5356 15.2385 12.1116 15.6545 12.6236C16.0705 13.1196 16.6865 13.5996 17.5025 14.0636ZM17.2625 3.21559C16.8465 3.21559 16.5025 3.08759 16.2305 2.83158C15.9745 2.57559 15.8465 2.16759 15.8465 1.60758C15.8465 1.04759 15.9745 0.639585 16.2305 0.383585C16.5025 0.127585 16.8465 -0.000414371 17.2625 -0.000414371H17.7425C18.1585 -0.000414371 18.4945 0.127585 18.7505 0.383585C19.0225 0.639585 19.1585 1.04759 19.1585 1.60758C19.1585 2.16759 19.0225 2.57559 18.7505 2.83158C18.4945 3.08759 18.1585 3.21559 17.7425 3.21559H17.2625ZM22.6247 15.0956L23.3447 14.3756H24.0647C25.3447 14.3756 25.9847 13.8156 25.9847 12.6956V9.26359H28.6247V12.6956C28.6247 13.8156 29.1847 14.3756 30.3047 14.3756H31.2647V17.2556L30.5447 17.9756C29.2647 17.9756 28.2887 17.7196 27.6167 17.2076C26.9607 16.6796 26.5207 15.8556 26.2967 14.7356H26.1527C25.9287 15.8556 25.5447 16.6796 25.0007 17.2076C24.4567 17.7196 23.6647 17.9756 22.6247 17.9756V15.0956ZM28.9607 23.1356C28.5447 23.1356 28.2007 23.0076 27.9287 22.7516C27.6727 22.4956 27.5447 22.0876 27.5447 21.5276C27.5447 20.9676 27.6727 20.5596 27.9287 20.3036C28.2007 20.0476 28.5447 19.9196 28.9607 19.9196H29.4407C29.8567 19.9196 30.1927 20.0476 30.4487 20.3036C30.7207 20.5596 30.8567 20.9676 30.8567 21.5276C30.8567 22.0876 30.7207 22.4956 30.4487 22.7516C30.1927 23.0076 29.8567 23.1356 29.4407 23.1356H28.9607ZM25.1687 23.1356C24.7527 23.1356 24.4087 23.0076 24.1367 22.7516C23.8807 22.4956 23.7527 22.0876 23.7527 21.5276C23.7527 20.9676 23.8807 20.5596 24.1367 20.3036C24.4087 20.0476 24.7527 19.9196 25.1687 19.9196H25.6487C26.0647 19.9196 26.4007 20.0476 26.6567 20.3036C26.9287 20.5596 27.0647 20.9676 27.0647 21.5276C27.0647 22.0876 26.9287 22.4956 26.6567 22.7516C26.4007 23.0076 26.0647 23.1356 25.6487 23.1356H25.1687ZM30.5465 15.0956L31.2665 14.3756H32.9225C33.8185 14.3756 34.6185 14.3676 35.3225 14.3516C36.0425 14.3196 36.7225 14.2556 37.3625 14.1596C38.0025 14.0636 38.6265 13.9196 39.2345 13.7276C39.8425 13.5356 40.4905 13.2716 41.1785 12.9356L42.0665 12.5036V12.3836L38.2265 11.5676L34.6025 10.6796V12.4796H31.8425V10.6316C31.8425 9.49559 32.0825 8.66359 32.5625 8.13559C33.0585 7.60759 33.8105 7.34359 34.8185 7.34359C34.9465 7.34359 35.0745 7.35159 35.2025 7.36759C35.3465 7.38359 35.5065 7.40759 35.6825 7.43959C35.8745 7.47159 36.0985 7.51959 36.3545 7.58359C36.6105 7.64759 36.9305 7.72759 37.3145 7.82359L41.9465 9.02359C42.5865 9.19959 43.2745 9.33559 44.0105 9.43159C44.7465 9.52759 45.4745 9.57559 46.1945 9.57559H46.6745V13.1756H44.9945C45.0105 13.6236 45.1385 13.9356 45.3785 14.1116C45.6345 14.2876 46.0665 14.3756 46.6745 14.3756H47.3945V17.2556L46.6745 17.9756C45.4745 17.9596 44.5385 17.6876 43.8665 17.1596C43.2105 16.6156 42.8025 15.7756 42.6425 14.6396L42.5465 14.7116C41.4905 15.4316 40.5385 16.0076 39.6905 16.4396C38.8585 16.8556 38.0665 17.1836 37.3145 17.4236C36.5625 17.6476 35.8345 17.7996 35.1305 17.8796C34.4265 17.9436 33.6905 17.9756 32.9225 17.9756H30.5465V15.0956ZM68.8475 17.9756C68.2875 17.9756 67.7515 17.9116 67.2395 17.7836C66.7435 17.6396 66.2715 17.3836 65.8235 17.0156C64.7995 17.6556 63.3435 17.9756 61.4555 17.9756H54.5915C53.3115 17.9756 52.3355 17.7196 51.6635 17.2076C51.0075 16.6796 50.5675 15.8556 50.3435 14.7356H50.1995C49.9755 15.8556 49.5915 16.6796 49.0475 17.2076C48.5035 17.7196 47.7115 17.9756 46.6715 17.9756V15.0956L47.3915 14.3756H48.1115C49.3915 14.3756 50.0315 13.8156 50.0315 12.6956V11.1836H52.6715V12.6956C52.6715 13.3836 52.8635 13.8556 53.2475 14.1116L54.3035 12.2876C54.8635 11.3116 55.4315 10.4796 56.0075 9.79159C56.5995 9.10359 57.2155 8.54359 57.8555 8.11159C58.4955 7.67959 59.1675 7.36759 59.8715 7.17559C60.5915 6.96759 61.3595 6.86359 62.1755 6.86359C64.0635 6.86359 65.4795 7.38359 66.4235 8.42359C67.3675 9.44759 67.8395 10.8796 67.8395 12.7196C67.8395 13.3276 67.7835 13.8556 67.6715 14.3036C68.0715 14.3516 68.4635 14.3756 68.8475 14.3756H69.5675V17.2556L68.8475 17.9756ZM61.4555 14.3756C62.2235 14.3756 62.8555 14.3516 63.3515 14.3036C63.8635 14.2396 64.2715 14.1436 64.5755 14.0156C64.8955 13.8716 65.1195 13.6796 65.2475 13.4396C65.3755 13.1996 65.4395 12.8876 65.4395 12.5036C65.4395 11.8156 65.2155 11.3036 64.7675 10.9676C64.3195 10.6316 63.5755 10.4636 62.5355 10.4636H61.8155C61.0955 10.4636 60.4635 10.4956 59.9195 10.5596C59.3755 10.6076 58.8955 10.7116 58.4795 10.8716C58.0635 11.0316 57.6875 11.2556 57.3515 11.5436C57.0155 11.8316 56.6955 12.2076 56.3915 12.6716L55.3595 14.2316L55.4315 14.3756H61.4555ZM68.8434 15.0956L69.5634 14.3756H70.6194C71.2274 14.3756 71.6274 14.2636 71.8194 14.0396C72.0274 13.7996 72.1314 13.4316 72.1314 12.9356V0.215586H75.0114V12.9356C75.0114 14.6476 74.6754 15.9116 74.0034 16.7276C73.3474 17.5436 72.2194 17.9596 70.6194 17.9756H68.8434V15.0956ZM77.894 0.215586H80.774V17.9756H77.894V0.215586Z" fill="white"/>
</svg>
