<svg width="43" height="33" viewBox="0 0 43 33" fill="none" xmlns="http://www.w3.org/2000/svg">
<path d="M3.49996 32.2883C2.52818 32.2883 1.7019 31.948 1.02114 31.2672C0.340381 30.5864 0 29.7602 0 28.7884C0 27.8166 0.340381 26.9903 1.02114 26.3096C1.7019 25.6288 2.52818 25.2884 3.49996 25.2884C3.72561 25.2884 3.92945 25.298 4.11151 25.3173C4.29356 25.3365 4.47433 25.3987 4.65382 25.5038L14.2154 15.9422C14.1103 15.7627 14.0481 15.582 14.0288 15.3999C14.0096 15.2179 14 15.014 14 14.7884C14 13.8166 14.3404 12.9903 15.0211 12.3096C15.7019 11.6288 16.5282 11.2884 17.5 11.2884C18.4717 11.2884 19.298 11.6288 19.9788 12.3096C20.6595 12.9903 20.9999 13.8166 20.9999 14.7884C20.9999 14.9063 20.941 15.2781 20.823 15.9038L26.3846 21.4653C26.5641 21.3858 26.7384 21.3365 26.9076 21.3173C27.0769 21.298 27.2743 21.2884 27.5 21.2884C27.7256 21.2884 27.9263 21.298 28.1019 21.3173C28.2775 21.3365 28.4487 21.3987 28.6154 21.5038L36.2154 13.9038C36.1103 13.7371 36.0481 13.5659 36.0288 13.3903C36.0096 13.2147 36 13.014 36 12.7884C36 11.8166 36.3404 10.9903 37.0211 10.3096C37.7019 9.62879 38.5282 9.28841 39.5 9.28841C40.4717 9.28841 41.298 9.62879 41.9788 10.3096C42.6595 10.9903 42.9999 11.8166 42.9999 12.7884C42.9999 13.7602 42.6595 14.5864 41.9788 15.2672C41.298 15.948 40.4717 16.2883 39.5 16.2883C39.2743 16.2883 39.0737 16.2787 38.898 16.2595C38.7224 16.2403 38.5512 16.1781 38.3846 16.0729L30.7845 23.673C30.8897 23.8396 30.9518 24.0108 30.9711 24.1864C30.9903 24.3621 30.9999 24.5627 30.9999 24.7884C30.9999 25.7602 30.6595 26.5864 29.9788 27.2672C29.298 27.948 28.4717 28.2883 27.5 28.2883C26.5282 28.2883 25.7019 27.948 25.0211 27.2672C24.3404 26.5864 24 25.7602 24 24.7884C24 24.5627 24.0096 24.3589 24.0288 24.1768C24.0481 23.9948 24.1103 23.814 24.2154 23.6345L18.6538 18.0729C18.4743 18.1781 18.2936 18.2403 18.1115 18.2595C17.9295 18.2787 17.7256 18.2883 17.5 18.2883C17.382 18.2883 17.0102 18.2294 16.3846 18.1114L6.823 27.673C6.90249 27.8525 6.95185 28.0268 6.97108 28.1961C6.99031 28.3653 6.99993 28.5627 6.99993 28.7884C6.99993 29.7602 6.65955 30.5864 5.97878 31.2672C5.29802 31.948 4.47175 32.2883 3.49996 32.2883ZM5.49996 11.9499L4.49998 9.78835L2.33848 8.78837L4.49998 7.78839L5.49996 5.62689L6.49995 7.78839L8.66144 8.78837L6.49995 9.78835L5.49996 11.9499ZM27.5 9.57675L25.9846 6.30373L22.7116 4.78837L25.9846 3.27302L27.5 0L29.0153 3.27302L32.2883 4.78837L29.0153 6.30373L27.5 9.57675Z" fill="#005BBF"/>
</svg>
