<svg width="30" height="38" viewBox="0 0 30 38" fill="none" xmlns="http://www.w3.org/2000/svg">
<path d="M12.8999 25.3306L23.5076 14.723L21.3692 12.5846L12.8999 21.0538L8.66146 16.8154L6.52305 18.9538L12.8999 25.3306ZM14.9999 37.8845C10.6743 36.705 7.09292 34.1588 4.25575 30.246C1.41858 26.3332 0 21.9589 0 17.123V5.61536L14.9999 0L29.9999 5.61536V17.123C29.9999 21.9589 28.5813 26.3332 25.7441 30.246C22.9069 34.1588 19.3255 36.705 14.9999 37.8845ZM14.9999 34.723C18.4666 33.623 21.3333 31.423 23.5999 28.123C25.8666 24.823 26.9999 21.1563 26.9999 17.123V7.673L14.9999 3.19223L2.99993 7.673V17.123C2.99993 21.1563 4.13326 24.823 6.39993 28.123C8.66659 31.423 11.5333 33.623 14.9999 34.723Z" fill="#005BBF"/>
</svg>
