<svg width="25" height="25" viewBox="0 0 25 25" fill="none" xmlns="http://www.w3.org/2000/svg">
<path fill-rule="evenodd" clip-rule="evenodd" d="M25 12.5C25 19.4035 19.4035 25 12.5 25C5.59644 25 0 19.4035 0 12.5C0 5.59644 5.59644 0 12.5 0C19.4035 0 25 5.59644 25 12.5ZM12.5 4.0625C13.0177 4.0625 13.4375 4.48224 13.4375 5V5.39591C15.4755 5.76084 17.1875 7.29201 17.1875 9.375C17.1875 9.89276 16.7677 10.3125 16.25 10.3125C15.7323 10.3125 15.3125 9.89276 15.3125 9.375C15.3125 8.52693 14.6074 7.62924 13.4375 7.30935V11.6459C15.4755 12.0109 17.1875 13.542 17.1875 15.625C17.1875 17.708 15.4755 19.2391 13.4375 19.6041V20C13.4375 20.5177 13.0177 20.9375 12.5 20.9375C11.9823 20.9375 11.5625 20.5177 11.5625 20V19.6041C9.52446 19.2391 7.8125 17.708 7.8125 15.625C7.8125 15.1073 8.23224 14.6875 8.75 14.6875C9.26776 14.6875 9.6875 15.1073 9.6875 15.625C9.6875 16.4731 10.3926 17.3708 11.5625 17.6906V13.3541C9.52446 12.9891 7.8125 11.458 7.8125 9.375C7.8125 7.29201 9.52446 5.76084 11.5625 5.39591V5C11.5625 4.48224 11.9823 4.0625 12.5 4.0625Z" fill="#005BBF"/>
</svg>
