<svg width="23" height="25" viewBox="0 0 23 25" fill="none" xmlns="http://www.w3.org/2000/svg">
<path d="M11.25 25.0002C9.815 25.0002 6.9775 23.2977 4.8375 20.8252C1.8 17.3177 8.42704e-08 12.4589 8.42704e-08 6.25019C-9.16892e-05 6.0002 0.074777 5.75592 0.214935 5.54891C0.355093 5.34191 0.5541 5.18168 0.78625 5.08894C4.87875 3.45144 8.13625 1.82269 10.5562 0.210187C10.7617 0.0731382 11.0031 0 11.25 0C11.4969 0 11.7383 0.0731382 11.9438 0.210187C14.3625 1.82269 17.6225 3.45269 21.7138 5.08894C21.9459 5.18168 22.1449 5.34191 22.2851 5.54891C22.4252 5.75592 22.5001 6.0002 22.5 6.25019C22.5 12.4602 20.7 17.3189 17.6625 20.8252C15.5237 23.2964 12.6862 25.0002 11.25 25.0002Z" fill="#005BBF"/>
</svg>
