<svg width="30" height="30" viewBox="0 0 30 30" fill="none" xmlns="http://www.w3.org/2000/svg">
<path d="M21.9114 9.7125C21.8239 9.7 21.7364 9.7 21.6489 9.7125C19.7114 9.65 18.1739 8.0625 18.1739 6.1125C18.1739 4.125 19.7864 2.5 21.7864 2.5C23.7739 2.5 25.3989 4.1125 25.3989 6.1125C25.3864 8.0625 23.8489 9.65 21.9114 9.7125Z" fill="#005BBF"/>
<path d="M25.9895 18.3755C24.5895 19.313 22.627 19.663 20.8145 19.4255C21.2895 18.4005 21.5395 17.263 21.552 16.063C21.552 14.813 21.277 13.6255 20.752 12.588C22.602 12.338 24.5645 12.688 25.977 13.6255C27.952 14.9255 27.952 17.063 25.9895 18.3755Z" fill="#005BBF"/>
<path d="M8.05117 9.7125C8.13867 9.7 8.22617 9.7 8.31367 9.7125C10.2512 9.65 11.7887 8.0625 11.7887 6.1125C11.7887 4.1125 10.1762 2.5 8.17617 2.5C6.18867 2.5 4.57617 4.1125 4.57617 6.1125C4.57617 8.0625 6.11367 9.65 8.05117 9.7125Z" fill="#005BBF"/>
<path d="M8.18789 16.0632C8.18789 17.2757 8.45039 18.4257 8.92539 19.4632C7.16289 19.6507 5.32539 19.2757 3.97539 18.3882C2.00039 17.0757 2.00039 14.9382 3.97539 13.6257C5.31289 12.7257 7.20039 12.3632 8.97539 12.5632C8.46289 13.6132 8.18789 14.8007 8.18789 16.0632Z" fill="#005BBF"/>
<path d="M15.15 19.8375C15.05 19.825 14.9375 19.825 14.825 19.8375C12.525 19.7625 10.6875 17.875 10.6875 15.55C10.7 13.175 12.6125 11.25 15 11.25C17.375 11.25 19.3 13.175 19.3 15.55C19.2875 17.875 17.4625 19.7625 15.15 19.8375Z" fill="#005BBF"/>
<path d="M11.0875 22.4258C9.2 23.6883 9.2 25.7633 11.0875 27.0133C13.2375 28.4508 16.7625 28.4508 18.9125 27.0133C20.8 25.7508 20.8 23.6758 18.9125 22.4258C16.775 20.9883 13.25 20.9883 11.0875 22.4258Z" fill="#005BBF"/>
</svg>
