<svg width="23" height="25" viewBox="0 0 23 25" fill="none" xmlns="http://www.w3.org/2000/svg">
<path fill-rule="evenodd" clip-rule="evenodd" d="M0.4719 3.85301C1.11759e-07 4.52535 0 6.52384 0 10.5209V12.4893C0 19.5367 5.2987 22.9569 8.6232 24.4091C9.525 24.803 9.97587 25 11.25 25C12.5241 25 12.975 24.803 13.8768 24.4091C17.2013 22.9569 22.5 19.5367 22.5 12.4893V10.5209C22.5 6.52384 22.5 4.52535 22.0281 3.85301C21.5562 3.18067 19.6771 2.53745 15.9189 1.251L15.2029 1.0059C13.2438 0.3353 12.2642 0 11.25 0C10.2358 0 9.25625 0.3353 7.29715 1.0059L6.58114 1.25099C2.8229 2.53745 0.943788 3.18067 0.4719 3.85301ZM4.0625 12.5C4.0625 11.5561 4.24841 10.6215 4.60961 9.74946C4.97082 8.87744 5.50025 8.08509 6.16768 7.41768C6.83509 6.75025 7.62744 6.22082 8.49946 5.85961C9.3715 5.49841 10.3061 5.3125 11.25 5.3125C12.1939 5.3125 13.1285 5.49841 14.0005 5.85961C14.8726 6.22082 15.6649 6.75025 16.3324 7.41768C16.9998 8.08509 17.5291 8.87744 17.8904 9.74946C18.2516 10.6215 18.4375 11.5561 18.4375 12.5C18.4375 13.4439 18.2516 14.3785 17.8904 15.2505C17.5291 16.1226 16.9998 16.9149 16.3324 17.5824C15.6649 18.2498 14.8726 18.7791 14.0005 19.1404C13.1285 19.5016 12.1939 19.6875 11.25 19.6875C10.3061 19.6875 9.3715 19.5016 8.49946 19.1404C7.62744 18.7791 6.83509 18.2498 6.16768 17.5824C5.50025 16.9149 4.97082 16.1226 4.60961 15.2505C4.24841 14.3785 4.0625 13.4439 4.0625 12.5Z" fill="#005BBF"/>
</svg>
