<svg width="42" height="41" viewBox="0 0 42 41" fill="none" xmlns="http://www.w3.org/2000/svg">
<path d="M13.9376 23.8544C14.0759 22.7098 14.5453 22.0689 15.43 21.412C16.6958 20.5222 18.2769 21.0255 18.2769 21.0255V18.0398C18.6614 18.0299 19.0459 18.0527 19.426 18.1078V21.9502C19.426 21.9502 17.8454 21.4469 16.5796 22.3371C15.6954 22.9936 15.225 23.635 15.0873 24.7796C15.0829 25.4011 15.1996 26.2136 15.7368 26.9161C15.6039 26.848 15.4685 26.7704 15.3306 26.6833C14.1474 25.8888 13.9319 24.6968 13.9376 23.8544ZM25.9547 12.5191C25.084 11.5649 24.7546 10.6015 24.6357 9.9248H25.731C25.731 9.9248 25.5126 11.6992 27.1043 13.4442L27.1264 13.4677C26.6974 13.1979 26.304 12.8793 25.9547 12.5191ZM31.2314 15.2242V18.9893C31.2314 18.9893 29.8337 18.9346 28.7993 18.6714C27.3549 18.3033 26.4265 17.7388 26.4265 17.7388C26.4265 17.7388 25.7852 17.3363 25.7334 17.3083V25.0832C25.7334 25.5162 25.6149 26.5973 25.2534 27.499C24.7815 28.6786 24.0534 29.4528 23.9195 29.6111C23.9195 29.6111 23.0338 30.6577 21.4714 31.3626C20.0631 31.9984 18.8265 31.9823 18.4569 31.9984C18.4569 31.9984 16.3195 32.083 14.396 30.833C13.9801 30.5575 13.5919 30.2455 13.2363 29.9009L13.2459 29.9078C15.1698 31.1578 17.3068 31.0731 17.3068 31.0731C17.6769 31.057 18.9134 31.0731 20.3213 30.4373C21.8823 29.7326 22.7693 28.686 22.7693 28.686C22.9019 28.5277 23.6334 27.7534 24.1033 26.5734C24.4638 25.6721 24.5833 24.5905 24.5833 24.1576V16.3836C24.6351 16.4121 25.276 16.8146 25.276 16.8146C25.276 16.8146 26.2048 17.3796 27.6492 17.7472C28.684 18.0103 30.0814 18.0651 30.0814 18.0651V15.1147C30.5594 15.2219 30.967 15.2509 31.2314 15.2242Z" fill="#EE1D52"/>
<path d="M30.0822 15.1147V18.0641C30.0822 18.0641 28.6849 18.0094 27.65 17.7463C26.2057 17.3782 25.2768 16.8137 25.2768 16.8137C25.2768 16.8137 24.636 16.4112 24.5841 16.3826V24.1585C24.5841 24.5914 24.4656 25.673 24.1041 26.5743C23.6323 27.7544 22.9041 28.5286 22.7702 28.6868C22.7702 28.6868 21.8841 29.7334 20.3221 30.4383C18.9142 31.0741 17.6778 31.058 17.3076 31.0741C17.3076 31.0741 15.1707 31.1588 13.2468 29.9088L13.2372 29.9019C13.034 29.7051 12.8428 29.4975 12.6645 29.2799C12.0506 28.5313 11.6743 27.6462 11.5797 27.3936V27.3904C11.4275 26.9515 11.1078 25.8975 11.1515 24.8766C11.2288 23.0755 11.8624 21.97 12.0299 21.693C12.4736 20.9378 13.0507 20.2621 13.7354 19.696C14.3397 19.2074 15.0246 18.8187 15.762 18.5458C16.5592 18.2254 17.4129 18.0536 18.2773 18.0398V21.0255C18.2773 21.0255 16.6961 20.5241 15.4308 21.412C14.5462 22.0689 14.0767 22.7097 13.9385 23.8544C13.9327 24.6968 14.1482 25.8888 15.3305 26.6838C15.4684 26.7712 15.6037 26.8488 15.7366 26.9165C15.9431 27.185 16.1945 27.419 16.4806 27.6089C17.6355 28.34 18.6032 28.391 19.8407 27.9162C20.6658 27.5988 21.2869 26.8834 21.5749 26.0907C21.7559 25.5958 21.7536 25.0975 21.7536 24.5822V9.9248H24.6336C24.7526 10.6015 25.0819 11.5649 25.9527 12.5191C26.3019 12.8793 26.6954 13.1979 27.1244 13.4677C27.2511 13.5988 27.8991 14.247 28.7309 14.645C29.1611 14.8507 29.6145 15.0083 30.0822 15.1147Z" fill="black"/>
<path d="M10.4326 26.4766V26.4789L10.5041 26.6726C10.4959 26.65 10.4693 26.5815 10.4326 26.4766Z" fill="#69C9D0"/>
<path d="M15.7615 18.5459C15.024 18.8189 14.3391 19.2077 13.7349 19.6961C13.0499 20.2635 12.473 20.9407 12.0299 21.6974C11.8623 21.9734 11.2287 23.0799 11.1515 24.881C11.1078 25.9018 11.4275 26.9559 11.5796 27.3947V27.3979C11.6756 27.6483 12.0505 28.5333 12.6644 29.2842C12.8428 29.5018 13.034 29.7095 13.2371 29.9062C12.5863 29.4748 12.0059 28.9533 11.5148 28.3585C10.9062 27.6165 10.5308 26.7405 10.4329 26.482C10.4328 26.4801 10.4328 26.4782 10.4329 26.4765V26.4732C10.2802 26.0348 9.95958 24.9803 10.0042 23.9581C10.0815 22.157 10.7151 21.0515 10.8826 20.7745C11.3256 20.0177 11.9026 19.3405 12.5876 18.7733C13.1918 18.2845 13.8767 17.8958 14.6142 17.6231C15.0743 17.4402 15.5536 17.3053 16.0437 17.2206C16.7824 17.097 17.5369 17.0862 18.2791 17.1888V18.0399C17.414 18.0535 16.5594 18.2253 15.7615 18.5459Z" fill="#69C9D0"/>
<path d="M24.6352 9.92563H21.7551V24.5836C21.7551 25.0988 21.7551 25.5957 21.5766 26.092C21.2857 26.8843 20.6669 27.5996 19.8423 27.9171C18.6044 28.3937 17.6367 28.3408 16.4823 27.6098C16.1956 27.4206 15.9436 27.1875 15.7363 26.9197C16.7199 27.4225 17.6002 27.4137 18.6907 26.9943C19.515 26.6768 20.1346 25.9614 20.4245 25.1687C20.606 24.6737 20.6036 24.1755 20.6036 23.6606V9H24.5805C24.5805 9 24.5359 9.36436 24.6352 9.92563ZM30.0814 14.2999V15.1155C29.6146 15.009 29.162 14.8514 28.7326 14.6458C27.9008 14.2479 27.2527 13.5997 27.126 13.4685C27.273 13.5611 27.4256 13.6452 27.5829 13.7206C28.5943 14.2046 29.5903 14.3491 30.0814 14.2999Z" fill="#69C9D0"/>
</svg>
