<svg width="16" height="15" viewBox="0 0 16 15" fill="none" xmlns="http://www.w3.org/2000/svg">
<path d="M0 0.011546C0.481421 0.0100789 0.962841 0.00871781 1.44426 0.00792115C1.45139 0.00790933 1.45851 0.00789751 1.46585 0.00788533C1.62066 0.00762913 1.77547 0.00739199 1.93028 0.00717448C2.0062 0.0070677 2.08211 0.00695671 2.15803 0.0068435C2.16559 0.00683231 2.17314 0.00682111 2.18092 0.00680958C2.42586 0.00644469 2.67079 0.00580162 2.91572 0.00501449C3.16739 0.00420717 3.41906 0.00368009 3.67073 0.00350631C3.70626 0.00348164 3.7418 0.00345376 3.77733 0.00342393C3.78783 0.00341528 3.78783 0.00341528 3.79853 0.00340644C3.91118 0.00330523 4.02382 0.00290803 4.13647 0.00240054C4.24968 0.0018968 4.36288 0.00170399 4.4761 0.0018296C4.54338 0.00189478 4.61066 0.00172053 4.67795 0.00120501C4.72289 0.000884183 4.76782 0.000873899 4.81276 0.00111647C4.83838 0.00124584 4.86398 0.00123986 4.88959 0.000855257C5.04938 -0.00140669 5.04938 -0.00140669 5.08659 0.0300708C5.10499 0.0501208 5.11688 0.072444 5.12882 0.0971515C5.13709 0.108894 5.14553 0.120512 5.15424 0.131901C5.16188 0.142741 5.16949 0.1536 5.17708 0.164477C5.18542 0.176307 5.19377 0.188131 5.20212 0.199951C5.20611 0.205589 5.21009 0.211227 5.21419 0.217036C5.23702 0.249117 5.26069 0.280516 5.28426 0.312015C5.34567 0.39433 5.40623 0.477253 5.46558 0.561172C5.49674 0.605069 5.52891 0.648057 5.5614 0.690906C5.59444 0.734641 5.62625 0.779228 5.65791 0.824047C5.68542 0.862879 5.71363 0.901057 5.74235 0.93894C5.7795 0.987934 5.81542 1.03772 5.85093 1.088C5.87844 1.12683 5.90665 1.16501 5.93537 1.20289C5.97252 1.25188 6.00844 1.30167 6.04395 1.35195C6.07146 1.39078 6.09967 1.42896 6.12839 1.46684C6.16554 1.51583 6.20146 1.56562 6.23697 1.6159C6.26448 1.65473 6.29269 1.69291 6.32141 1.73079C6.35856 1.77979 6.39448 1.82957 6.42999 1.87985C6.4575 1.91868 6.48571 1.95686 6.51443 1.99474C6.55222 2.04459 6.5888 2.09523 6.62498 2.14634C6.65255 2.18526 6.68062 2.22369 6.70918 2.26184C6.77007 2.34321 6.8301 2.42528 6.88962 2.50772C6.91797 2.54693 6.9467 2.58584 6.97544 2.62475C7.01097 2.67284 7.04603 2.72124 7.08057 2.7701C7.11562 2.81967 7.15165 2.86833 7.18828 2.91665C7.22133 2.96039 7.25314 3.00497 7.28479 3.04979C7.3123 3.08862 7.34052 3.1268 7.36924 3.16469C7.40638 3.21368 7.44231 3.26347 7.47781 3.31374C7.50533 3.35257 7.53354 3.39075 7.56226 3.42864C7.5994 3.47763 7.63533 3.52742 7.67083 3.57769C7.69835 3.61653 7.72656 3.6547 7.75528 3.69259C7.79307 3.74243 7.82965 3.79307 7.86582 3.84418C7.89339 3.88311 7.92146 3.92153 7.95002 3.95969C8.01091 4.04105 8.07094 4.12312 8.13047 4.20556C8.15882 4.24478 8.18754 4.28369 8.21629 4.32259C8.25181 4.37069 8.28687 4.41909 8.32141 4.46794C8.35292 4.51249 8.38505 4.55643 8.41792 4.59992C8.44978 4.64207 8.48149 4.68433 8.51271 4.72699C8.51628 4.73182 8.51986 4.73665 8.52354 4.74162C8.54804 4.77526 8.54804 4.77526 8.54804 4.79119C8.58443 4.76154 8.61215 4.72917 8.64097 4.69174C8.65975 4.66814 8.67949 4.64583 8.6997 4.62355C8.72486 4.59576 8.74904 4.56766 8.77208 4.53794C8.79841 4.50398 8.82647 4.47222 8.85521 4.44046C8.8767 4.41659 8.8971 4.3922 8.91685 4.36673C8.94318 4.33277 8.97123 4.30101 8.99997 4.26925C9.02146 4.24538 9.04187 4.22099 9.06161 4.19552C9.08794 4.16155 9.116 4.1298 9.14474 4.09804C9.16623 4.07416 9.18663 4.04977 9.20638 4.02431C9.23271 3.99034 9.26076 3.95859 9.2895 3.92683C9.31099 3.90295 9.3314 3.87856 9.35114 3.8531C9.37747 3.81913 9.40553 3.78737 9.43427 3.75562C9.45576 3.73174 9.47616 3.70735 9.49591 3.68189C9.52224 3.64792 9.55029 3.61616 9.57903 3.58441C9.60052 3.56053 9.62093 3.53614 9.64067 3.51067C9.66701 3.47671 9.69506 3.44495 9.7238 3.4132C9.74529 3.38932 9.76569 3.36493 9.78544 3.33946C9.81177 3.3055 9.83982 3.27374 9.86856 3.24199C9.89005 3.21811 9.91046 3.19372 9.9302 3.16825C9.95654 3.13429 9.98459 3.10253 10.0133 3.07078C10.0348 3.0469 10.0552 3.02251 10.075 2.99704C10.1013 2.96308 10.1294 2.93132 10.1581 2.89956C10.1796 2.87569 10.2 2.8513 10.2197 2.82583C10.2461 2.79187 10.2741 2.76011 10.3029 2.72835C10.3243 2.70448 10.3448 2.68009 10.3645 2.65462C10.3908 2.62065 10.4189 2.5889 10.4476 2.55714C10.4691 2.53326 10.4895 2.50887 10.5093 2.48341C10.5323 2.45368 10.5565 2.42559 10.5816 2.3978C10.6124 2.36384 10.6412 2.32886 10.6694 2.29255C10.6896 2.26728 10.7111 2.24332 10.7327 2.2193C10.7532 2.19639 10.7726 2.1729 10.7915 2.14856C10.818 2.11447 10.8461 2.08255 10.875 2.05064C10.8965 2.02677 10.9169 2.00237 10.9367 1.97691C10.963 1.94294 10.9911 1.91119 11.0198 1.87943C11.0413 1.85555 11.0617 1.83116 11.0814 1.8057C11.1078 1.77173 11.1358 1.73997 11.1646 1.70822C11.186 1.68434 11.2065 1.65995 11.2262 1.63449C11.2525 1.60052 11.2806 1.56876 11.3093 1.53701C11.3308 1.51313 11.3512 1.48874 11.371 1.46327C11.3973 1.42931 11.4253 1.39755 11.4541 1.3658C11.4756 1.34192 11.496 1.31753 11.5157 1.29206C11.5421 1.2581 11.5701 1.22634 11.5989 1.19459C11.6203 1.17071 11.6407 1.14632 11.6605 1.12085C11.6868 1.08689 11.7149 1.05513 11.7436 1.02337C11.7651 0.999497 11.7855 0.975107 11.8053 0.94964C11.8316 0.915676 11.8596 0.883919 11.8884 0.852164C11.9099 0.828286 11.9303 0.803896 11.95 0.778429C11.9764 0.744465 12.0044 0.712708 12.0331 0.680953C12.0546 0.657075 12.075 0.632685 12.0948 0.607218C12.1211 0.573254 12.1492 0.541496 12.1779 0.509741C12.1994 0.485864 12.2198 0.461474 12.2396 0.436007C12.2659 0.402042 12.2939 0.370285 12.3227 0.33853C12.3442 0.314653 12.3646 0.290262 12.3843 0.264796C12.4106 0.230869 12.4386 0.199137 12.4674 0.167429C12.4948 0.136918 12.5204 0.105196 12.5454 0.072434C12.5503 0.0664659 12.5551 0.0604977 12.5601 0.0543487C12.5678 0.0433548 12.5678 0.0433548 12.5756 0.0321387C12.6034 0.00389653 12.6337 0.00638945 12.671 0.00602091C12.6806 0.00614302 12.6901 0.0062691 12.6996 0.00639873C12.7098 0.00638006 12.7199 0.00634257 12.7301 0.0062879C12.758 0.00619222 12.7859 0.00636336 12.8137 0.00657802C12.8438 0.00676285 12.8739 0.00670032 12.904 0.00666781C12.9561 0.00664537 13.0082 0.00677967 13.0603 0.00702041C13.1357 0.00736826 13.211 0.00747975 13.2864 0.00753353C13.4086 0.00762721 13.5309 0.00791207 13.6531 0.00831694C13.7718 0.00870982 13.8906 0.0090128 14.0093 0.00919473C14.0203 0.0092116 14.0203 0.0092116 14.0315 0.00922881C14.0682 0.00928466 14.105 0.00933875 14.1417 0.00939196C14.4463 0.00983569 14.7509 0.0105896 15.0556 0.011546C15.0425 0.0405168 15.0241 0.0629637 15.0039 0.0868967C15.0002 0.0913136 14.9965 0.0957305 14.9927 0.100281C14.9645 0.133927 14.9355 0.166798 14.9064 0.199616C14.8903 0.218231 14.8751 0.237317 14.86 0.25677C14.8333 0.290987 14.805 0.323082 14.776 0.355135C14.7545 0.379014 14.7341 0.403405 14.7143 0.428873C14.688 0.462838 14.66 0.494595 14.6312 0.52635C14.6097 0.550227 14.5893 0.574618 14.5696 0.600084C14.5432 0.634049 14.5152 0.665806 14.4865 0.697561C14.465 0.721439 14.4446 0.745829 14.4248 0.771295C14.3985 0.80526 14.3704 0.837017 14.3417 0.868772C14.3202 0.89265 14.2998 0.91704 14.2801 0.942507C14.2537 0.976471 14.2257 1.00823 14.1969 1.03998C14.1754 1.06386 14.155 1.08825 14.1353 1.11372C14.109 1.14768 14.0809 1.17944 14.0522 1.21119C14.0307 1.23507 14.0103 1.25946 13.9905 1.28493C13.9642 1.31889 13.9361 1.35065 13.9074 1.38241C13.8859 1.40628 13.8655 1.43067 13.8458 1.45614C13.8194 1.4901 13.7914 1.52186 13.7626 1.55362C13.7411 1.57749 13.7207 1.60188 13.701 1.62735C13.6747 1.66132 13.6466 1.69307 13.6179 1.72483C13.5964 1.74871 13.576 1.7731 13.5562 1.79856C13.5299 1.83253 13.5018 1.86428 13.4731 1.89604C13.4516 1.91992 13.4312 1.94431 13.4115 1.96977C13.3851 2.00374 13.3571 2.0355 13.3283 2.06725C13.3068 2.09113 13.2864 2.11552 13.2667 2.14099C13.2404 2.17495 13.2123 2.20671 13.1836 2.23846C13.1621 2.26234 13.1417 2.28673 13.1219 2.3122C13.0956 2.34616 13.0675 2.37792 13.0388 2.40967C13.0173 2.43355 12.9969 2.45794 12.9772 2.48341C12.9508 2.51737 12.9228 2.54913 12.894 2.58088C12.8726 2.60476 12.8521 2.62915 12.8324 2.65462C12.8061 2.68858 12.778 2.72034 12.7493 2.7521C12.7278 2.77597 12.7074 2.80036 12.6876 2.82583C12.6613 2.85979 12.6332 2.89155 12.6045 2.92331C12.583 2.94718 12.5626 2.97157 12.5429 2.99704C12.5165 3.03101 12.4885 3.06276 12.4597 3.09452C12.4383 3.1184 12.4178 3.14279 12.3981 3.16825C12.3718 3.20222 12.3437 3.23397 12.315 3.26573C12.2935 3.28961 12.2731 3.314 12.2533 3.33946C12.227 3.37343 12.199 3.40518 12.1702 3.43694C12.1487 3.46082 12.1283 3.48521 12.1086 3.51067C12.0822 3.54464 12.0542 3.5764 12.0254 3.60815C12.004 3.63203 11.9836 3.65642 11.9638 3.68189C11.9375 3.71585 11.9094 3.74761 11.8807 3.77936C11.8592 3.80324 11.8388 3.82763 11.819 3.8531C11.7927 3.88706 11.7647 3.91882 11.7359 3.95057C11.7144 3.97445 11.694 3.99884 11.6743 4.02431C11.6479 4.05828 11.6199 4.09004 11.5911 4.1218C11.5698 4.14552 11.5495 4.16975 11.5299 4.19507C11.5022 4.23089 11.4724 4.26418 11.442 4.29758C11.4141 4.32837 11.3882 4.36035 11.3627 4.39329C11.3444 4.41613 11.3251 4.4378 11.3055 4.45947C11.2803 4.48726 11.2561 4.51535 11.2331 4.54507C11.2068 4.57904 11.1787 4.6108 11.15 4.64255C11.1285 4.66643 11.1081 4.69082 11.0883 4.71629C11.062 4.75025 11.0339 4.78201 11.0052 4.81376C10.9837 4.83764 10.9633 4.86203 10.9436 4.8875C10.9205 4.91722 10.8963 4.94531 10.8712 4.9731C10.8404 5.00707 10.8116 5.04205 10.7835 5.07835C10.7632 5.10363 10.7417 5.12758 10.7201 5.1516C10.6996 5.17451 10.6802 5.19801 10.6614 5.22234C10.6349 5.25643 10.6067 5.28836 10.5778 5.32026C10.5563 5.34414 10.5359 5.36853 10.5162 5.394C10.4898 5.42796 10.4618 5.45972 10.433 5.49147C10.4115 5.51535 10.3911 5.53974 10.3714 5.56521C10.3451 5.59917 10.317 5.63093 10.2883 5.66268C10.2668 5.68656 10.2464 5.71095 10.2266 5.73642C10.2003 5.77038 10.1722 5.80214 10.1435 5.8339C10.122 5.85777 10.1016 5.88216 10.0819 5.90763C10.0555 5.9416 10.0275 5.97335 9.99873 6.00511C9.97725 6.02898 9.95684 6.05337 9.9371 6.07884C9.91405 6.10857 9.88987 6.13665 9.86471 6.16445C9.83364 6.19879 9.80436 6.23412 9.77588 6.27081C9.75351 6.29918 9.72991 6.32637 9.70616 6.35349C9.71547 6.37394 9.72606 6.39176 9.73901 6.40995C9.74283 6.41531 9.74664 6.42067 9.75057 6.4262C9.75468 6.43193 9.75879 6.43765 9.76303 6.44356C9.76733 6.44956 9.77162 6.45557 9.77604 6.46175C9.80895 6.5076 9.84269 6.55273 9.87676 6.59766C9.90981 6.6414 9.94163 6.686 9.97329 6.73083C10.0008 6.76966 10.029 6.80784 10.0577 6.84573C10.0949 6.89472 10.1308 6.94451 10.1663 6.99478C10.1938 7.03361 10.222 7.07179 10.2508 7.10968C10.2879 7.15867 10.3238 7.20846 10.3593 7.25873C10.3868 7.29757 10.4151 7.33574 10.4438 7.37363C10.4809 7.42262 10.5168 7.47241 10.5523 7.52268C10.5799 7.56152 10.6081 7.59969 10.6368 7.63758C10.6739 7.68657 10.7099 7.73636 10.7454 7.78663C10.7729 7.82547 10.8011 7.86364 10.8298 7.90153C10.8676 7.95137 10.9042 8.00202 10.9404 8.05312C10.9679 8.09205 10.996 8.13047 11.0246 8.16863C11.0854 8.24999 11.1455 8.33207 11.205 8.41451C11.2334 8.45372 11.2621 8.49263 11.2908 8.53153C11.3263 8.57963 11.3614 8.62803 11.396 8.67688C11.431 8.72645 11.467 8.77511 11.5037 8.82344C11.5367 8.86717 11.5685 8.91176 11.6002 8.95658C11.6277 8.99541 11.6559 9.03359 11.6846 9.07147C11.7218 9.12046 11.7577 9.17025 11.7932 9.22053C11.8207 9.25936 11.8489 9.29754 11.8776 9.33542C11.9148 9.38441 11.9507 9.4342 11.9862 9.48448C12.0137 9.52331 12.0419 9.56149 12.0707 9.59937C12.1078 9.64837 12.1437 9.69815 12.1792 9.74843C12.2067 9.78726 12.235 9.82544 12.2637 9.86332C12.3008 9.91232 12.3367 9.9621 12.3723 10.0124C12.3998 10.0512 12.428 10.0894 12.4567 10.1273C12.4945 10.1771 12.5311 10.2278 12.5672 10.2789C12.5948 10.3178 12.6229 10.3562 12.6514 10.3944C12.7123 10.4757 12.7724 10.5578 12.8319 10.6403C12.8602 10.6795 12.889 10.7184 12.9177 10.7573C12.9532 10.8054 12.9883 10.8538 13.0228 10.9026C13.0579 10.9522 13.0939 11.0009 13.1306 11.0492C13.1636 11.0929 13.1954 11.1375 13.2271 11.1823C13.2546 11.2212 13.2828 11.2593 13.3115 11.2972C13.3486 11.3462 13.3846 11.396 13.4201 11.4463C13.4476 11.4851 13.4758 11.5233 13.5045 11.5612C13.5417 11.6102 13.5776 11.6599 13.6131 11.7102C13.6406 11.7491 13.6688 11.7872 13.6975 11.8251C13.7347 11.8741 13.7706 11.9239 13.8061 11.9742C13.8336 12.013 13.8618 12.0512 13.8906 12.0891C13.9277 12.1381 13.9636 12.1878 13.9991 12.2381C14.0267 12.277 14.0549 12.3151 14.0836 12.353C14.1214 12.4029 14.158 12.4535 14.1941 12.5046C14.2217 12.5435 14.2498 12.582 14.2783 12.6201C14.3392 12.7015 14.3992 12.7836 14.4588 12.866C14.4871 12.9052 14.5159 12.9441 14.5446 12.983C14.5801 13.0311 14.6152 13.0795 14.6497 13.1284C14.6848 13.1779 14.7208 13.2266 14.7574 13.2749C14.7905 13.3187 14.8223 13.3632 14.8539 13.4081C14.8815 13.4469 14.9097 13.4851 14.9384 13.523C14.9755 13.572 15.0115 13.6217 15.047 13.672C15.0745 13.7109 15.1027 13.749 15.1314 13.7869C15.1686 13.8359 15.2045 13.8857 15.24 13.936C15.2675 13.9748 15.2957 14.013 15.3244 14.0509C15.3622 14.1007 15.3988 14.1514 15.435 14.2025C15.4625 14.2413 15.4906 14.2797 15.5191 14.3179C15.578 14.3965 15.6361 14.4758 15.6936 14.5556C15.7119 14.5809 15.7306 14.606 15.7491 14.6312C15.7942 14.6921 15.8387 14.7533 15.8825 14.8152C15.902 14.8428 15.9217 14.8702 15.9417 14.8974C15.9455 14.9027 15.9494 14.908 15.9534 14.9134C15.9607 14.9234 15.9681 14.9334 15.9755 14.9433C16 14.9767 16 14.9767 16 14.9925C15.5301 14.9935 15.0602 14.9944 14.5904 14.9949C14.5834 14.9949 14.5764 14.995 14.5693 14.995C14.4182 14.9951 14.2672 14.9953 14.1161 14.9954C14.042 14.9955 13.9679 14.9956 13.8938 14.9957C13.8865 14.9957 13.8791 14.9957 13.8715 14.9957C13.6325 14.9959 13.3934 14.9964 13.1543 14.9969C12.9087 14.9974 12.6631 14.9978 12.4175 14.9979C12.3828 14.9979 12.3482 14.9979 12.3135 14.9979C12.3067 14.9979 12.2998 14.9979 12.2928 14.9979C12.1829 14.998 12.0729 14.9983 11.9629 14.9986C11.8525 14.999 11.742 14.9991 11.6315 14.999C11.5658 14.999 11.5002 14.9991 11.4345 14.9994C11.3906 14.9996 11.3468 14.9996 11.3029 14.9995C11.2779 14.9994 11.2529 14.9994 11.2279 14.9996C11.201 14.9999 11.1741 14.9998 11.1472 14.9995C11.1394 14.9997 11.1316 14.9998 11.1236 15C11.0723 14.9991 11.0723 14.9991 11.0491 14.9803C11.0368 14.966 11.0263 14.9514 11.0159 14.9355C11.0089 14.926 11.0017 14.9167 10.9945 14.9074C10.9874 14.8977 10.9803 14.8881 10.9733 14.8784C10.9694 14.8731 10.9656 14.8679 10.9616 14.8625C10.9326 14.823 10.9039 14.7833 10.8753 14.7435C10.845 14.7017 10.8141 14.6606 10.783 14.6195C10.7534 14.5802 10.7244 14.5405 10.6957 14.5006C10.6696 14.4644 10.6429 14.4288 10.6161 14.3933C10.5824 14.3486 10.5492 14.3035 10.5164 14.258C10.4903 14.2219 10.4637 14.1863 10.4369 14.1507C10.4031 14.106 10.3699 14.061 10.3372 14.0155C10.3111 13.9793 10.2845 13.9437 10.2576 13.9082C10.2274 13.8681 10.1974 13.8277 10.168 13.7869C10.1266 13.7294 10.0839 13.6728 10.0413 13.6162C10.0199 13.5878 9.9987 13.5592 9.97752 13.5307C9.96631 13.5156 9.9551 13.5005 9.94386 13.4854C9.91088 13.4412 9.87827 13.3967 9.84594 13.3519C9.81256 13.306 9.7785 13.2606 9.74453 13.2151C9.71318 13.1731 9.68215 13.1308 9.65144 13.0882C9.62184 13.0472 9.59165 13.0067 9.56096 12.9666C9.53583 12.9337 9.51146 12.9002 9.48724 12.8666C9.4709 12.844 9.45437 12.8217 9.43774 12.7993C9.43486 12.7955 9.43198 12.7916 9.42901 12.7876C9.41471 12.7684 9.40039 12.7492 9.38607 12.7301C9.35515 12.6886 9.32454 12.6469 9.29427 12.6049C9.2603 12.5578 9.22557 12.5114 9.1906 12.4651C9.16099 12.4258 9.132 12.3861 9.10324 12.3462C9.07717 12.31 9.05053 12.2744 9.0237 12.2389C8.98994 12.1942 8.95676 12.1491 8.92401 12.1036C8.89793 12.0675 8.87129 12.0319 8.84446 11.9963C8.81071 11.9516 8.77753 11.9066 8.74478 11.8611C8.7187 11.8249 8.69206 11.7893 8.66523 11.7538C8.63147 11.7091 8.59829 11.664 8.56554 11.6185C8.53947 11.5824 8.51283 11.5468 8.486 11.5112C8.45224 11.4665 8.41906 11.4215 8.38631 11.376C8.36023 11.3398 8.33359 11.3042 8.30676 11.2687C8.27647 11.2286 8.24654 11.1882 8.21715 11.1474C8.1883 11.1074 8.15897 11.0677 8.12925 11.0284C8.07969 10.9627 8.03092 10.8964 7.98219 10.8301C7.92519 10.7526 7.86786 10.6753 7.81043 10.5981C7.79606 10.5788 7.78171 10.5595 7.76735 10.5401C7.75292 10.5207 7.73848 10.5013 7.72401 10.4819C7.69629 10.4447 7.66872 10.4074 7.64153 10.3698C7.61769 10.3368 7.59355 10.3041 7.56923 10.2714C7.54111 10.2337 7.51314 10.1958 7.48518 10.158C7.46255 10.1273 7.43984 10.0967 7.41706 10.0662C7.38822 10.0275 7.35991 9.98835 7.33166 9.94917C7.30491 9.91219 7.27754 9.87578 7.24965 9.83972C7.23068 9.81505 7.21346 9.78987 7.1969 9.76345C7.16902 9.79063 7.14375 9.81902 7.11978 9.84995C7.09599 9.88055 7.07117 9.9096 7.04524 9.93823C7.02008 9.96602 6.9959 9.99411 6.97286 10.0238C6.94652 10.0578 6.91847 10.0896 6.88973 10.1213C6.86824 10.1452 6.84784 10.1696 6.82809 10.195C6.80176 10.229 6.77371 10.2608 6.74496 10.2925C6.72348 10.3164 6.70307 10.3408 6.68333 10.3663C6.65699 10.4002 6.62894 10.432 6.6002 10.4637C6.57871 10.4876 6.55831 10.512 6.53856 10.5375C6.51223 10.5714 6.48417 10.6032 6.45543 10.6349C6.43395 10.6588 6.41354 10.6832 6.3938 10.7087C6.36746 10.7426 6.33941 10.7744 6.31067 10.8062C6.28918 10.83 6.26877 10.8544 6.24903 10.8799C6.2227 10.9139 6.19464 10.9456 6.1659 10.9774C6.14442 11.0012 6.12401 11.0256 6.10427 11.0511C6.07793 11.0851 6.04988 11.1168 6.02114 11.1486C5.99965 11.1725 5.97924 11.1968 5.9595 11.2223C5.93317 11.2563 5.90511 11.288 5.87637 11.3198C5.85489 11.3437 5.83448 11.3681 5.81473 11.3935C5.7884 11.4275 5.76035 11.4592 5.73161 11.491C5.71012 11.5149 5.68971 11.5393 5.66997 11.5647C5.64364 11.5987 5.61558 11.6305 5.58684 11.6622C5.56535 11.6861 5.54495 11.7105 5.5252 11.7359C5.49887 11.7699 5.47082 11.8017 5.44208 11.8334C5.42059 11.8573 5.40018 11.8817 5.38044 11.9072C5.35411 11.9411 5.32605 11.9729 5.29731 12.0046C5.27582 12.0285 5.25542 12.0529 5.23567 12.0784C5.20934 12.1123 5.18129 12.1441 5.15255 12.1758C5.13106 12.1997 5.11065 12.2241 5.09091 12.2496C5.06458 12.2835 5.03652 12.3153 5.00778 12.3471C4.98629 12.3709 4.96589 12.3953 4.94614 12.4208C4.91981 12.4548 4.89176 12.4865 4.86302 12.5183C4.84153 12.5421 4.82112 12.5665 4.80138 12.592C4.77505 12.626 4.74699 12.6577 4.71825 12.6895C4.69676 12.7134 4.67636 12.7377 4.65661 12.7632C4.63028 12.7972 4.60223 12.8289 4.57349 12.8607C4.552 12.8846 4.53159 12.909 4.51185 12.9344C4.48552 12.9684 4.45746 13.0001 4.42872 13.0319C4.40723 13.0558 4.38683 13.0802 4.36708 13.1056C4.34075 13.1396 4.3127 13.1714 4.28396 13.2031C4.26247 13.227 4.24206 13.2514 4.22232 13.2768C4.19598 13.3108 4.16793 13.3426 4.13919 13.3743C4.1177 13.3982 4.0973 13.4226 4.07755 13.4481C4.05122 13.482 4.02317 13.5138 3.99443 13.5455C3.97294 13.5694 3.95253 13.5938 3.93279 13.6193C3.90645 13.6532 3.8784 13.685 3.84966 13.7167C3.82817 13.7406 3.80777 13.765 3.78802 13.7905C3.76169 13.8244 3.73364 13.8562 3.7049 13.888C3.68341 13.9118 3.663 13.9362 3.64326 13.9617C3.61692 13.9957 3.58886 14.0274 3.56012 14.0592C3.53877 14.0829 3.51851 14.1071 3.49892 14.1325C3.47116 14.1683 3.44133 14.2016 3.41094 14.235C3.38307 14.2657 3.3572 14.2977 3.33173 14.3307C3.31338 14.3535 3.29407 14.3752 3.27445 14.3969C3.2493 14.4246 3.22511 14.4527 3.20207 14.4825C3.17573 14.5164 3.14768 14.5482 3.11894 14.5799C3.09745 14.6038 3.07705 14.6282 3.0573 14.6537C3.03097 14.6876 3.00292 14.7194 2.97418 14.7511C2.94733 14.781 2.92246 14.8121 2.89781 14.8439C2.87534 14.8718 2.85152 14.8983 2.82747 14.9247C2.81255 14.9412 2.79869 14.957 2.78645 14.9757C2.77122 14.9925 2.77122 14.9925 2.75206 14.997C2.74461 14.9969 2.73717 14.9969 2.7295 14.9969C2.71659 14.997 2.71659 14.997 2.70343 14.9971C2.69386 14.997 2.6843 14.9969 2.67474 14.9968C2.66459 14.9968 2.65444 14.9969 2.6443 14.9969C2.61638 14.997 2.58846 14.9968 2.56054 14.9967C2.53045 14.9965 2.50036 14.9966 2.47026 14.9966C2.41811 14.9966 2.36596 14.9965 2.31381 14.9963C2.23841 14.996 2.16301 14.9959 2.08761 14.9959C1.96528 14.9958 1.84296 14.9956 1.72063 14.9952C1.60179 14.9949 1.48294 14.9946 1.3641 14.9945C1.35312 14.9945 1.35312 14.9945 1.34191 14.9945C1.30517 14.9944 1.26843 14.9944 1.2317 14.9943C0.926832 14.9939 0.621968 14.9933 0.317105 14.9925C0.317105 14.9618 0.334994 14.9492 0.354589 14.9283C0.381134 14.8994 0.406774 14.8703 0.430849 14.8391C0.457182 14.8052 0.485235 14.7734 0.513976 14.7417C0.535464 14.7178 0.555869 14.6934 0.575614 14.6679C0.601947 14.634 0.63 14.6022 0.658741 14.5705C0.680229 14.5466 0.700635 14.5222 0.720379 14.4967C0.746712 14.4628 0.774765 14.431 0.803506 14.3992C0.824994 14.3754 0.8454 14.351 0.865144 14.3255C0.891477 14.2915 0.91953 14.2598 0.948271 14.228C0.969759 14.2042 0.990165 14.1798 1.00991 14.1543C1.03624 14.1203 1.0643 14.0886 1.09304 14.0568C1.11452 14.0329 1.13493 14.0086 1.15467 13.9831C1.18101 13.9491 1.20906 13.9174 1.2378 13.8856C1.25929 13.8617 1.2797 13.8373 1.29944 13.8119C1.32577 13.7779 1.35383 13.7462 1.38257 13.7144C1.40405 13.6905 1.42446 13.6661 1.44421 13.6407C1.47054 13.6067 1.49859 13.5749 1.52733 13.5432C1.54882 13.5193 1.56923 13.4949 1.58897 13.4695C1.6153 13.4355 1.64336 13.4037 1.6721 13.372C1.69359 13.3481 1.71399 13.3237 1.73374 13.2982C1.76007 13.2643 1.78812 13.2325 1.81686 13.2008C1.83835 13.1769 1.85876 13.1525 1.8785 13.127C1.90483 13.0931 1.93289 13.0613 1.96163 13.0296C1.98312 13.0057 2.00352 12.9813 2.02327 12.9558C2.0496 12.9219 2.07765 12.8901 2.10639 12.8583C2.12788 12.8345 2.14829 12.8101 2.16803 12.7846C2.19436 12.7506 2.22242 12.7189 2.25116 12.6871C2.27265 12.6633 2.29305 12.6389 2.3128 12.6134C2.33913 12.5794 2.36718 12.5477 2.39592 12.5159C2.41741 12.492 2.43782 12.4677 2.45756 12.4422C2.48389 12.4082 2.51195 12.3765 2.54069 12.3447C2.56218 12.3208 2.58258 12.2964 2.60233 12.271C2.62866 12.237 2.65671 12.2053 2.68545 12.1735C2.70694 12.1496 2.72735 12.1252 2.74709 12.0998C2.77342 12.0658 2.80148 12.034 2.83022 12.0023C2.85171 11.9784 2.87211 11.954 2.89186 11.9286C2.91819 11.8946 2.94624 11.8628 2.97498 11.8311C2.99647 11.8072 3.01688 11.7828 3.03662 11.7573C3.06296 11.7234 3.09101 11.6916 3.11975 11.6599C3.14124 11.636 3.16164 11.6116 3.18139 11.5861C3.20772 11.5522 3.23577 11.5204 3.26451 11.4887C3.286 11.4648 3.30641 11.4404 3.32615 11.4149C3.35249 11.381 3.38054 11.3492 3.40928 11.3174C3.43077 11.2936 3.45117 11.2692 3.47092 11.2437C3.49725 11.2097 3.5253 11.178 3.55404 11.1462C3.57553 11.1224 3.59594 11.098 3.61568 11.0725C3.64202 11.0385 3.67007 11.0068 3.69881 10.975C3.7203 10.9511 3.7407 10.9268 3.76045 10.9013C3.78678 10.8673 3.81483 10.8356 3.84358 10.8038C3.86506 10.7799 3.88547 10.7555 3.90521 10.7301C3.93155 10.6961 3.9596 10.6644 3.98834 10.6326C4.00983 10.6087 4.03023 10.5843 4.04998 10.5589C4.07631 10.5249 4.10436 10.4931 4.13311 10.4614C4.15459 10.4375 4.175 10.4131 4.19474 10.3877C4.22108 10.3537 4.24913 10.3219 4.27787 10.2902C4.29936 10.2663 4.31976 10.2419 4.33951 10.2164C4.36584 10.1825 4.3939 10.1507 4.42264 10.119C4.44412 10.0951 4.46453 10.0707 4.48427 10.0452C4.51061 10.0113 4.53866 9.97951 4.5674 9.94776C4.58889 9.92388 4.60929 9.89949 4.62904 9.87402C4.65537 9.84006 4.68343 9.8083 4.71217 9.77655C4.73365 9.75267 4.75406 9.72828 4.7738 9.70281C4.80014 9.66885 4.82819 9.63709 4.85693 9.60534C4.87842 9.58146 4.89883 9.55707 4.91857 9.5316C4.9449 9.49764 4.97296 9.46588 5.0017 9.43412C5.02318 9.41025 5.04359 9.38586 5.06333 9.36039C5.08967 9.32642 5.11772 9.29467 5.14646 9.26291C5.16795 9.23904 5.18836 9.21465 5.2081 9.18918C5.23443 9.15521 5.26249 9.12346 5.29123 9.0917C5.31271 9.06782 5.33312 9.04343 5.35287 9.01797C5.3792 8.984 5.40725 8.95225 5.43599 8.92049C5.45748 8.89661 5.47789 8.87222 5.49763 8.84676C5.52396 8.81279 5.55202 8.78103 5.58076 8.74928C5.60225 8.7254 5.62265 8.70101 5.6424 8.67554C5.66873 8.64158 5.69678 8.60982 5.72552 8.57807C5.74701 8.55419 5.76742 8.5298 5.78716 8.50433C5.81021 8.47461 5.83439 8.44652 5.85954 8.41873C5.89019 8.38486 5.91893 8.34999 5.94701 8.31378C5.97621 8.27733 6.00756 8.24288 6.03878 8.20828C6.02081 8.17984 6.00209 8.15263 5.9819 8.1258C5.97583 8.11769 5.96977 8.10958 5.9637 8.10147C5.95866 8.09472 5.95866 8.09472 5.95351 8.08784C5.93125 8.05794 5.9092 8.02787 5.88712 7.99783C5.85733 7.95734 5.82752 7.91687 5.7975 7.87656C5.76748 7.83625 5.73767 7.79578 5.70788 7.75528C5.6612 7.69183 5.61434 7.62853 5.56721 7.56543C5.53622 7.52389 5.50556 7.48212 5.47523 7.44006C5.44125 7.39297 5.40653 7.34653 5.37156 7.30023C5.34195 7.26095 5.31296 7.22124 5.2842 7.18129C5.25812 7.14517 5.23148 7.10953 5.20465 7.07401C5.1709 7.02931 5.13772 6.98423 5.10497 6.93874C5.07889 6.90262 5.05225 6.86698 5.02542 6.83146C4.99166 6.78676 4.95848 6.74168 4.92573 6.69619C4.89966 6.66007 4.87302 6.62443 4.84619 6.58891C4.81243 6.54421 4.77925 6.49914 4.7465 6.45364C4.72042 6.41752 4.69378 6.38188 4.66695 6.34636C4.6332 6.30166 4.60002 6.25659 4.56727 6.2111C4.54119 6.17497 4.51455 6.13934 4.48772 6.10381C4.45396 6.05911 4.42078 6.01404 4.38803 5.96855C4.36196 5.93242 4.33532 5.89679 4.30849 5.86126C4.27473 5.81656 4.24155 5.77149 4.2088 5.726C4.18272 5.68987 4.15609 5.65424 4.12925 5.61871C4.0955 5.57402 4.06232 5.52894 4.02957 5.48345C4.00349 5.44733 3.97685 5.41169 3.95002 5.37616C3.91626 5.33147 3.88308 5.28639 3.85033 5.2409C3.82426 5.20478 3.79762 5.16914 3.77079 5.13361C3.73703 5.08892 3.70385 5.04384 3.6711 4.99835C3.64502 4.96223 3.61839 4.92659 3.59156 4.89106C3.5578 4.84637 3.52462 4.80129 3.49187 4.7558C3.46579 4.71968 3.43915 4.68404 3.41232 4.64851C3.37857 4.60382 3.34538 4.55874 3.31263 4.51325C3.28656 4.47713 3.25992 4.44149 3.23309 4.40597C3.19933 4.36127 3.16615 4.31619 3.1334 4.2707C3.10733 4.23458 3.08069 4.19894 3.05386 4.16342C3.0201 4.11872 2.98692 4.07364 2.95417 4.02815C2.92809 3.99203 2.90145 3.95639 2.87462 3.92087C2.84087 3.87617 2.80769 3.83109 2.77494 3.7856C2.74886 3.74948 2.72222 3.71384 2.69539 3.67832C2.6651 3.63821 2.63516 3.59787 2.60577 3.55704C2.57302 3.51157 2.53956 3.46672 2.50582 3.42203C2.46441 3.36709 2.42367 3.31163 2.38292 3.25617C2.36308 3.22917 2.34315 3.20225 2.32314 3.17539C2.29311 3.13508 2.26331 3.0946 2.23352 3.05411C2.19232 2.9981 2.15097 2.94221 2.10944 2.88647C2.09507 2.86715 2.08071 2.84783 2.06636 2.82851C2.05193 2.80909 2.03749 2.78968 2.02302 2.77029C1.99009 2.72611 1.95751 2.68167 1.92522 2.63698C1.90019 2.60255 1.87475 2.56845 1.84931 2.53435C1.83202 2.51115 1.81477 2.48792 1.79752 2.4647C1.78308 2.44528 1.76864 2.42586 1.75417 2.40647C1.72124 2.36228 1.68866 2.31785 1.65637 2.27316C1.63134 2.23873 1.6059 2.20463 1.58046 2.17053C1.56317 2.14733 1.54592 2.1241 1.52867 2.10087C1.51424 2.08145 1.49979 2.06204 1.48532 2.04264C1.45239 1.99846 1.41981 1.95403 1.38752 1.90933C1.36249 1.8749 1.33705 1.84081 1.31161 1.8067C1.29432 1.78351 1.27707 1.76028 1.25982 1.73705C1.24539 1.71763 1.23094 1.69822 1.21647 1.67882C1.18354 1.63464 1.15096 1.5902 1.11867 1.54551C1.09364 1.51108 1.0682 1.47698 1.04277 1.44288C1.02547 1.41968 1.00822 1.39645 0.990969 1.37323C0.976536 1.35381 0.962092 1.33439 0.947625 1.315C0.914688 1.27081 0.882114 1.22638 0.849822 1.18168C0.824795 1.14726 0.799354 1.11316 0.773915 1.07906C0.756607 1.05584 0.739344 1.03259 0.722074 1.00934C0.707903 0.99027 0.693716 0.971213 0.679502 0.952176C0.6444 0.905139 0.609775 0.857758 0.575378 0.810166C0.542541 0.764781 0.509155 0.719853 0.475657 0.674989C0.461273 0.65566 0.446907 0.636316 0.432539 0.616975C0.418369 0.597906 0.404184 0.578852 0.389972 0.559817C0.358591 0.517765 0.327567 0.475465 0.296855 0.432886C0.267253 0.39186 0.237064 0.35139 0.206366 0.311239C0.181272 0.278357 0.156925 0.244943 0.132728 0.211348C0.115937 0.188159 0.0989407 0.165146 0.0818613 0.142184C0.0789871 0.138308 0.076113 0.134433 0.0731517 0.13044C0.0599955 0.112739 0.0467147 0.0951732 0.0331754 0.0777844C0.0287678 0.0721105 0.0243602 0.0664366 0.019819 0.0605908C0.0159624 0.055717 0.0121058 0.0508432 0.00813227 0.0458216C0 0.0329474 0 0.0329474 0 0.011546ZM2.87462 1.45971C2.88587 1.4838 2.89901 1.5039 2.91469 1.52525C2.91738 1.52892 2.92006 1.53258 2.92283 1.53636C2.93201 1.54888 2.94123 1.56136 2.95045 1.57385C2.95741 1.58329 2.96437 1.59272 2.97132 1.60216C2.99033 1.62792 3.00937 1.65366 3.02842 1.67939C3.04726 1.70483 3.06607 1.7303 3.08488 1.75576C3.09234 1.76587 3.09981 1.77597 3.10728 1.78608C3.33132 2.08926 3.33132 2.08926 3.34253 2.10443C3.34998 2.11451 3.35743 2.1246 3.36488 2.13468C3.38382 2.1603 3.40274 2.18592 3.42167 2.21154C3.45482 2.25644 3.488 2.30132 3.52133 2.34608C3.55667 2.39357 3.59174 2.44128 3.62683 2.48897C3.65176 2.52285 3.67673 2.55669 3.70185 2.59041C3.73188 2.63072 3.76168 2.6712 3.79147 2.71169C3.82702 2.76001 3.86266 2.80826 3.89848 2.85637C3.93032 2.89915 3.96195 2.94209 3.99363 2.98499C4.01241 3.01041 4.03119 3.03583 4.04998 3.06124C4.05745 3.07135 4.06491 3.08146 4.07238 3.09156C4.07608 3.09657 4.07978 3.10157 4.08358 3.10672C4.92374 4.24367 4.92374 4.24367 4.93495 4.25884C4.9424 4.26892 4.94985 4.279 4.9573 4.28909C4.97623 4.3147 4.99516 4.34032 5.01408 4.36595C5.04724 4.41085 5.08041 4.45573 5.11374 4.50049C5.14909 4.54798 5.18416 4.59569 5.21924 4.64338C5.24417 4.67726 5.26915 4.7111 5.29427 4.74482C5.32429 4.78513 5.3541 4.8256 5.38389 4.8661C5.41944 4.91442 5.45507 4.96267 5.4909 5.01078C5.52273 5.05356 5.55437 5.09649 5.58605 5.1394C5.60483 5.16482 5.62361 5.19024 5.6424 5.21565C5.64986 5.22576 5.65733 5.23586 5.6648 5.24597C5.6685 5.25097 5.67219 5.25598 5.676 5.26113C6.51616 6.39808 6.51616 6.39808 6.52736 6.41325C6.53481 6.42333 6.54227 6.43341 6.54972 6.44349C6.56865 6.46911 6.58758 6.49473 6.6065 6.52036C6.63966 6.56525 6.67283 6.61014 6.70616 6.6549C6.7415 6.70239 6.77658 6.75009 6.81166 6.79779C6.83659 6.83167 6.86157 6.8655 6.88669 6.89923C6.92161 6.94612 6.95625 6.99324 6.9909 7.04034C7.01583 7.07422 7.0408 7.10805 7.06592 7.14178C7.09594 7.18208 7.12575 7.22256 7.15554 7.26305C7.19109 7.31138 7.22672 7.35963 7.26255 7.40773C7.29438 7.45051 7.32602 7.49345 7.3577 7.53635C7.37648 7.56178 7.39526 7.58719 7.41405 7.61261C7.42151 7.62271 7.42898 7.63282 7.43645 7.64293C7.44015 7.64793 7.44384 7.65293 7.44765 7.65809C8.28781 8.79504 8.28781 8.79504 8.29901 8.8102C8.30647 8.82028 8.31392 8.83037 8.32137 8.84045C8.3403 8.86607 8.35923 8.89169 8.37815 8.91731C8.41131 8.96221 8.44448 9.00709 8.47781 9.05185C8.51315 9.09935 8.54823 9.14705 8.58331 9.19474C8.60824 9.22862 8.63322 9.26246 8.65834 9.29619C8.68836 9.33649 8.71817 9.37697 8.74795 9.41746C8.7835 9.46579 8.81914 9.51403 8.85497 9.56214C8.8868 9.60492 8.91844 9.64786 8.95012 9.69076C8.96889 9.71618 8.98768 9.7416 9.00646 9.76702C9.01393 9.77712 9.0214 9.78723 9.02887 9.79733C9.03256 9.80234 9.03626 9.80734 9.04007 9.81249C9.88022 10.9494 9.88022 10.9494 9.89143 10.9646C9.89888 10.9747 9.90633 10.9848 9.91378 10.9949C9.93272 11.0205 9.95164 11.0461 9.97057 11.0717C10.0037 11.1166 10.0369 11.1615 10.0702 11.2063C10.1056 11.2538 10.1406 11.3015 10.1757 11.3492C10.2007 11.383 10.2256 11.4169 10.2508 11.4506C10.2808 11.4909 10.3106 11.5314 10.3404 11.5719C10.3759 11.6202 10.4116 11.6684 10.4474 11.7165C10.4792 11.7593 10.5109 11.8023 10.5425 11.8452C10.5613 11.8706 10.5801 11.896 10.5989 11.9214C10.6063 11.9315 10.6138 11.9416 10.6213 11.9517C10.625 11.9567 10.6287 11.9617 10.6325 11.9669C11.4726 13.1039 11.4726 13.1039 11.4838 13.119C11.4913 13.1291 11.4988 13.1392 11.5062 13.1493C11.5251 13.1749 11.5441 13.2005 11.563 13.2261C11.5706 13.2365 11.5783 13.2469 11.586 13.2572C11.5897 13.2623 11.5934 13.2673 11.5972 13.2725C11.6255 13.3108 11.654 13.349 11.6824 13.3872C11.6984 13.4088 11.6984 13.4088 11.7045 13.4232C11.7142 13.4427 11.7224 13.4529 11.7398 13.4659C11.7825 13.4746 11.825 13.4731 11.8685 13.4724C11.8818 13.4724 11.8951 13.4724 11.9084 13.4724C11.9446 13.4724 11.9807 13.4721 12.0168 13.4717C12.0546 13.4713 12.0923 13.4713 12.1301 13.4712C12.2016 13.471 12.273 13.4706 12.3445 13.47C12.4259 13.4694 12.5073 13.469 12.5887 13.4688C12.7561 13.4682 12.9235 13.4672 13.0909 13.4659C13.0788 13.4448 13.0666 13.4244 13.0523 13.4048C13.0489 13.4002 13.0456 13.3956 13.0422 13.3909C13.0386 13.386 13.0351 13.3812 13.0315 13.3763C13.024 13.366 13.0165 13.3558 13.009 13.3456C13.0054 13.3405 13.0017 13.3355 12.9979 13.3304C12.9838 13.3109 12.9697 13.2914 12.9556 13.2719C12.935 13.2435 12.9142 13.2153 12.8931 13.1872C12.8648 13.1493 12.8373 13.1108 12.81 13.0722C12.7737 13.021 12.7366 12.9706 12.6988 12.9206C12.6621 12.8721 12.6263 12.8229 12.5908 12.7735C12.5367 12.6984 12.4821 12.6237 12.4272 12.5492C12.3983 12.5101 12.3697 12.4708 12.3412 12.4314C12.3258 12.4101 12.3101 12.389 12.2945 12.3679C12.2585 12.3195 12.2231 12.2708 12.1883 12.2215C12.1528 12.1713 12.1164 12.1221 12.0793 12.0732C12.0462 12.0294 12.0144 11.9848 11.9828 11.94C11.9553 11.9012 11.927 11.863 11.8983 11.8251C11.8606 11.7753 11.824 11.7248 11.7879 11.6737C11.7588 11.6326 11.7291 11.5921 11.6988 11.5518C11.6867 11.5355 11.6752 11.5189 11.6639 11.5019C11.6594 11.4955 11.6548 11.4892 11.6502 11.4827C11.6456 11.4827 11.6411 11.4827 11.6364 11.4827C11.6345 11.4775 11.6327 11.4722 11.6309 11.4669C11.6225 11.4469 11.6131 11.4322 11.6003 11.415C11.5958 11.409 11.5913 11.403 11.5867 11.3968C11.5819 11.3904 11.5771 11.384 11.5722 11.3775C11.5672 11.3708 11.5623 11.3642 11.5572 11.3573C11.5471 11.3437 11.5369 11.3302 11.5268 11.3166C11.5063 11.2893 11.486 11.2618 11.4657 11.2343C11.4603 11.227 11.4603 11.227 11.4548 11.2196C11.4133 11.1634 11.3723 11.1067 11.3314 11.05C11.3031 11.0108 11.2746 10.9717 11.2456 10.9329C11.2172 10.8951 11.1898 10.8566 11.1624 10.8179C11.1262 10.7667 11.089 10.7163 11.0512 10.6663C11.0145 10.6178 10.9788 10.5686 10.9432 10.5192C10.8891 10.4441 10.8345 10.3694 10.7796 10.295C10.7508 10.2558 10.7221 10.2166 10.6937 10.1771C10.6782 10.1559 10.6626 10.1347 10.6469 10.1136C10.611 10.0652 10.5756 10.0165 10.5407 9.96721C10.5052 9.91705 10.4688 9.86779 10.4317 9.81888C10.3987 9.77514 10.3669 9.73055 10.3352 9.68573C10.3077 9.6469 10.2795 9.60872 10.2508 9.57084C10.213 9.52106 10.1765 9.47051 10.1404 9.41946C10.1113 9.37833 10.0815 9.3378 10.0512 9.29755C10.0391 9.28117 10.0276 9.26458 10.0164 9.24759C10.0118 9.24126 10.0073 9.23493 10.0026 9.22841C9.99804 9.22841 9.99349 9.22841 9.9888 9.22841C9.98698 9.22319 9.98517 9.21796 9.9833 9.21258C9.97495 9.19259 9.96554 9.17793 9.95269 9.16075C9.94822 9.15473 9.94374 9.14871 9.93914 9.14251C9.93434 9.13613 9.92954 9.12976 9.9246 9.12319C9.91965 9.11654 9.91471 9.1099 9.90961 9.10305C9.89949 9.08946 9.88935 9.07588 9.8792 9.06231C9.85876 9.03497 9.83846 9.00753 9.81818 8.98007C9.81457 8.97519 9.81096 8.97031 9.80725 8.96529C9.76349 8.90608 9.72039 8.84635 9.67729 8.78662C9.63867 8.73317 9.59958 8.6801 9.56046 8.62704C9.53179 8.58813 9.50331 8.5491 9.47501 8.50991C9.45115 8.47698 9.42696 8.44431 9.40284 8.41159C9.36354 8.35827 9.32442 8.30482 9.28565 8.25108C9.23482 8.18066 9.18359 8.11057 9.13206 8.04069C9.10321 8.00155 9.07456 7.96228 9.0461 7.92285C9.03063 7.90158 9.01499 7.88046 8.99932 7.85935C8.96338 7.81094 8.92799 7.76219 8.89315 7.71293C8.85766 7.66277 8.82123 7.6135 8.78415 7.5646C8.7511 7.52086 8.71929 7.47627 8.68763 7.43145C8.66012 7.39262 8.63191 7.35444 8.60319 7.31656C8.56546 7.26678 8.52891 7.21623 8.49281 7.16518C8.46369 7.12404 8.43393 7.08352 8.40368 7.04327C8.39157 7.02689 8.38007 7.0103 8.36881 6.99331C8.36426 6.98698 8.35971 6.98065 8.35502 6.97413C8.35047 6.97413 8.34592 6.97413 8.34123 6.97413C8.33942 6.96891 8.3376 6.96368 8.33573 6.9583C8.32738 6.93831 8.31797 6.92365 8.30512 6.90647C8.30065 6.90045 8.29618 6.89443 8.29157 6.88823C8.28677 6.88185 8.28198 6.87548 8.27704 6.86891C8.27209 6.86226 8.26714 6.85562 8.26204 6.84877C8.25192 6.83518 8.24178 6.82159 8.23163 6.80803C8.21119 6.78069 8.1909 6.75325 8.17062 6.72579C8.16701 6.72091 8.1634 6.71603 8.15968 6.71101C8.11592 6.65179 8.07282 6.59207 8.02973 6.53234C7.9911 6.47889 7.95201 6.42582 7.91289 6.37276C7.88423 6.33385 7.85574 6.29482 7.82745 6.25563C7.80358 6.2227 7.7794 6.19003 7.75528 6.15731C7.71598 6.10399 7.67686 6.05054 7.63809 5.9968C7.58725 5.92638 7.53602 5.85628 7.48449 5.78641C7.45564 5.74727 7.427 5.708 7.39854 5.66856C7.38306 5.6473 7.36742 5.62617 7.35175 5.60506C7.31558 5.55633 7.27988 5.50728 7.24472 5.45776C7.24074 5.45216 7.23676 5.44656 7.23266 5.44079C7.21669 5.41832 7.20073 5.39585 7.18482 5.37334C7.17338 5.35716 7.16188 5.34102 7.15037 5.32489C7.14691 5.31997 7.14345 5.31505 7.13989 5.30998C7.13165 5.29848 7.12296 5.28734 7.11417 5.27629C7.10963 5.27629 7.10508 5.27629 7.10039 5.27629C7.09857 5.27106 7.09676 5.26584 7.09489 5.26045C7.08654 5.24046 7.07713 5.22581 7.06428 5.20863C7.05981 5.20261 7.05533 5.19659 7.05073 5.19038C7.04593 5.18401 7.04113 5.17763 7.03619 5.17107C7.03124 5.16442 7.0263 5.15777 7.0212 5.15093C7.01108 5.13733 7.00094 5.12375 6.99079 5.11018C6.97035 5.08285 6.95005 5.0554 6.92977 5.02794C6.92616 5.02307 6.92255 5.01819 6.91884 5.01316C6.88338 4.96518 6.84837 4.91686 6.81343 4.86848C6.80438 4.85597 6.7953 4.84347 6.78622 4.83098C6.78084 4.82359 6.77547 4.8162 6.76993 4.80858C6.76502 4.80184 6.76012 4.7951 6.75506 4.78815C6.7436 4.77213 6.73257 4.7559 6.72167 4.73947C6.71698 4.733 6.71229 4.72652 6.70745 4.71985C6.7029 4.71985 6.69835 4.71985 6.69367 4.71985C6.69185 4.71463 6.69004 4.7094 6.68817 4.70402C6.67981 4.68403 6.67041 4.66937 6.65756 4.65219C6.65308 4.64617 6.64861 4.64015 6.644 4.63395C6.63681 4.62438 6.63681 4.62438 6.62947 4.61463C6.62452 4.60798 6.61958 4.60134 6.61448 4.59449C6.60436 4.5809 6.59422 4.56731 6.58407 4.55374C6.56363 4.52641 6.54333 4.49897 6.52305 4.47151C6.51944 4.46663 6.51583 4.46175 6.51212 4.45673C6.46836 4.39751 6.42526 4.33779 6.38216 4.27806C6.34354 4.22461 6.30445 4.17154 6.26533 4.11848C6.23666 4.07957 6.20818 4.04054 6.17988 4.00135C6.15602 3.96842 6.13183 3.93575 6.10771 3.90303C6.06841 3.84971 6.02929 3.79626 5.99052 3.74252C5.93969 3.6721 5.88846 3.602 5.83693 3.53213C5.80808 3.49299 5.77943 3.45372 5.75097 3.41428C5.7355 3.39302 5.71986 3.37189 5.70419 3.35078C5.66801 3.30205 5.63231 3.253 5.59716 3.20347C5.59318 3.19788 5.5892 3.19228 5.58509 3.18651C5.56913 3.16404 5.55316 3.14157 5.53726 3.11906C5.52581 3.10288 5.51431 3.08674 5.5028 3.07061C5.49761 3.06323 5.49761 3.06323 5.49232 3.0557C5.48409 3.0442 5.47539 3.03306 5.46661 3.02201C5.46206 3.02201 5.45751 3.02201 5.45282 3.02201C5.45101 3.01678 5.44919 3.01156 5.44732 3.00617C5.43897 2.98618 5.42956 2.97153 5.41671 2.95435C5.41224 2.94833 5.40777 2.94231 5.40316 2.9361C5.39836 2.92973 5.39357 2.92335 5.38863 2.91679C5.38368 2.91014 5.37873 2.90349 5.37363 2.89665C5.36351 2.88305 5.35337 2.86947 5.34322 2.8559C5.32278 2.82857 5.30249 2.80112 5.28221 2.77366C5.2786 2.76879 5.27499 2.76391 5.27127 2.75888C5.23581 2.7109 5.2008 2.66258 5.16586 2.6142C5.15681 2.60168 5.14774 2.58919 5.13865 2.5767C5.13328 2.56931 5.1279 2.56192 5.12236 2.5543C5.11746 2.54756 5.11255 2.54082 5.1075 2.53387C5.09603 2.51785 5.08501 2.50162 5.07411 2.48519C5.06941 2.47872 5.06472 2.47224 5.05989 2.46557C5.05534 2.46557 5.05079 2.46557 5.0461 2.46557C5.04429 2.46035 5.04247 2.45512 5.0406 2.44974C5.03225 2.42975 5.02284 2.41509 5.00999 2.39791C5.00552 2.39189 5.00105 2.38587 4.99644 2.37967C4.99164 2.37329 4.98685 2.36692 4.9819 2.36035C4.97696 2.3537 4.97201 2.34706 4.96691 2.34021C4.95679 2.32662 4.94665 2.31303 4.9365 2.29946C4.91606 2.27213 4.89577 2.24469 4.87548 2.21723C4.87188 2.21235 4.86827 2.20747 4.86455 2.20245C4.82079 2.14323 4.77769 2.08351 4.7346 2.02378C4.69597 1.97033 4.65688 1.91726 4.61776 1.8642C4.5891 1.82529 4.56061 1.78626 4.53231 1.74707C4.50845 1.71414 4.48427 1.68147 4.46015 1.64875C4.3453 1.49296 4.3453 1.49296 4.33547 1.47317C4.31839 1.45575 4.30506 1.45628 4.28172 1.45602C4.27336 1.45615 4.27336 1.45615 4.26483 1.45628C4.2589 1.45625 4.25297 1.45623 4.24686 1.4562C4.22692 1.45615 4.20698 1.45631 4.18704 1.45647C4.17277 1.45648 4.15851 1.45647 4.14424 1.45645C4.10544 1.45645 4.06665 1.45661 4.02785 1.45681C3.98734 1.45699 3.94682 1.45701 3.9063 1.45704C3.82954 1.45713 3.75278 1.45737 3.67603 1.45765C3.58865 1.45797 3.50128 1.45813 3.41391 1.45827C3.23415 1.45857 3.05438 1.45907 2.87462 1.45971Z" fill="white"/>
</svg>
