<svg width="24" height="24" viewBox="0 0 24 24" fill="none" xmlns="http://www.w3.org/2000/svg">
<path d="M4 5.01155C4.48142 5.01008 4.96284 5.00872 5.44426 5.00792C5.45139 5.00791 5.45851 5.0079 5.46585 5.00789C5.62066 5.00763 5.77547 5.00739 5.93028 5.00717C6.0062 5.00707 6.08211 5.00696 6.15803 5.00684C6.16559 5.00683 6.17314 5.00682 6.18092 5.00681C6.42586 5.00644 6.67079 5.0058 6.91572 5.00501C7.16739 5.00421 7.41906 5.00368 7.67073 5.00351C7.70626 5.00348 7.7418 5.00345 7.77733 5.00342C7.78783 5.00342 7.78783 5.00342 7.79853 5.00341C7.91118 5.00331 8.02382 5.00291 8.13647 5.0024C8.24968 5.0019 8.36288 5.0017 8.4761 5.00183C8.54338 5.00189 8.61066 5.00172 8.67795 5.00121C8.72289 5.00088 8.76782 5.00087 8.81276 5.00112C8.83838 5.00125 8.86398 5.00124 8.88959 5.00086C9.04938 4.99859 9.04938 4.99859 9.08659 5.03007C9.10499 5.05012 9.11688 5.07244 9.12882 5.09715C9.13709 5.10889 9.14553 5.12051 9.15424 5.1319C9.16188 5.14274 9.16949 5.1536 9.17708 5.16448C9.18542 5.17631 9.19377 5.18813 9.20212 5.19995C9.20611 5.20559 9.21009 5.21123 9.21419 5.21704C9.23702 5.24912 9.26069 5.28052 9.28426 5.31202C9.34567 5.39433 9.40623 5.47725 9.46558 5.56117C9.49674 5.60507 9.52891 5.64806 9.5614 5.69091C9.59444 5.73464 9.62625 5.77923 9.65791 5.82405C9.68542 5.86288 9.71363 5.90106 9.74235 5.93894C9.7795 5.98793 9.81542 6.03772 9.85093 6.088C9.87844 6.12683 9.90665 6.16501 9.93537 6.20289C9.97252 6.25188 10.0084 6.30167 10.0439 6.35195C10.0715 6.39078 10.0997 6.42896 10.1284 6.46684C10.1655 6.51583 10.2015 6.56562 10.237 6.6159C10.2645 6.65473 10.2927 6.69291 10.3214 6.73079C10.3586 6.77979 10.3945 6.82957 10.43 6.87985C10.4575 6.91868 10.4857 6.95686 10.5144 6.99474C10.5522 7.04459 10.5888 7.09523 10.625 7.14634C10.6525 7.18526 10.6806 7.22369 10.7092 7.26184C10.7701 7.34321 10.8301 7.42528 10.8896 7.50772C10.918 7.54693 10.9467 7.58584 10.9754 7.62475C11.011 7.67284 11.046 7.72124 11.0806 7.7701C11.1156 7.81967 11.1516 7.86833 11.1883 7.91665C11.2213 7.96039 11.2531 8.00497 11.2848 8.04979C11.3123 8.08862 11.3405 8.1268 11.3692 8.16469C11.4064 8.21368 11.4423 8.26347 11.4778 8.31374C11.5053 8.35257 11.5335 8.39075 11.5623 8.42864C11.5994 8.47763 11.6353 8.52742 11.6708 8.57769C11.6983 8.61653 11.7266 8.6547 11.7553 8.69259C11.7931 8.74243 11.8296 8.79307 11.8658 8.84418C11.8934 8.88311 11.9215 8.92153 11.95 8.95969C12.0109 9.04105 12.0709 9.12312 12.1305 9.20556C12.1588 9.24478 12.1875 9.28369 12.2163 9.32259C12.2518 9.37069 12.2869 9.41909 12.3214 9.46794C12.3529 9.51249 12.3851 9.55643 12.4179 9.59992C12.4498 9.64207 12.4815 9.68433 12.5127 9.72699C12.5163 9.73182 12.5199 9.73665 12.5235 9.74162C12.548 9.77526 12.548 9.77526 12.548 9.79119C12.5844 9.76154 12.6122 9.72917 12.641 9.69174C12.6598 9.66814 12.6795 9.64583 12.6997 9.62355C12.7249 9.59576 12.749 9.56766 12.7721 9.53794C12.7984 9.50398 12.8265 9.47222 12.8552 9.44046C12.8767 9.41659 12.8971 9.3922 12.9168 9.36673C12.9432 9.33277 12.9712 9.30101 13 9.26925C13.0215 9.24538 13.0419 9.22099 13.0616 9.19552C13.0879 9.16155 13.116 9.1298 13.1447 9.09804C13.1662 9.07416 13.1866 9.04977 13.2064 9.02431C13.2327 8.99034 13.2608 8.95859 13.2895 8.92683C13.311 8.90295 13.3314 8.87856 13.3511 8.8531C13.3775 8.81913 13.4055 8.78737 13.4343 8.75562C13.4558 8.73174 13.4762 8.70735 13.4959 8.68189C13.5222 8.64792 13.5503 8.61616 13.579 8.58441C13.6005 8.56053 13.6209 8.53614 13.6407 8.51067C13.667 8.47671 13.6951 8.44495 13.7238 8.4132C13.7453 8.38932 13.7657 8.36493 13.7854 8.33946C13.8118 8.3055 13.8398 8.27374 13.8686 8.24199C13.8901 8.21811 13.9105 8.19372 13.9302 8.16825C13.9565 8.13429 13.9846 8.10253 14.0133 8.07078C14.0348 8.0469 14.0552 8.02251 14.075 7.99704C14.1013 7.96308 14.1294 7.93132 14.1581 7.89956C14.1796 7.87569 14.2 7.8513 14.2197 7.82583C14.2461 7.79187 14.2741 7.76011 14.3029 7.72835C14.3243 7.70448 14.3448 7.68009 14.3645 7.65462C14.3908 7.62065 14.4189 7.5889 14.4476 7.55714C14.4691 7.53326 14.4895 7.50887 14.5093 7.48341C14.5323 7.45368 14.5565 7.42559 14.5816 7.3978C14.6124 7.36384 14.6412 7.32886 14.6694 7.29255C14.6896 7.26728 14.7111 7.24332 14.7327 7.2193C14.7532 7.19639 14.7726 7.1729 14.7915 7.14856C14.818 7.11447 14.8461 7.08255 14.875 7.05064C14.8965 7.02677 14.9169 7.00237 14.9367 6.97691C14.963 6.94294 14.9911 6.91119 15.0198 6.87943C15.0413 6.85555 15.0617 6.83116 15.0814 6.8057C15.1078 6.77173 15.1358 6.73997 15.1646 6.70822C15.186 6.68434 15.2065 6.65995 15.2262 6.63449C15.2525 6.60052 15.2806 6.56876 15.3093 6.53701C15.3308 6.51313 15.3512 6.48874 15.371 6.46327C15.3973 6.42931 15.4253 6.39755 15.4541 6.3658C15.4756 6.34192 15.496 6.31753 15.5157 6.29206C15.5421 6.2581 15.5701 6.22634 15.5989 6.19459C15.6203 6.17071 15.6407 6.14632 15.6605 6.12085C15.6868 6.08689 15.7149 6.05513 15.7436 6.02337C15.7651 5.9995 15.7855 5.97511 15.8053 5.94964C15.8316 5.91568 15.8596 5.88392 15.8884 5.85216C15.9099 5.82829 15.9303 5.8039 15.95 5.77843C15.9764 5.74446 16.0044 5.71271 16.0331 5.68095C16.0546 5.65708 16.075 5.63268 16.0948 5.60722C16.1211 5.57325 16.1492 5.5415 16.1779 5.50974C16.1994 5.48586 16.2198 5.46147 16.2396 5.43601C16.2659 5.40204 16.2939 5.37029 16.3227 5.33853C16.3442 5.31465 16.3646 5.29026 16.3843 5.2648C16.4106 5.23087 16.4386 5.19914 16.4674 5.16743C16.4948 5.13692 16.5204 5.1052 16.5454 5.07243C16.5503 5.06647 16.5551 5.0605 16.5601 5.05435C16.5678 5.04335 16.5678 5.04335 16.5756 5.03214C16.6034 5.0039 16.6337 5.00639 16.671 5.00602C16.6806 5.00614 16.6901 5.00627 16.6996 5.0064C16.7098 5.00638 16.7199 5.00634 16.7301 5.00629C16.758 5.00619 16.7859 5.00636 16.8137 5.00658C16.8438 5.00676 16.8739 5.0067 16.904 5.00667C16.9561 5.00665 17.0082 5.00678 17.0603 5.00702C17.1357 5.00737 17.211 5.00748 17.2864 5.00753C17.4086 5.00763 17.5309 5.00791 17.6531 5.00832C17.7718 5.00871 17.8906 5.00901 18.0093 5.00919C18.0203 5.00921 18.0203 5.00921 18.0315 5.00923C18.0682 5.00928 18.105 5.00934 18.1417 5.00939C18.4463 5.00984 18.7509 5.01059 19.0556 5.01155C19.0425 5.04052 19.0241 5.06296 19.0039 5.0869C19.0002 5.09131 18.9965 5.09573 18.9927 5.10028C18.9645 5.13393 18.9355 5.1668 18.9064 5.19962C18.8903 5.21823 18.8751 5.23732 18.86 5.25677C18.8333 5.29099 18.805 5.32308 18.776 5.35514C18.7545 5.37901 18.7341 5.40341 18.7143 5.42887C18.688 5.46284 18.66 5.49459 18.6312 5.52635C18.6097 5.55023 18.5893 5.57462 18.5696 5.60008C18.5432 5.63405 18.5152 5.66581 18.4865 5.69756C18.465 5.72144 18.4446 5.74583 18.4248 5.7713C18.3985 5.80526 18.3704 5.83702 18.3417 5.86877C18.3202 5.89265 18.2998 5.91704 18.2801 5.94251C18.2537 5.97647 18.2257 6.00823 18.1969 6.03998C18.1754 6.06386 18.155 6.08825 18.1353 6.11372C18.109 6.14768 18.0809 6.17944 18.0522 6.21119C18.0307 6.23507 18.0103 6.25946 17.9905 6.28493C17.9642 6.31889 17.9361 6.35065 17.9074 6.38241C17.8859 6.40628 17.8655 6.43067 17.8458 6.45614C17.8194 6.4901 17.7914 6.52186 17.7626 6.55362C17.7411 6.57749 17.7207 6.60188 17.701 6.62735C17.6747 6.66132 17.6466 6.69307 17.6179 6.72483C17.5964 6.74871 17.576 6.7731 17.5562 6.79856C17.5299 6.83253 17.5018 6.86428 17.4731 6.89604C17.4516 6.91992 17.4312 6.94431 17.4115 6.96977C17.3851 7.00374 17.3571 7.0355 17.3283 7.06725C17.3068 7.09113 17.2864 7.11552 17.2667 7.14099C17.2404 7.17495 17.2123 7.20671 17.1836 7.23846C17.1621 7.26234 17.1417 7.28673 17.1219 7.3122C17.0956 7.34616 17.0675 7.37792 17.0388 7.40967C17.0173 7.43355 16.9969 7.45794 16.9772 7.48341C16.9508 7.51737 16.9228 7.54913 16.894 7.58088C16.8726 7.60476 16.8521 7.62915 16.8324 7.65462C16.8061 7.68858 16.778 7.72034 16.7493 7.7521C16.7278 7.77597 16.7074 7.80036 16.6876 7.82583C16.6613 7.85979 16.6332 7.89155 16.6045 7.92331C16.583 7.94718 16.5626 7.97157 16.5429 7.99704C16.5165 8.03101 16.4885 8.06276 16.4597 8.09452C16.4383 8.1184 16.4178 8.14279 16.3981 8.16825C16.3718 8.20222 16.3437 8.23397 16.315 8.26573C16.2935 8.28961 16.2731 8.314 16.2533 8.33946C16.227 8.37343 16.199 8.40518 16.1702 8.43694C16.1487 8.46082 16.1283 8.48521 16.1086 8.51067C16.0822 8.54464 16.0542 8.5764 16.0254 8.60815C16.004 8.63203 15.9836 8.65642 15.9638 8.68189C15.9375 8.71585 15.9094 8.74761 15.8807 8.77936C15.8592 8.80324 15.8388 8.82763 15.819 8.8531C15.7927 8.88706 15.7647 8.91882 15.7359 8.95057C15.7144 8.97445 15.694 8.99884 15.6743 9.02431C15.6479 9.05828 15.6199 9.09004 15.5911 9.1218C15.5698 9.14552 15.5495 9.16975 15.5299 9.19507C15.5022 9.23089 15.4724 9.26418 15.442 9.29758C15.4141 9.32837 15.3882 9.36035 15.3627 9.39329C15.3444 9.41613 15.3251 9.4378 15.3055 9.45947C15.2803 9.48726 15.2561 9.51535 15.2331 9.54507C15.2068 9.57904 15.1787 9.6108 15.15 9.64255C15.1285 9.66643 15.1081 9.69082 15.0883 9.71629C15.062 9.75025 15.0339 9.78201 15.0052 9.81376C14.9837 9.83764 14.9633 9.86203 14.9436 9.8875C14.9205 9.91722 14.8963 9.94531 14.8712 9.9731C14.8404 10.0071 14.8116 10.042 14.7835 10.0784C14.7632 10.1036 14.7417 10.1276 14.7201 10.1516C14.6996 10.1745 14.6802 10.198 14.6614 10.2223C14.6349 10.2564 14.6067 10.2884 14.5778 10.3203C14.5563 10.3441 14.5359 10.3685 14.5162 10.394C14.4898 10.428 14.4618 10.4597 14.433 10.4915C14.4115 10.5154 14.3911 10.5397 14.3714 10.5652C14.3451 10.5992 14.317 10.6309 14.2883 10.6627C14.2668 10.6866 14.2464 10.711 14.2266 10.7364C14.2003 10.7704 14.1722 10.8021 14.1435 10.8339C14.122 10.8578 14.1016 10.8822 14.0819 10.9076C14.0555 10.9416 14.0275 10.9734 13.9987 11.0051C13.9772 11.029 13.9568 11.0534 13.9371 11.0788C13.9141 11.1086 13.8899 11.1367 13.8647 11.1644C13.8336 11.1988 13.8044 11.2341 13.7759 11.2708C13.7535 11.2992 13.7299 11.3264 13.7062 11.3535C13.7155 11.3739 13.7261 11.3918 13.739 11.41C13.7428 11.4153 13.7466 11.4207 13.7506 11.4262C13.7547 11.4319 13.7588 11.4377 13.763 11.4436C13.7673 11.4496 13.7716 11.4556 13.776 11.4618C13.809 11.5076 13.8427 11.5527 13.8768 11.5977C13.9098 11.6414 13.9416 11.686 13.9733 11.7308C14.0008 11.7697 14.029 11.8078 14.0577 11.8457C14.0949 11.8947 14.1308 11.9445 14.1663 11.9948C14.1938 12.0336 14.222 12.0718 14.2508 12.1097C14.2879 12.1587 14.3238 12.2085 14.3593 12.2587C14.3868 12.2976 14.4151 12.3357 14.4438 12.3736C14.4809 12.4226 14.5168 12.4724 14.5523 12.5227C14.5799 12.5615 14.6081 12.5997 14.6368 12.6376C14.6739 12.6866 14.7099 12.7364 14.7454 12.7866C14.7729 12.8255 14.8011 12.8636 14.8298 12.9015C14.8676 12.9514 14.9042 13.002 14.9404 13.0531C14.9679 13.092 14.996 13.1305 15.0246 13.1686C15.0854 13.25 15.1455 13.3321 15.205 13.4145C15.2334 13.4537 15.2621 13.4926 15.2908 13.5315C15.3263 13.5796 15.3614 13.628 15.396 13.6769C15.431 13.7265 15.467 13.7751 15.5037 13.8234C15.5367 13.8672 15.5685 13.9118 15.6002 13.9566C15.6277 13.9954 15.6559 14.0336 15.6846 14.0715C15.7218 14.1205 15.7577 14.1703 15.7932 14.2205C15.8207 14.2594 15.8489 14.2975 15.8776 14.3354C15.9148 14.3844 15.9507 14.4342 15.9862 14.4845C16.0137 14.5233 16.0419 14.5615 16.0707 14.5994C16.1078 14.6484 16.1437 14.6982 16.1792 14.7484C16.2067 14.7873 16.235 14.8254 16.2637 14.8633C16.3008 14.9123 16.3367 14.9621 16.3723 15.0124C16.3998 15.0512 16.428 15.0894 16.4567 15.1273C16.4945 15.1771 16.5311 15.2278 16.5672 15.2789C16.5948 15.3178 16.6229 15.3562 16.6514 15.3944C16.7123 15.4757 16.7724 15.5578 16.8319 15.6403C16.8602 15.6795 16.889 15.7184 16.9177 15.7573C16.9532 15.8054 16.9883 15.8538 17.0228 15.9026C17.0579 15.9522 17.0939 16.0009 17.1306 16.0492C17.1636 16.0929 17.1954 16.1375 17.2271 16.1823C17.2546 16.2212 17.2828 16.2593 17.3115 16.2972C17.3486 16.3462 17.3846 16.396 17.4201 16.4463C17.4476 16.4851 17.4758 16.5233 17.5045 16.5612C17.5417 16.6102 17.5776 16.6599 17.6131 16.7102C17.6406 16.7491 17.6688 16.7872 17.6975 16.8251C17.7347 16.8741 17.7706 16.9239 17.8061 16.9742C17.8336 17.013 17.8618 17.0512 17.8906 17.0891C17.9277 17.1381 17.9636 17.1878 17.9991 17.2381C18.0267 17.277 18.0549 17.3151 18.0836 17.353C18.1214 17.4029 18.158 17.4535 18.1941 17.5046C18.2217 17.5435 18.2498 17.582 18.2783 17.6201C18.3392 17.7015 18.3992 17.7836 18.4588 17.866C18.4871 17.9052 18.5159 17.9441 18.5446 17.983C18.5801 18.0311 18.6152 18.0795 18.6497 18.1284C18.6848 18.1779 18.7208 18.2266 18.7574 18.2749C18.7905 18.3187 18.8223 18.3632 18.8539 18.4081C18.8815 18.4469 18.9097 18.4851 18.9384 18.523C18.9755 18.572 19.0115 18.6217 19.047 18.672C19.0745 18.7109 19.1027 18.749 19.1314 18.7869C19.1686 18.8359 19.2045 18.8857 19.24 18.936C19.2675 18.9748 19.2957 19.013 19.3244 19.0509C19.3622 19.1007 19.3988 19.1514 19.435 19.2025C19.4625 19.2413 19.4906 19.2797 19.5191 19.3179C19.578 19.3965 19.6361 19.4758 19.6936 19.5556C19.7119 19.5809 19.7306 19.606 19.7491 19.6312C19.7942 19.6921 19.8387 19.7533 19.8825 19.8152C19.902 19.8428 19.9217 19.8702 19.9417 19.8974C19.9455 19.9027 19.9494 19.908 19.9534 19.9134C19.9607 19.9234 19.9681 19.9334 19.9755 19.9433C20 19.9767 20 19.9767 20 19.9925C19.5301 19.9935 19.0602 19.9944 18.5904 19.9949C18.5834 19.9949 18.5764 19.995 18.5693 19.995C18.4182 19.9951 18.2672 19.9953 18.1161 19.9954C18.042 19.9955 17.9679 19.9956 17.8938 19.9957C17.8865 19.9957 17.8791 19.9957 17.8715 19.9957C17.6325 19.9959 17.3934 19.9964 17.1543 19.9969C16.9087 19.9974 16.6631 19.9978 16.4175 19.9979C16.3828 19.9979 16.3482 19.9979 16.3135 19.9979C16.3067 19.9979 16.2998 19.9979 16.2928 19.9979C16.1829 19.998 16.0729 19.9983 15.9629 19.9986C15.8525 19.999 15.742 19.9991 15.6315 19.999C15.5658 19.999 15.5002 19.9991 15.4345 19.9994C15.3906 19.9996 15.3468 19.9996 15.3029 19.9995C15.2779 19.9994 15.2529 19.9994 15.2279 19.9996C15.201 19.9999 15.1741 19.9998 15.1472 19.9995C15.1394 19.9997 15.1316 19.9998 15.1236 20C15.0723 19.9991 15.0723 19.9991 15.0491 19.9803C15.0368 19.966 15.0263 19.9514 15.0159 19.9355C15.0089 19.926 15.0017 19.9167 14.9945 19.9074C14.9874 19.8977 14.9803 19.8881 14.9733 19.8784C14.9694 19.8731 14.9656 19.8679 14.9616 19.8625C14.9326 19.823 14.9039 19.7833 14.8753 19.7435C14.845 19.7017 14.8141 19.6606 14.783 19.6195C14.7534 19.5802 14.7244 19.5405 14.6957 19.5006C14.6696 19.4644 14.6429 19.4288 14.6161 19.3933C14.5824 19.3486 14.5492 19.3035 14.5164 19.258C14.4903 19.2219 14.4637 19.1863 14.4369 19.1507C14.4031 19.106 14.3699 19.061 14.3372 19.0155C14.3111 18.9793 14.2845 18.9437 14.2576 18.9082C14.2274 18.8681 14.1974 18.8277 14.168 18.7869C14.1266 18.7294 14.0839 18.6728 14.0413 18.6162C14.0199 18.5878 13.9987 18.5592 13.9775 18.5307C13.9663 18.5156 13.9551 18.5005 13.9439 18.4854C13.9109 18.4412 13.8783 18.3967 13.8459 18.3519C13.8126 18.306 13.7785 18.2606 13.7445 18.2151C13.7132 18.1731 13.6821 18.1308 13.6514 18.0882C13.6218 18.0472 13.5917 18.0067 13.561 17.9666C13.5358 17.9337 13.5115 17.9002 13.4872 17.8666C13.4709 17.844 13.4544 17.8217 13.4377 17.7993C13.4349 17.7955 13.432 17.7916 13.429 17.7876C13.4147 17.7684 13.4004 17.7492 13.3861 17.7301C13.3551 17.6886 13.3245 17.6469 13.2943 17.6049C13.2603 17.5578 13.2256 17.5114 13.1906 17.4651C13.161 17.4258 13.132 17.3861 13.1032 17.3462C13.0772 17.31 13.0505 17.2744 13.0237 17.2389C12.9899 17.1942 12.9568 17.1491 12.924 17.1036C12.8979 17.0675 12.8713 17.0319 12.8445 16.9963C12.8107 16.9516 12.7775 16.9066 12.7448 16.8611C12.7187 16.8249 12.6921 16.7893 12.6652 16.7538C12.6315 16.7091 12.5983 16.664 12.5655 16.6185C12.5395 16.5824 12.5128 16.5468 12.486 16.5112C12.4522 16.4665 12.4191 16.4215 12.3863 16.376C12.3602 16.3398 12.3336 16.3042 12.3068 16.2687C12.2765 16.2286 12.2465 16.1882 12.2171 16.1474C12.1883 16.1074 12.159 16.0677 12.1293 16.0284C12.0797 15.9627 12.0309 15.8964 11.9822 15.8301C11.9252 15.7526 11.8679 15.6753 11.8104 15.5981C11.7961 15.5788 11.7817 15.5595 11.7674 15.5401C11.7529 15.5207 11.7385 15.5013 11.724 15.4819C11.6963 15.4447 11.6687 15.4074 11.6415 15.3698C11.6177 15.3368 11.5936 15.3041 11.5692 15.2714C11.5411 15.2337 11.5131 15.1958 11.4852 15.158C11.4626 15.1273 11.4398 15.0967 11.4171 15.0662C11.3882 15.0275 11.3599 14.9884 11.3317 14.9492C11.3049 14.9122 11.2775 14.8758 11.2497 14.8397C11.2307 14.815 11.2135 14.7899 11.1969 14.7634C11.169 14.7906 11.1438 14.819 11.1198 14.8499C11.096 14.8806 11.0712 14.9096 11.0452 14.9382C11.0201 14.966 10.9959 14.9941 10.9729 15.0238C10.9465 15.0578 10.9185 15.0896 10.8897 15.1213C10.8682 15.1452 10.8478 15.1696 10.8281 15.195C10.8018 15.229 10.7737 15.2608 10.745 15.2925C10.7235 15.3164 10.7031 15.3408 10.6833 15.3663C10.657 15.4002 10.6289 15.432 10.6002 15.4637C10.5787 15.4876 10.5583 15.512 10.5386 15.5375C10.5122 15.5714 10.4842 15.6032 10.4554 15.6349C10.4339 15.6588 10.4135 15.6832 10.3938 15.7087C10.3675 15.7426 10.3394 15.7744 10.3107 15.8062C10.2892 15.83 10.2688 15.8544 10.249 15.8799C10.2227 15.9139 10.1946 15.9456 10.1659 15.9774C10.1444 16.0012 10.124 16.0256 10.1043 16.0511C10.0779 16.0851 10.0499 16.1168 10.0211 16.1486C9.99965 16.1725 9.97924 16.1968 9.9595 16.2223C9.93317 16.2563 9.90511 16.288 9.87637 16.3198C9.85489 16.3437 9.83448 16.3681 9.81473 16.3935C9.7884 16.4275 9.76035 16.4592 9.73161 16.491C9.71012 16.5149 9.68971 16.5393 9.66997 16.5647C9.64364 16.5987 9.61558 16.6305 9.58684 16.6622C9.56535 16.6861 9.54495 16.7105 9.5252 16.7359C9.49887 16.7699 9.47082 16.8017 9.44208 16.8334C9.42059 16.8573 9.40018 16.8817 9.38044 16.9072C9.35411 16.9411 9.32605 16.9729 9.29731 17.0046C9.27582 17.0285 9.25542 17.0529 9.23567 17.0784C9.20934 17.1123 9.18129 17.1441 9.15255 17.1758C9.13106 17.1997 9.11065 17.2241 9.09091 17.2496C9.06458 17.2835 9.03652 17.3153 9.00778 17.3471C8.98629 17.3709 8.96589 17.3953 8.94614 17.4208C8.91981 17.4548 8.89176 17.4865 8.86302 17.5183C8.84153 17.5421 8.82112 17.5665 8.80138 17.592C8.77505 17.626 8.74699 17.6577 8.71825 17.6895C8.69676 17.7134 8.67636 17.7377 8.65661 17.7632C8.63028 17.7972 8.60223 17.8289 8.57349 17.8607C8.552 17.8846 8.53159 17.909 8.51185 17.9344C8.48552 17.9684 8.45746 18.0001 8.42872 18.0319C8.40723 18.0558 8.38683 18.0802 8.36708 18.1056C8.34075 18.1396 8.3127 18.1714 8.28396 18.2031C8.26247 18.227 8.24206 18.2514 8.22232 18.2768C8.19598 18.3108 8.16793 18.3426 8.13919 18.3743C8.1177 18.3982 8.0973 18.4226 8.07755 18.4481C8.05122 18.482 8.02317 18.5138 7.99443 18.5455C7.97294 18.5694 7.95253 18.5938 7.93279 18.6193C7.90645 18.6532 7.8784 18.685 7.84966 18.7167C7.82817 18.7406 7.80777 18.765 7.78802 18.7905C7.76169 18.8244 7.73364 18.8562 7.7049 18.888C7.68341 18.9118 7.663 18.9362 7.64326 18.9617C7.61692 18.9957 7.58886 19.0274 7.56012 19.0592C7.53877 19.0829 7.51851 19.1071 7.49892 19.1325C7.47116 19.1683 7.44133 19.2016 7.41094 19.235C7.38307 19.2657 7.3572 19.2977 7.33173 19.3307C7.31338 19.3535 7.29407 19.3752 7.27445 19.3969C7.2493 19.4246 7.22511 19.4527 7.20207 19.4825C7.17573 19.5164 7.14768 19.5482 7.11894 19.5799C7.09745 19.6038 7.07705 19.6282 7.0573 19.6537C7.03097 19.6876 7.00292 19.7194 6.97418 19.7511C6.94733 19.781 6.92246 19.8121 6.89781 19.8439C6.87534 19.8718 6.85152 19.8983 6.82747 19.9247C6.81255 19.9412 6.79869 19.957 6.78645 19.9757C6.77122 19.9925 6.77122 19.9925 6.75206 19.997C6.74461 19.9969 6.73717 19.9969 6.7295 19.9969C6.71659 19.997 6.71659 19.997 6.70343 19.9971C6.69386 19.997 6.6843 19.9969 6.67474 19.9968C6.66459 19.9968 6.65444 19.9969 6.6443 19.9969C6.61638 19.997 6.58846 19.9968 6.56054 19.9967C6.53045 19.9965 6.50036 19.9966 6.47026 19.9966C6.41811 19.9966 6.36596 19.9965 6.31381 19.9963C6.23841 19.996 6.16301 19.9959 6.08761 19.9959C5.96528 19.9958 5.84296 19.9956 5.72063 19.9952C5.60179 19.9949 5.48294 19.9946 5.3641 19.9945C5.35312 19.9945 5.35312 19.9945 5.34191 19.9945C5.30517 19.9944 5.26843 19.9944 5.2317 19.9943C4.92683 19.9939 4.62197 19.9933 4.3171 19.9925C4.3171 19.9618 4.33499 19.9492 4.35459 19.9283C4.38113 19.8994 4.40677 19.8703 4.43085 19.8391C4.45718 19.8052 4.48523 19.7734 4.51398 19.7417C4.53546 19.7178 4.55587 19.6934 4.57561 19.6679C4.60195 19.634 4.63 19.6022 4.65874 19.5705C4.68023 19.5466 4.70063 19.5222 4.72038 19.4967C4.74671 19.4628 4.77477 19.431 4.80351 19.3992C4.82499 19.3754 4.8454 19.351 4.86514 19.3255C4.89148 19.2915 4.91953 19.2598 4.94827 19.228C4.96976 19.2042 4.99016 19.1798 5.00991 19.1543C5.03624 19.1203 5.0643 19.0886 5.09304 19.0568C5.11452 19.0329 5.13493 19.0086 5.15467 18.9831C5.18101 18.9491 5.20906 18.9174 5.2378 18.8856C5.25929 18.8617 5.2797 18.8373 5.29944 18.8119C5.32577 18.7779 5.35383 18.7462 5.38257 18.7144C5.40405 18.6905 5.42446 18.6661 5.44421 18.6407C5.47054 18.6067 5.49859 18.5749 5.52733 18.5432C5.54882 18.5193 5.56923 18.4949 5.58897 18.4695C5.6153 18.4355 5.64336 18.4037 5.6721 18.372C5.69359 18.3481 5.71399 18.3237 5.73374 18.2982C5.76007 18.2643 5.78812 18.2325 5.81686 18.2008C5.83835 18.1769 5.85876 18.1525 5.8785 18.127C5.90483 18.0931 5.93289 18.0613 5.96163 18.0296C5.98312 18.0057 6.00352 17.9813 6.02327 17.9558C6.0496 17.9219 6.07765 17.8901 6.10639 17.8583C6.12788 17.8345 6.14829 17.8101 6.16803 17.7846C6.19436 17.7506 6.22242 17.7189 6.25116 17.6871C6.27265 17.6633 6.29305 17.6389 6.3128 17.6134C6.33913 17.5794 6.36718 17.5477 6.39592 17.5159C6.41741 17.492 6.43782 17.4677 6.45756 17.4422C6.48389 17.4082 6.51195 17.3765 6.54069 17.3447C6.56218 17.3208 6.58258 17.2964 6.60233 17.271C6.62866 17.237 6.65671 17.2053 6.68545 17.1735C6.70694 17.1496 6.72735 17.1252 6.74709 17.0998C6.77342 17.0658 6.80148 17.034 6.83022 17.0023C6.85171 16.9784 6.87211 16.954 6.89186 16.9286C6.91819 16.8946 6.94624 16.8628 6.97498 16.8311C6.99647 16.8072 7.01688 16.7828 7.03662 16.7573C7.06296 16.7234 7.09101 16.6916 7.11975 16.6599C7.14124 16.636 7.16164 16.6116 7.18139 16.5861C7.20772 16.5522 7.23577 16.5204 7.26451 16.4887C7.286 16.4648 7.30641 16.4404 7.32615 16.4149C7.35249 16.381 7.38054 16.3492 7.40928 16.3174C7.43077 16.2936 7.45117 16.2692 7.47092 16.2437C7.49725 16.2097 7.5253 16.178 7.55404 16.1462C7.57553 16.1224 7.59594 16.098 7.61568 16.0725C7.64202 16.0385 7.67007 16.0068 7.69881 15.975C7.7203 15.9511 7.7407 15.9268 7.76045 15.9013C7.78678 15.8673 7.81483 15.8356 7.84358 15.8038C7.86506 15.7799 7.88547 15.7555 7.90521 15.7301C7.93155 15.6961 7.9596 15.6644 7.98834 15.6326C8.00983 15.6087 8.03023 15.5843 8.04998 15.5589C8.07631 15.5249 8.10436 15.4931 8.13311 15.4614C8.15459 15.4375 8.175 15.4131 8.19474 15.3877C8.22108 15.3537 8.24913 15.3219 8.27787 15.2902C8.29936 15.2663 8.31976 15.2419 8.33951 15.2164C8.36584 15.1825 8.3939 15.1507 8.42264 15.119C8.44412 15.0951 8.46453 15.0707 8.48427 15.0452C8.51061 15.0113 8.53866 14.9795 8.5674 14.9478C8.58889 14.9239 8.60929 14.8995 8.62904 14.874C8.65537 14.8401 8.68343 14.8083 8.71217 14.7765C8.73365 14.7527 8.75406 14.7283 8.7738 14.7028C8.80014 14.6688 8.82819 14.6371 8.85693 14.6053C8.87842 14.5815 8.89883 14.5571 8.91857 14.5316C8.9449 14.4976 8.97296 14.4659 9.0017 14.4341C9.02318 14.4102 9.04359 14.3859 9.06333 14.3604C9.08967 14.3264 9.11772 14.2947 9.14646 14.2629C9.16795 14.239 9.18836 14.2146 9.2081 14.1892C9.23443 14.1552 9.26249 14.1235 9.29123 14.0917C9.31271 14.0678 9.33312 14.0434 9.35287 14.018C9.3792 13.984 9.40725 13.9522 9.43599 13.9205C9.45748 13.8966 9.47789 13.8722 9.49763 13.8468C9.52396 13.8128 9.55202 13.781 9.58076 13.7493C9.60225 13.7254 9.62265 13.701 9.6424 13.6755C9.66873 13.6416 9.69678 13.6098 9.72552 13.5781C9.74701 13.5542 9.76742 13.5298 9.78716 13.5043C9.81021 13.4746 9.83439 13.4465 9.85954 13.4187C9.89019 13.3849 9.91893 13.35 9.94701 13.3138C9.97621 13.2773 10.0076 13.2429 10.0388 13.2083C10.0208 13.1798 10.0021 13.1526 9.9819 13.1258C9.97583 13.1177 9.96977 13.1096 9.9637 13.1015C9.95866 13.0947 9.95866 13.0947 9.95351 13.0878C9.93125 13.0579 9.9092 13.0279 9.88712 12.9978C9.85733 12.9573 9.82752 12.9169 9.7975 12.8766C9.76748 12.8363 9.73767 12.7958 9.70788 12.7553C9.6612 12.6918 9.61434 12.6285 9.56721 12.5654C9.53622 12.5239 9.50556 12.4821 9.47523 12.4401C9.44125 12.393 9.40653 12.3465 9.37156 12.3002C9.34195 12.261 9.31296 12.2212 9.2842 12.1813C9.25812 12.1452 9.23148 12.1095 9.20465 12.074C9.1709 12.0293 9.13772 11.9842 9.10497 11.9387C9.07889 11.9026 9.05225 11.867 9.02542 11.8315C8.99166 11.7868 8.95848 11.7417 8.92573 11.6962C8.89966 11.6601 8.87302 11.6244 8.84619 11.5889C8.81243 11.5442 8.77925 11.4991 8.7465 11.4536C8.72042 11.4175 8.69378 11.3819 8.66695 11.3464C8.6332 11.3017 8.60002 11.2566 8.56727 11.2111C8.54119 11.175 8.51455 11.1393 8.48772 11.1038C8.45396 11.0591 8.42078 11.014 8.38803 10.9685C8.36196 10.9324 8.33532 10.8968 8.30849 10.8613C8.27473 10.8166 8.24155 10.7715 8.2088 10.726C8.18272 10.6899 8.15609 10.6542 8.12925 10.6187C8.0955 10.574 8.06232 10.5289 8.02957 10.4834C8.00349 10.4473 7.97685 10.4117 7.95002 10.3762C7.91626 10.3315 7.88308 10.2864 7.85033 10.2409C7.82426 10.2048 7.79762 10.1691 7.77079 10.1336C7.73703 10.0889 7.70385 10.0438 7.6711 9.99835C7.64502 9.96223 7.61839 9.92659 7.59156 9.89106C7.5578 9.84637 7.52462 9.80129 7.49187 9.7558C7.46579 9.71968 7.43915 9.68404 7.41232 9.64851C7.37857 9.60382 7.34538 9.55874 7.31263 9.51325C7.28656 9.47713 7.25992 9.44149 7.23309 9.40597C7.19933 9.36127 7.16615 9.31619 7.1334 9.2707C7.10733 9.23458 7.08069 9.19894 7.05386 9.16342C7.0201 9.11872 6.98692 9.07364 6.95417 9.02815C6.92809 8.99203 6.90145 8.95639 6.87462 8.92087C6.84087 8.87617 6.80769 8.83109 6.77494 8.7856C6.74886 8.74948 6.72222 8.71384 6.69539 8.67832C6.6651 8.63821 6.63516 8.59787 6.60577 8.55704C6.57302 8.51157 6.53956 8.46672 6.50582 8.42203C6.46441 8.36709 6.42367 8.31163 6.38292 8.25617C6.36308 8.22917 6.34315 8.20225 6.32314 8.17539C6.29311 8.13508 6.26331 8.0946 6.23352 8.05411C6.19232 7.9981 6.15097 7.94221 6.10944 7.88647C6.09507 7.86715 6.08071 7.84783 6.06636 7.82851C6.05193 7.80909 6.03749 7.78968 6.02302 7.77029C5.99009 7.72611 5.95751 7.68167 5.92522 7.63698C5.90019 7.60255 5.87475 7.56845 5.84931 7.53435C5.83202 7.51115 5.81477 7.48792 5.79752 7.4647C5.78308 7.44528 5.76864 7.42586 5.75417 7.40647C5.72124 7.36228 5.68866 7.31785 5.65637 7.27316C5.63134 7.23873 5.6059 7.20463 5.58046 7.17053C5.56317 7.14733 5.54592 7.1241 5.52867 7.10087C5.51424 7.08145 5.49979 7.06204 5.48532 7.04264C5.45239 6.99846 5.41981 6.95403 5.38752 6.90933C5.36249 6.8749 5.33705 6.84081 5.31161 6.8067C5.29432 6.78351 5.27707 6.76028 5.25982 6.73705C5.24539 6.71763 5.23094 6.69822 5.21647 6.67882C5.18354 6.63464 5.15096 6.5902 5.11867 6.54551C5.09364 6.51108 5.0682 6.47698 5.04277 6.44288C5.02547 6.41968 5.00822 6.39645 4.99097 6.37323C4.97654 6.35381 4.96209 6.33439 4.94762 6.315C4.91469 6.27081 4.88211 6.22638 4.84982 6.18168C4.8248 6.14726 4.79935 6.11316 4.77392 6.07906C4.75661 6.05584 4.73934 6.03259 4.72207 6.00934C4.7079 5.99027 4.69372 5.97121 4.6795 5.95218C4.6444 5.90514 4.60977 5.85776 4.57538 5.81017C4.54254 5.76478 4.50915 5.71985 4.47566 5.67499C4.46127 5.65566 4.44691 5.63632 4.43254 5.61697C4.41837 5.59791 4.40418 5.57885 4.38997 5.55982C4.35859 5.51776 4.32757 5.47546 4.29685 5.43289C4.26725 5.39186 4.23706 5.35139 4.20637 5.31124C4.18127 5.27836 4.15692 5.24494 4.13273 5.21135C4.11594 5.18816 4.09894 5.16515 4.08186 5.14218C4.07899 5.13831 4.07611 5.13443 4.07315 5.13044C4.06 5.11274 4.04671 5.09517 4.03318 5.07778C4.02877 5.07211 4.02436 5.06644 4.01982 5.06059C4.01596 5.05572 4.01211 5.05084 4.00813 5.04582C4 5.03295 4 5.03295 4 5.01155ZM6.87462 6.45971C6.88587 6.4838 6.89901 6.5039 6.91469 6.52525C6.91738 6.52892 6.92006 6.53258 6.92283 6.53636C6.93201 6.54888 6.94123 6.56136 6.95045 6.57385C6.95741 6.58329 6.96437 6.59272 6.97132 6.60216C6.99033 6.62792 7.00937 6.65366 7.02842 6.67939C7.04726 6.70483 7.06607 6.7303 7.08488 6.75576C7.09234 6.76587 7.09981 6.77597 7.10728 6.78608C7.33132 7.08926 7.33132 7.08926 7.34253 7.10443C7.34998 7.11451 7.35743 7.1246 7.36488 7.13468C7.38382 7.1603 7.40274 7.18592 7.42167 7.21154C7.45482 7.25644 7.488 7.30132 7.52133 7.34608C7.55667 7.39357 7.59174 7.44128 7.62683 7.48897C7.65176 7.52285 7.67673 7.55669 7.70185 7.59041C7.73188 7.63072 7.76168 7.6712 7.79147 7.71169C7.82702 7.76001 7.86266 7.80826 7.89848 7.85637C7.93032 7.89915 7.96195 7.94209 7.99363 7.98499C8.01241 8.01041 8.03119 8.03583 8.04998 8.06124C8.05745 8.07135 8.06491 8.08146 8.07238 8.09156C8.07608 8.09657 8.07978 8.10157 8.08358 8.10672C8.92374 9.24367 8.92374 9.24367 8.93495 9.25884C8.9424 9.26892 8.94985 9.279 8.9573 9.28909C8.97623 9.3147 8.99516 9.34032 9.01408 9.36595C9.04724 9.41085 9.08041 9.45573 9.11374 9.50049C9.14909 9.54798 9.18416 9.59569 9.21924 9.64338C9.24417 9.67726 9.26915 9.7111 9.29427 9.74482C9.32429 9.78513 9.3541 9.8256 9.38389 9.8661C9.41944 9.91442 9.45507 9.96267 9.4909 10.0108C9.52273 10.0536 9.55437 10.0965 9.58605 10.1394C9.60483 10.1648 9.62361 10.1902 9.6424 10.2157C9.64986 10.2258 9.65733 10.2359 9.6648 10.246C9.6685 10.251 9.67219 10.256 9.676 10.2611C10.5162 11.3981 10.5162 11.3981 10.5274 11.4132C10.5348 11.4233 10.5423 11.4334 10.5497 11.4435C10.5686 11.4691 10.5876 11.4947 10.6065 11.5204C10.6397 11.5653 10.6728 11.6101 10.7062 11.6549C10.7415 11.7024 10.7766 11.7501 10.8117 11.7978C10.8366 11.8317 10.8616 11.8655 10.8867 11.8992C10.9216 11.9461 10.9562 11.9932 10.9909 12.0403C11.0158 12.0742 11.0408 12.1081 11.0659 12.1418C11.0959 12.1821 11.1257 12.2226 11.1555 12.2631C11.1911 12.3114 11.2267 12.3596 11.2625 12.4077C11.2944 12.4505 11.326 12.4935 11.3577 12.5364C11.3765 12.5618 11.3953 12.5872 11.414 12.6126C11.4215 12.6227 11.429 12.6328 11.4364 12.6429C11.4401 12.6479 11.4438 12.6529 11.4477 12.6581C12.2878 13.795 12.2878 13.795 12.299 13.8102C12.3065 13.8203 12.3139 13.8304 12.3214 13.8405C12.3403 13.8661 12.3592 13.8917 12.3782 13.9173C12.4113 13.9622 12.4445 14.0071 12.4778 14.0519C12.5132 14.0993 12.5482 14.147 12.5833 14.1947C12.6082 14.2286 12.6332 14.2625 12.6583 14.2962C12.6884 14.3365 12.7182 14.377 12.748 14.4175C12.7835 14.4658 12.8191 14.514 12.855 14.5621C12.8868 14.6049 12.9184 14.6479 12.9501 14.6908C12.9689 14.7162 12.9877 14.7416 13.0065 14.767C13.0139 14.7771 13.0214 14.7872 13.0289 14.7973C13.0326 14.8023 13.0363 14.8073 13.0401 14.8125C13.8802 15.9494 13.8802 15.9494 13.8914 15.9646C13.8989 15.9747 13.9063 15.9848 13.9138 15.9949C13.9327 16.0205 13.9516 16.0461 13.9706 16.0717C14.0037 16.1166 14.0369 16.1615 14.0702 16.2063C14.1056 16.2538 14.1406 16.3015 14.1757 16.3492C14.2007 16.383 14.2256 16.4169 14.2508 16.4506C14.2808 16.4909 14.3106 16.5314 14.3404 16.5719C14.3759 16.6202 14.4116 16.6684 14.4474 16.7165C14.4792 16.7593 14.5109 16.8023 14.5425 16.8452C14.5613 16.8706 14.5801 16.896 14.5989 16.9214C14.6063 16.9315 14.6138 16.9416 14.6213 16.9517C14.625 16.9567 14.6287 16.9617 14.6325 16.9669C15.4726 18.1039 15.4726 18.1039 15.4838 18.119C15.4913 18.1291 15.4988 18.1392 15.5062 18.1493C15.5251 18.1749 15.5441 18.2005 15.563 18.2261C15.5706 18.2365 15.5783 18.2469 15.586 18.2572C15.5897 18.2623 15.5934 18.2673 15.5972 18.2725C15.6255 18.3108 15.654 18.349 15.6824 18.3872C15.6984 18.4088 15.6984 18.4088 15.7045 18.4232C15.7142 18.4427 15.7224 18.4529 15.7398 18.4659C15.7825 18.4746 15.825 18.4731 15.8685 18.4724C15.8818 18.4724 15.8951 18.4724 15.9084 18.4724C15.9446 18.4724 15.9807 18.4721 16.0168 18.4717C16.0546 18.4713 16.0923 18.4713 16.1301 18.4712C16.2016 18.471 16.273 18.4706 16.3445 18.47C16.4259 18.4694 16.5073 18.469 16.5887 18.4688C16.7561 18.4682 16.9235 18.4672 17.0909 18.4659C17.0788 18.4448 17.0666 18.4244 17.0523 18.4048C17.0489 18.4002 17.0456 18.3956 17.0422 18.3909C17.0386 18.386 17.0351 18.3812 17.0315 18.3763C17.024 18.366 17.0165 18.3558 17.009 18.3456C17.0054 18.3405 17.0017 18.3355 16.9979 18.3304C16.9838 18.3109 16.9697 18.2914 16.9556 18.2719C16.935 18.2435 16.9142 18.2153 16.8931 18.1872C16.8648 18.1493 16.8373 18.1108 16.81 18.0722C16.7737 18.021 16.7366 17.9706 16.6988 17.9206C16.6621 17.8721 16.6263 17.8229 16.5908 17.7735C16.5367 17.6984 16.4821 17.6237 16.4272 17.5492C16.3983 17.5101 16.3697 17.4708 16.3412 17.4314C16.3258 17.4101 16.3101 17.389 16.2945 17.3679C16.2585 17.3195 16.2231 17.2708 16.1883 17.2215C16.1528 17.1713 16.1164 17.1221 16.0793 17.0732C16.0462 17.0294 16.0144 16.9848 15.9828 16.94C15.9553 16.9012 15.927 16.863 15.8983 16.8251C15.8606 16.7753 15.824 16.7248 15.7879 16.6737C15.7588 16.6326 15.7291 16.5921 15.6988 16.5518C15.6867 16.5355 15.6752 16.5189 15.6639 16.5019C15.6594 16.4955 15.6548 16.4892 15.6502 16.4827C15.6456 16.4827 15.6411 16.4827 15.6364 16.4827C15.6345 16.4775 15.6327 16.4722 15.6309 16.4669C15.6225 16.4469 15.6131 16.4322 15.6003 16.415C15.5958 16.409 15.5913 16.403 15.5867 16.3968C15.5819 16.3904 15.5771 16.384 15.5722 16.3775C15.5672 16.3708 15.5623 16.3642 15.5572 16.3573C15.5471 16.3437 15.5369 16.3302 15.5268 16.3166C15.5063 16.2893 15.486 16.2618 15.4657 16.2343C15.4603 16.227 15.4603 16.227 15.4548 16.2196C15.4133 16.1634 15.3723 16.1067 15.3314 16.05C15.3031 16.0108 15.2746 15.9717 15.2456 15.9329C15.2172 15.8951 15.1898 15.8566 15.1624 15.8179C15.1262 15.7667 15.089 15.7163 15.0512 15.6663C15.0145 15.6178 14.9788 15.5686 14.9432 15.5192C14.8891 15.4441 14.8345 15.3694 14.7796 15.295C14.7508 15.2558 14.7221 15.2166 14.6937 15.1771C14.6782 15.1559 14.6626 15.1347 14.6469 15.1136C14.611 15.0652 14.5756 15.0165 14.5407 14.9672C14.5052 14.917 14.4688 14.8678 14.4317 14.8189C14.3987 14.7751 14.3669 14.7306 14.3352 14.6857C14.3077 14.6469 14.2795 14.6087 14.2508 14.5708C14.213 14.5211 14.1765 14.4705 14.1404 14.4195C14.1113 14.3783 14.0815 14.3378 14.0512 14.2976C14.0391 14.2812 14.0276 14.2646 14.0164 14.2476C14.0118 14.2413 14.0073 14.2349 14.0026 14.2284C13.998 14.2284 13.9935 14.2284 13.9888 14.2284C13.987 14.2232 13.9852 14.218 13.9833 14.2126C13.9749 14.1926 13.9655 14.1779 13.9527 14.1608C13.9482 14.1547 13.9437 14.1487 13.9391 14.1425C13.9343 14.1361 13.9295 14.1298 13.9246 14.1232C13.9197 14.1165 13.9147 14.1099 13.9096 14.1031C13.8995 14.0895 13.8893 14.0759 13.8792 14.0623C13.8588 14.035 13.8385 14.0075 13.8182 13.9801C13.8146 13.9752 13.811 13.9703 13.8072 13.9653C13.7635 13.9061 13.7204 13.8463 13.6773 13.7866C13.6387 13.7332 13.5996 13.6801 13.5605 13.627C13.5318 13.5881 13.5033 13.5491 13.475 13.5099C13.4511 13.477 13.427 13.4443 13.4028 13.4116C13.3635 13.3583 13.3244 13.3048 13.2857 13.2511C13.2348 13.1807 13.1836 13.1106 13.1321 13.0407C13.1032 13.0016 13.0746 12.9623 13.0461 12.9228C13.0306 12.9016 13.015 12.8805 12.9993 12.8593C12.9634 12.8109 12.928 12.7622 12.8931 12.7129C12.8577 12.6628 12.8212 12.6135 12.7841 12.5646C12.7511 12.5209 12.7193 12.4763 12.6876 12.4314C12.6601 12.3926 12.6319 12.3544 12.6032 12.3166C12.5655 12.2668 12.5289 12.2162 12.4928 12.1652C12.4637 12.124 12.4339 12.0835 12.4037 12.0433C12.3916 12.0269 12.3801 12.0103 12.3688 11.9933C12.3643 11.987 12.3597 11.9807 12.355 11.9741C12.3505 11.9741 12.3459 11.9741 12.3412 11.9741C12.3394 11.9689 12.3376 11.9637 12.3357 11.9583C12.3274 11.9383 12.318 11.9237 12.3051 11.9065C12.3006 11.9005 12.2962 11.8944 12.2916 11.8882C12.2868 11.8819 12.282 11.8755 12.277 11.8689C12.2721 11.8623 12.2671 11.8556 12.262 11.8488C12.2519 11.8352 12.2418 11.8216 12.2316 11.808C12.2112 11.7807 12.1909 11.7532 12.1706 11.7258C12.167 11.7209 12.1634 11.716 12.1597 11.711C12.1159 11.6518 12.0728 11.5921 12.0297 11.5323C11.9911 11.4789 11.952 11.4258 11.9129 11.3728C11.8842 11.3339 11.8557 11.2948 11.8274 11.2556C11.8036 11.2227 11.7794 11.19 11.7553 11.1573C11.716 11.104 11.6769 11.0505 11.6381 10.9968C11.5873 10.9264 11.536 10.8563 11.4845 10.7864C11.4556 10.7473 11.427 10.708 11.3985 10.6686C11.3831 10.6473 11.3674 10.6262 11.3518 10.6051C11.3156 10.5563 11.2799 10.5073 11.2447 10.4578C11.2407 10.4522 11.2368 10.4466 11.2327 10.4408C11.2167 10.4183 11.2007 10.3959 11.1848 10.3733C11.1734 10.3572 11.1619 10.341 11.1504 10.3249C11.1469 10.32 11.1435 10.315 11.1399 10.31C11.1317 10.2985 11.123 10.2873 11.1142 10.2763C11.1096 10.2763 11.1051 10.2763 11.1004 10.2763C11.0986 10.2711 11.0968 10.2658 11.0949 10.2605C11.0865 10.2405 11.0771 10.2258 11.0643 10.2086C11.0598 10.2026 11.0553 10.1966 11.0507 10.1904C11.0459 10.184 11.0411 10.1776 11.0362 10.1711C11.0312 10.1644 11.0263 10.1578 11.0212 10.1509C11.0111 10.1373 11.0009 10.1238 10.9908 10.1102C10.9703 10.0828 10.9501 10.0554 10.9298 10.0279C10.9262 10.0231 10.9226 10.0182 10.9188 10.0132C10.8834 9.96518 10.8484 9.91686 10.8134 9.86848C10.8044 9.85597 10.7953 9.84347 10.7862 9.83098C10.7808 9.82359 10.7755 9.8162 10.7699 9.80858C10.765 9.80184 10.7601 9.7951 10.7551 9.78815C10.7436 9.77213 10.7326 9.7559 10.7217 9.73947C10.717 9.733 10.7123 9.72652 10.7075 9.71985C10.7029 9.71985 10.6984 9.71985 10.6937 9.71985C10.6919 9.71463 10.69 9.7094 10.6882 9.70402C10.6798 9.68403 10.6704 9.66937 10.6576 9.65219C10.6531 9.64617 10.6486 9.64015 10.644 9.63395C10.6368 9.62438 10.6368 9.62438 10.6295 9.61463C10.6245 9.60798 10.6196 9.60134 10.6145 9.59449C10.6044 9.5809 10.5942 9.56731 10.5841 9.55374C10.5636 9.52641 10.5433 9.49897 10.5231 9.47151C10.5194 9.46663 10.5158 9.46175 10.5121 9.45673C10.4684 9.39751 10.4253 9.33779 10.3822 9.27806C10.3435 9.22461 10.3044 9.17154 10.2653 9.11848C10.2367 9.07957 10.2082 9.04054 10.1799 9.00135C10.156 8.96842 10.1318 8.93575 10.1077 8.90303C10.0684 8.84971 10.0293 8.79626 9.99052 8.74252C9.93969 8.6721 9.88846 8.602 9.83693 8.53213C9.80808 8.49299 9.77943 8.45372 9.75097 8.41428C9.7355 8.39302 9.71986 8.37189 9.70419 8.35078C9.66801 8.30205 9.63231 8.253 9.59716 8.20347C9.59318 8.19788 9.5892 8.19228 9.58509 8.18651C9.56913 8.16404 9.55316 8.14157 9.53726 8.11906C9.52581 8.10288 9.51431 8.08674 9.5028 8.07061C9.49761 8.06323 9.49761 8.06323 9.49232 8.0557C9.48409 8.0442 9.47539 8.03306 9.46661 8.02201C9.46206 8.02201 9.45751 8.02201 9.45282 8.02201C9.45101 8.01678 9.44919 8.01156 9.44732 8.00617C9.43897 7.98618 9.42956 7.97153 9.41671 7.95435C9.41224 7.94833 9.40777 7.94231 9.40316 7.9361C9.39836 7.92973 9.39357 7.92335 9.38863 7.91679C9.38368 7.91014 9.37873 7.90349 9.37363 7.89665C9.36351 7.88305 9.35337 7.86947 9.34322 7.8559C9.32278 7.82857 9.30249 7.80112 9.28221 7.77366C9.2786 7.76879 9.27499 7.76391 9.27127 7.75888C9.23581 7.7109 9.2008 7.66258 9.16586 7.6142C9.15681 7.60168 9.14774 7.58919 9.13865 7.5767C9.13328 7.56931 9.1279 7.56192 9.12236 7.5543C9.11746 7.54756 9.11255 7.54082 9.1075 7.53387C9.09603 7.51785 9.08501 7.50162 9.07411 7.48519C9.06941 7.47872 9.06472 7.47224 9.05989 7.46557C9.05534 7.46557 9.05079 7.46557 9.0461 7.46557C9.04429 7.46035 9.04247 7.45512 9.0406 7.44974C9.03225 7.42975 9.02284 7.41509 9.00999 7.39791C9.00552 7.39189 9.00105 7.38587 8.99644 7.37967C8.99164 7.37329 8.98685 7.36692 8.9819 7.36035C8.97696 7.3537 8.97201 7.34706 8.96691 7.34021C8.95679 7.32662 8.94665 7.31303 8.9365 7.29946C8.91606 7.27213 8.89577 7.24469 8.87548 7.21723C8.87188 7.21235 8.86827 7.20747 8.86455 7.20245C8.82079 7.14323 8.77769 7.08351 8.7346 7.02378C8.69597 6.97033 8.65688 6.91726 8.61776 6.8642C8.5891 6.82529 8.56061 6.78626 8.53231 6.74707C8.50845 6.71414 8.48427 6.68147 8.46015 6.64875C8.3453 6.49296 8.3453 6.49296 8.33547 6.47317C8.31839 6.45575 8.30506 6.45628 8.28172 6.45602C8.27336 6.45615 8.27336 6.45615 8.26483 6.45628C8.2589 6.45625 8.25297 6.45623 8.24686 6.4562C8.22692 6.45615 8.20698 6.45631 8.18704 6.45647C8.17277 6.45648 8.15851 6.45647 8.14424 6.45645C8.10544 6.45645 8.06665 6.45661 8.02785 6.45681C7.98734 6.45699 7.94682 6.45701 7.9063 6.45704C7.82954 6.45713 7.75278 6.45737 7.67603 6.45765C7.58865 6.45797 7.50128 6.45813 7.41391 6.45827C7.23415 6.45857 7.05438 6.45907 6.87462 6.45971Z" fill="#222222"/>
</svg>
