<svg width="20" height="20" viewBox="0 0 20 20" fill="none" xmlns="http://www.w3.org/2000/svg">
<path d="M18.3334 4.92239C17.7087 5.19521 17.0471 5.37409 16.37 5.45323C17.0807 5.03592 17.6151 4.37415 17.8734 3.59156C17.2 3.9835 16.4656 4.25956 15.7009 4.40823C15.3788 4.0709 14.9914 3.80272 14.5623 3.62004C14.1332 3.43737 13.6714 3.34403 13.205 3.34573C11.3167 3.34573 9.78585 4.85406 9.78585 6.71239C9.78585 6.97573 9.81585 7.23323 9.87419 7.47906C8.51967 7.41464 7.19345 7.06857 5.98016 6.46292C4.76687 5.85728 3.69315 5.00538 2.82752 3.96156C2.52404 4.47356 2.36453 5.05804 2.36585 5.65323C2.36643 6.20986 2.50571 6.75758 2.7711 7.24689C3.03648 7.73619 3.41961 8.15165 3.88585 8.45573C3.34376 8.43823 2.81337 8.2935 2.33752 8.03323V8.07489C2.33752 9.70656 3.51669 11.0674 5.07919 11.3774C4.78553 11.4553 4.48301 11.4948 4.17919 11.4949C3.95835 11.4949 3.74419 11.4741 3.53502 11.4324C3.75842 12.1057 4.18594 12.6927 4.7582 13.1118C5.33046 13.531 6.01906 13.7616 6.72835 13.7716C5.51174 14.7087 4.0182 15.2149 2.48252 15.2107C2.20585 15.2107 1.93419 15.1941 1.66669 15.1641C3.2344 16.1563 5.05218 16.6818 6.90752 16.6791C13.1967 16.6791 16.635 11.5482 16.635 7.09906L16.6234 6.66323C17.2941 6.19128 17.8735 5.60143 18.3334 4.92239Z" fill="#333333"/>
</svg>
