<svg width="24" height="23" viewBox="0 0 24 23" fill="none" xmlns="http://www.w3.org/2000/svg">
<path d="M0 0.0177038C0.722131 0.0154544 1.44426 0.0133673 2.16639 0.0121458C2.17708 0.0121276 2.18777 0.0121095 2.19877 0.0120908C2.43099 0.011698 2.6632 0.0113344 2.89542 0.0110009C3.00929 0.0108371 3.12317 0.0106669 3.23705 0.0104934C3.24838 0.0104762 3.25971 0.010459 3.27139 0.0104414C3.63878 0.00988186 4.00618 0.00889581 4.37358 0.00768888C4.75108 0.006451 5.12859 0.0056428 5.50609 0.00537634C5.5594 0.00533851 5.6127 0.00529577 5.666 0.00525003C5.68174 0.00523676 5.68174 0.00523676 5.69779 0.00522321C5.86676 0.00506801 6.03573 0.00445899 6.2047 0.00368082C6.37452 0.00290843 6.54433 0.00261278 6.71414 0.00280539C6.81507 0.00290534 6.91599 0.00263815 7.01692 0.00184768C7.08433 0.00135575 7.15173 0.00133998 7.21914 0.00171192C7.25757 0.00191029 7.29596 0.00190113 7.33439 0.00131139C7.57407 -0.00215693 7.57407 -0.00215693 7.62988 0.0461085C7.65748 0.0768519 7.67532 0.111081 7.69324 0.148966C7.70563 0.166971 7.71829 0.184786 7.73137 0.202248C7.74282 0.21887 7.75424 0.23552 7.76562 0.252198C7.77813 0.270337 7.79065 0.288468 7.80318 0.306591C7.80916 0.315236 7.81513 0.323882 7.82129 0.332789C7.85553 0.381979 7.89104 0.430125 7.92639 0.478424C8.01851 0.604639 8.10935 0.731787 8.19837 0.860464C8.2451 0.927773 8.29337 0.993688 8.3421 1.05939C8.39166 1.12645 8.43938 1.19482 8.48686 1.26354C8.52813 1.32308 8.57045 1.38162 8.61353 1.43971C8.66925 1.51483 8.72313 1.59117 8.77639 1.66826C8.81766 1.72781 8.85998 1.78635 8.90306 1.84443C8.95878 1.91956 9.01266 1.9959 9.06592 2.07299C9.10719 2.13253 9.14951 2.19107 9.19259 2.24916C9.24831 2.32428 9.30219 2.40062 9.35545 2.47771C9.39672 2.53725 9.43904 2.59579 9.48212 2.65388C9.53784 2.729 9.59172 2.80535 9.64498 2.88244C9.68625 2.94198 9.72857 3.00052 9.77165 3.0586C9.82833 3.13503 9.88321 3.21269 9.93746 3.29105C9.97882 3.35073 10.0209 3.40965 10.0638 3.46816C10.1551 3.59292 10.2451 3.71876 10.3344 3.84517C10.377 3.9053 10.42 3.96496 10.4632 4.02461C10.5164 4.09836 10.569 4.17257 10.6209 4.24748C10.6734 4.32349 10.7275 4.3981 10.7824 4.4722C10.832 4.53926 10.8797 4.60763 10.9272 4.67635C10.9685 4.73589 11.0108 4.79443 11.0539 4.85252C11.1096 4.92764 11.1635 5.00398 11.2167 5.08107C11.258 5.14061 11.3003 5.19915 11.3434 5.25724C11.3991 5.33237 11.453 5.40871 11.5062 5.4858C11.5475 5.54534 11.5898 5.60388 11.6329 5.66197C11.6896 5.73839 11.7445 5.81605 11.7987 5.89441C11.8401 5.9541 11.8822 6.01301 11.925 6.07152C12.0164 6.19628 12.1064 6.32212 12.1957 6.44853C12.2382 6.50866 12.2813 6.56832 12.3244 6.62797C12.3777 6.70172 12.4303 6.77593 12.4821 6.85084C12.5294 6.91915 12.5776 6.98653 12.6269 7.0532C12.6747 7.11785 12.7222 7.18264 12.7691 7.24805C12.7744 7.25545 12.7798 7.26286 12.7853 7.27049C12.8221 7.32207 12.8221 7.32207 12.8221 7.34649C12.8767 7.30103 12.9182 7.2514 12.9615 7.19399C12.9896 7.15781 13.0192 7.1236 13.0495 7.08944C13.0873 7.04683 13.1236 7.00375 13.1581 6.95818C13.1976 6.9061 13.2397 6.8574 13.2828 6.80871C13.315 6.7721 13.3457 6.7347 13.3753 6.69565C13.4148 6.64357 13.4568 6.59488 13.5 6.54619C13.5322 6.50958 13.5628 6.47218 13.5924 6.43313C13.6319 6.38105 13.674 6.33236 13.7171 6.28366C13.7493 6.24705 13.7799 6.20965 13.8096 6.17061C13.8491 6.11853 13.8911 6.06983 13.9343 6.02114C13.9665 5.98453 13.9971 5.94713 14.0267 5.90808C14.0662 5.856 14.1083 5.80731 14.1514 5.75862C14.1836 5.722 14.2142 5.68461 14.2439 5.64556C14.2834 5.59348 14.3254 5.54478 14.3686 5.49609C14.4008 5.45948 14.4314 5.42208 14.461 5.38303C14.5005 5.33096 14.5426 5.28226 14.5857 5.23357C14.6179 5.19696 14.6485 5.15956 14.6782 5.12051C14.7177 5.06843 14.7597 5.01974 14.8028 4.97105C14.8351 4.93443 14.8657 4.89704 14.8953 4.85799C14.9348 4.80591 14.9769 4.75721 15.02 4.70852C15.0522 4.67191 15.0828 4.63451 15.1125 4.59546C15.152 4.54338 15.194 4.49469 15.2371 4.446C15.2694 4.40939 15.3 4.37199 15.3296 4.33294C15.3691 4.28086 15.4112 4.23217 15.4543 4.18347C15.4865 4.14686 15.5171 4.10946 15.5467 4.07042C15.5862 4.01834 15.6283 3.96964 15.6714 3.92095C15.7037 3.88434 15.7343 3.84694 15.7639 3.80789C15.7985 3.76231 15.8347 3.71924 15.8725 3.67663C15.9186 3.62455 15.9618 3.57091 16.004 3.51524C16.0344 3.47649 16.0667 3.43976 16.0991 3.40293C16.1298 3.3678 16.1589 3.33178 16.1872 3.29447C16.2269 3.24219 16.2692 3.19324 16.3125 3.14432C16.3448 3.10771 16.3754 3.07031 16.405 3.03126C16.4445 2.97918 16.4866 2.93049 16.5297 2.88179C16.5619 2.84518 16.5925 2.80778 16.6221 2.76873C16.6616 2.71666 16.7037 2.66796 16.7468 2.61927C16.7791 2.58266 16.8097 2.54526 16.8393 2.50621C16.8788 2.45413 16.9209 2.40544 16.964 2.35675C16.9962 2.32013 17.0268 2.28274 17.0564 2.24369C17.0959 2.19161 17.138 2.14291 17.1811 2.09422C17.2134 2.05761 17.244 2.02021 17.2736 1.98116C17.3131 1.92908 17.3552 1.88039 17.3983 1.8317C17.4305 1.79509 17.4611 1.75769 17.4907 1.71864C17.5302 1.66656 17.5723 1.61787 17.6154 1.56918C17.6477 1.53256 17.6783 1.49516 17.7079 1.45612C17.7474 1.40404 17.7895 1.35534 17.8326 1.30665C17.8648 1.27004 17.8954 1.23264 17.925 1.19359C17.9645 1.14151 18.0066 1.09282 18.0497 1.04413C18.082 1.00752 18.1126 0.970117 18.1422 0.931068C18.1817 0.878989 18.2238 0.830294 18.2669 0.781604C18.2991 0.744991 18.3297 0.707593 18.3593 0.668544C18.3988 0.616465 18.4409 0.567771 18.484 0.51908C18.5162 0.482468 18.5469 0.445069 18.5765 0.40602C18.6159 0.354 18.6579 0.305343 18.701 0.256724C18.7422 0.209941 18.7807 0.1613 18.8181 0.111066C18.8254 0.101914 18.8327 0.0927632 18.8402 0.0833348C18.8516 0.0664773 18.8516 0.0664773 18.8634 0.0492794C18.9051 0.00597469 18.9506 0.00979715 19.0066 0.00923207C19.0208 0.0094193 19.0351 0.00961262 19.0494 0.00981138C19.0646 0.00978275 19.0799 0.00972527 19.0951 0.00964145C19.137 0.00949474 19.1788 0.00975715 19.2206 0.0100863C19.2657 0.0103697 19.3109 0.0102738 19.356 0.010224C19.4342 0.0101896 19.5123 0.0103955 19.5905 0.0107646C19.7035 0.011298 19.8165 0.0114689 19.9296 0.0115514C20.1129 0.0116951 20.2963 0.0121318 20.4796 0.0127526C20.6578 0.0133551 20.8359 0.0138196 21.014 0.0140986C21.0305 0.0141244 21.0305 0.0141244 21.0473 0.0141508C21.1024 0.0142365 21.1574 0.0143194 21.2125 0.014401C21.6695 0.0150814 22.1264 0.0162374 22.5834 0.0177038C22.5637 0.0621257 22.5361 0.0965444 22.5058 0.133242C22.5003 0.140014 22.4947 0.146787 22.489 0.153765C22.4467 0.205354 22.4032 0.255757 22.3596 0.306078C22.3355 0.33462 22.3126 0.363887 22.29 0.393714C22.25 0.44618 22.2075 0.495392 22.164 0.544541C22.1317 0.581154 22.1011 0.618555 22.0715 0.657606C22.032 0.709685 21.9899 0.758379 21.9468 0.80707C21.9146 0.843682 21.884 0.88108 21.8544 0.920129C21.8149 0.972208 21.7728 1.0209 21.7297 1.06959C21.6975 1.10621 21.6668 1.1436 21.6372 1.18265C21.5977 1.23473 21.5556 1.28343 21.5125 1.33212C21.4803 1.36873 21.4497 1.40613 21.4201 1.44518C21.3806 1.49726 21.3385 1.54595 21.2954 1.59464C21.2632 1.63125 21.2325 1.66865 21.2029 1.7077C21.1634 1.75978 21.1213 1.80847 21.0782 1.85716C21.046 1.89378 21.0154 1.93118 20.9858 1.97022C20.9463 2.0223 20.9042 2.071 20.8611 2.11969C20.8289 2.1563 20.7983 2.1937 20.7686 2.23275C20.7291 2.28483 20.6871 2.33352 20.6439 2.38221C20.6117 2.41882 20.5811 2.45622 20.5515 2.49527C20.512 2.54735 20.4699 2.59605 20.4268 2.64474C20.3946 2.68135 20.364 2.71875 20.3343 2.7578C20.2948 2.80988 20.2528 2.85857 20.2096 2.90726C20.1774 2.94387 20.1468 2.98127 20.1172 3.02032C20.0777 3.0724 20.0356 3.12109 19.9925 3.16978C19.9603 3.2064 19.9297 3.24379 19.9 3.28284C19.8605 3.33492 19.8185 3.38362 19.7754 3.43231C19.7431 3.46892 19.7125 3.50632 19.6829 3.54537C19.6434 3.59745 19.6013 3.64614 19.5582 3.69483C19.526 3.73144 19.4954 3.76884 19.4657 3.80789C19.4262 3.85997 19.3842 3.90866 19.3411 3.95736C19.3088 3.99397 19.2782 4.03137 19.2486 4.07042C19.2091 4.12249 19.167 4.17119 19.1239 4.21988C19.0917 4.25649 19.0611 4.29389 19.0315 4.33294C18.992 4.38502 18.9499 4.43371 18.9068 4.4824C18.8745 4.51902 18.8439 4.55641 18.8143 4.59546C18.7748 4.64754 18.7327 4.69624 18.6896 4.74493C18.6574 4.78154 18.6268 4.81894 18.5972 4.85799C18.5577 4.91007 18.5156 4.95876 18.4725 5.00745C18.4402 5.04406 18.4096 5.08146 18.38 5.12051C18.3405 5.17259 18.2984 5.22128 18.2553 5.26997C18.2231 5.30659 18.1925 5.34399 18.1629 5.38303C18.1234 5.43511 18.0813 5.48381 18.0382 5.5325C18.0059 5.56911 17.9753 5.60651 17.9457 5.64556C17.9062 5.69764 17.8641 5.74633 17.821 5.79502C17.7888 5.83163 17.7582 5.86903 17.7286 5.90808C17.6891 5.96016 17.647 6.00885 17.6039 6.05755C17.5716 6.09416 17.541 6.13156 17.5114 6.17061C17.4719 6.22269 17.4298 6.2714 17.3867 6.32009C17.3547 6.35647 17.3243 6.39361 17.2949 6.43245C17.2533 6.48737 17.2085 6.5384 17.1629 6.58962C17.1211 6.63683 17.0823 6.68586 17.0441 6.73637C17.0166 6.7714 16.9876 6.80463 16.9582 6.83785C16.9205 6.88047 16.8842 6.92354 16.8496 6.96912C16.8101 7.02119 16.7681 7.06989 16.7249 7.11858C16.6927 7.15519 16.6621 7.19259 16.6325 7.23164C16.593 7.28372 16.5509 7.33241 16.5078 7.3811C16.4756 7.41772 16.445 7.45511 16.4153 7.49416C16.3808 7.53974 16.3445 7.58281 16.3068 7.62542C16.2607 7.6775 16.2174 7.73114 16.1752 7.78681C16.1448 7.82556 16.1125 7.86229 16.0801 7.89913C16.0494 7.93425 16.0203 7.97028 15.992 8.00759C15.9523 8.05986 15.91 8.10881 15.8667 8.15773C15.8345 8.19435 15.8039 8.23175 15.7742 8.2708C15.7347 8.32288 15.6927 8.37157 15.6495 8.42026C15.6173 8.45687 15.5867 8.49427 15.5571 8.53332C15.5176 8.5854 15.4755 8.63409 15.4324 8.68278C15.4002 8.7194 15.3696 8.75679 15.3399 8.79584C15.3004 8.84792 15.2584 8.89662 15.2152 8.94531C15.183 8.98192 15.1524 9.01932 15.1228 9.05837C15.0833 9.11045 15.0412 9.15914 14.9981 9.20783C14.9659 9.24444 14.9353 9.28184 14.9056 9.32089C14.8711 9.36647 14.8348 9.40954 14.7971 9.45215C14.7505 9.50481 14.7065 9.55898 14.6638 9.61525C14.6303 9.65874 14.5949 9.70043 14.5592 9.74202C14.5732 9.77338 14.5891 9.80071 14.6085 9.82859C14.6142 9.83681 14.62 9.84503 14.6258 9.8535C14.632 9.86229 14.6382 9.87107 14.6445 9.88012C14.651 9.88933 14.6574 9.89854 14.6641 9.90802C14.7134 9.97832 14.764 10.0475 14.8151 10.1164C14.8647 10.1835 14.9124 10.2519 14.9599 10.3206C15.0012 10.3802 15.0435 10.4387 15.0866 10.4968C15.1423 10.5719 15.1962 10.6482 15.2495 10.7253C15.2907 10.7849 15.333 10.8434 15.3761 10.9015C15.4318 10.9766 15.4857 11.053 15.539 11.1301C15.5803 11.1896 15.6226 11.2481 15.6657 11.3062C15.7214 11.3814 15.7753 11.4577 15.8285 11.5348C15.8698 11.5943 15.9121 11.6529 15.9552 11.711C16.0109 11.7861 16.0648 11.8624 16.1181 11.9395C16.1593 11.999 16.2016 12.0576 16.2447 12.1157C16.3014 12.1921 16.3563 12.2698 16.4105 12.3481C16.4519 12.4078 16.494 12.4667 16.5368 12.5252C16.6282 12.65 16.7182 12.7758 16.8075 12.9022C16.85 12.9624 16.8931 13.022 16.9362 13.0817C16.9895 13.1554 17.0421 13.2296 17.0939 13.3046C17.1465 13.3806 17.2005 13.4552 17.2555 13.5293C17.3051 13.5963 17.3528 13.6647 17.4003 13.7334C17.4415 13.793 17.4838 13.8515 17.5269 13.9096C17.5826 13.9847 17.6365 14.0611 17.6898 14.1381C17.7311 14.1977 17.7734 14.2562 17.8165 14.3143C17.8722 14.3894 17.9261 14.4658 17.9793 14.5429C18.0206 14.6024 18.0629 14.6609 18.106 14.719C18.1617 14.7942 18.2156 14.8705 18.2688 14.9476C18.3101 15.0071 18.3524 15.0657 18.3955 15.1238C18.4512 15.1989 18.5051 15.2752 18.5584 15.3523C18.5997 15.4119 18.642 15.4704 18.685 15.5285C18.7417 15.6049 18.7966 15.6826 18.8509 15.7609C18.8922 15.8206 18.9343 15.8795 18.9772 15.938C19.0685 16.0628 19.1585 16.1886 19.2478 16.3151C19.2904 16.3752 19.3334 16.4348 19.3766 16.4945C19.4298 16.5682 19.4824 16.6425 19.5343 16.7174C19.5868 16.7934 19.6409 16.868 19.6958 16.9421C19.7454 17.0091 19.7931 17.0775 19.8406 17.1462C19.8819 17.2058 19.9242 17.2643 19.9673 17.3224C20.023 17.3975 20.0769 17.4739 20.1301 17.551C20.1714 17.6105 20.2137 17.669 20.2568 17.7271C20.3125 17.8022 20.3664 17.8786 20.4196 17.9557C20.4609 18.0152 20.5032 18.0738 20.5463 18.1318C20.602 18.207 20.6559 18.2833 20.7092 18.3604C20.7504 18.4199 20.7928 18.4785 20.8358 18.5366C20.8916 18.6117 20.9454 18.688 20.9987 18.7651C21.04 18.8247 21.0823 18.8832 21.1254 18.9413C21.1821 19.0177 21.2369 19.0954 21.2912 19.1737C21.3325 19.2334 21.3747 19.2923 21.4175 19.3508C21.5088 19.4756 21.5989 19.6015 21.6882 19.7279C21.7307 19.788 21.7738 19.8476 21.8169 19.9073C21.8702 19.981 21.9228 20.0553 21.9746 20.1302C22.0272 20.2062 22.0812 20.2808 22.1362 20.3549C22.1857 20.4219 22.2334 20.4903 22.2809 20.559C22.3222 20.6186 22.3645 20.6771 22.4076 20.7352C22.4633 20.8103 22.5172 20.8867 22.5704 20.9638C22.6117 21.0233 22.654 21.0818 22.6971 21.1399C22.7528 21.2151 22.8067 21.2914 22.86 21.3685C22.9012 21.428 22.9436 21.4866 22.9866 21.5447C23.0433 21.6211 23.0982 21.6987 23.1525 21.7771C23.1938 21.8367 23.2358 21.8956 23.2786 21.954C23.3669 22.0747 23.4541 22.1963 23.5404 22.3185C23.5679 22.3574 23.5958 22.3959 23.6237 22.4344C23.6912 22.5279 23.7581 22.6218 23.8238 22.7167C23.8531 22.759 23.8825 22.801 23.9125 22.8427C23.9183 22.8508 23.9241 22.8589 23.9301 22.8673C23.9411 22.8826 23.9522 22.8979 23.9633 22.9131C24 22.9642 24 22.9642 24 22.9885C23.2952 22.99 22.5904 22.9914 21.8855 22.9922C21.8751 22.9923 21.8647 22.9923 21.8539 22.9923C21.6273 22.9925 21.4007 22.9928 21.1741 22.993C21.063 22.9931 20.9519 22.9932 20.8408 22.9933C20.8297 22.9934 20.8187 22.9934 20.8073 22.9934C20.4487 22.9937 20.0901 22.9944 19.7315 22.9952C19.3631 22.996 18.9947 22.9966 18.6263 22.9968C18.5743 22.9968 18.5222 22.9968 18.4702 22.9968C18.46 22.9968 18.4498 22.9969 18.4392 22.9969C18.2743 22.997 18.1094 22.9974 17.9444 22.9979C17.7787 22.9984 17.613 22.9986 17.4473 22.9985C17.3488 22.9984 17.2502 22.9986 17.1517 22.9991C17.0859 22.9994 17.0202 22.9994 16.9544 22.9992C16.9169 22.9991 16.8794 22.9991 16.8419 22.9995C16.8015 22.9999 16.7612 22.9996 16.7208 22.9993C16.7091 22.9995 16.6975 22.9998 16.6854 23C16.6085 22.9986 16.6085 22.9986 16.5737 22.9699C16.5552 22.9478 16.5395 22.9255 16.5239 22.901C16.5133 22.8866 16.5026 22.8722 16.4918 22.858C16.4811 22.8432 16.4705 22.8284 16.4599 22.8135C16.4542 22.8055 16.4484 22.7975 16.4424 22.7892C16.399 22.7286 16.3559 22.6677 16.3129 22.6067C16.2675 22.5427 16.2211 22.4796 16.1745 22.4166C16.1301 22.3563 16.0866 22.2955 16.0435 22.2342C16.0044 22.1788 15.9644 22.1242 15.9242 22.0697C15.8735 22.0012 15.8238 21.9321 15.7746 21.8623C15.7355 21.8069 15.6956 21.7523 15.6553 21.6978C15.6047 21.6293 15.5549 21.5601 15.5058 21.4904C15.4667 21.435 15.4267 21.3804 15.3865 21.3259C15.341 21.2644 15.2961 21.2025 15.252 21.1399C15.1899 21.0517 15.1259 20.9649 15.0619 20.8781C15.0298 20.8346 14.998 20.7908 14.9663 20.747C14.9495 20.7238 14.9326 20.7007 14.9158 20.6776C14.8663 20.6098 14.8174 20.5416 14.7689 20.473C14.7188 20.4026 14.6677 20.333 14.6168 20.2632C14.5698 20.1987 14.5232 20.1339 14.4772 20.0686C14.4328 20.0057 14.3875 19.9437 14.3414 19.8821C14.3037 19.8316 14.2672 19.7803 14.2309 19.7288C14.2064 19.6942 14.1816 19.6599 14.1566 19.6256C14.1523 19.6197 14.148 19.6138 14.1435 19.6077C14.1221 19.5782 14.1006 19.5488 14.0791 19.5194C14.0327 19.4558 13.9868 19.3919 13.9414 19.3276C13.8904 19.2554 13.8384 19.1842 13.7859 19.1132C13.7415 19.0529 13.698 18.992 13.6549 18.9308C13.6157 18.8754 13.5758 18.8208 13.5355 18.7663C13.4849 18.6977 13.4351 18.6286 13.386 18.5589C13.3469 18.5035 13.3069 18.4488 13.2667 18.3944C13.2161 18.3258 13.1663 18.2567 13.1172 18.187C13.078 18.1316 13.0381 18.0769 12.9978 18.0225C12.9472 17.9539 12.8974 17.8848 12.8483 17.8151C12.8092 17.7597 12.7692 17.705 12.729 17.6506C12.6784 17.582 12.6286 17.5129 12.5795 17.4431C12.5403 17.3878 12.5004 17.3331 12.4601 17.2786C12.4147 17.2171 12.3698 17.1553 12.3257 17.0927C12.2824 17.0313 12.2385 16.9705 12.1939 16.9102C12.1195 16.8095 12.0464 16.7078 11.9733 16.6061C11.8878 16.4873 11.8018 16.3688 11.7156 16.2504C11.6941 16.2208 11.6726 16.1912 11.651 16.1616C11.6294 16.1318 11.6077 16.102 11.586 16.0723C11.5444 16.0153 11.5031 15.9581 11.4623 15.9004C11.4265 15.8498 11.3903 15.7996 11.3538 15.7495C11.3117 15.6917 11.2697 15.6336 11.2278 15.5755C11.1938 15.5285 11.1598 15.4816 11.1256 15.4348C11.0823 15.3754 11.0399 15.3155 10.9975 15.2554C10.9574 15.1987 10.9163 15.1429 10.8745 15.0876C10.846 15.0497 10.8202 15.0111 10.7953 14.9706C10.7535 15.0123 10.7156 15.0558 10.6797 15.1033C10.644 15.1502 10.6068 15.1947 10.5679 15.2386C10.5301 15.2812 10.4939 15.3243 10.4593 15.3699C10.4198 15.422 10.3777 15.4707 10.3346 15.5193C10.3024 15.556 10.2718 15.5934 10.2421 15.6324C10.2026 15.6845 10.1606 15.7332 10.1174 15.7819C10.0852 15.8185 10.0546 15.8559 10.025 15.8949C9.98549 15.947 9.94341 15.9957 9.9003 16.0444C9.86807 16.081 9.83746 16.1184 9.80784 16.1574C9.76834 16.2095 9.72626 16.2582 9.68315 16.3069C9.65092 16.3435 9.62031 16.3809 9.59069 16.42C9.55119 16.4721 9.50911 16.5207 9.466 16.5694C9.43377 16.606 9.40316 16.6434 9.37355 16.6825C9.33405 16.7346 9.29197 16.7833 9.24886 16.832C9.21662 16.8686 9.18601 16.906 9.1564 16.945C9.1169 16.9971 9.07482 17.0458 9.03171 17.0945C8.99948 17.1311 8.96887 17.1685 8.93925 17.2075C8.89975 17.2596 8.85767 17.3083 8.81456 17.357C8.78233 17.3936 8.75172 17.431 8.7221 17.4701C8.6826 17.5221 8.64052 17.5708 8.59741 17.6195C8.56518 17.6561 8.53457 17.6935 8.50495 17.7326C8.46546 17.7847 8.42338 17.8334 8.38026 17.8821C8.34803 17.9187 8.31742 17.9561 8.28781 17.9951C8.24831 18.0472 8.20623 18.0959 8.16312 18.1446C8.13088 18.1812 8.10028 18.2186 8.07066 18.2576C8.03116 18.3097 7.98908 18.3584 7.94597 18.4071C7.91374 18.4437 7.88313 18.4811 7.85351 18.5202C7.81401 18.5722 7.77193 18.6209 7.72882 18.6696C7.69659 18.7062 7.66598 18.7436 7.63636 18.7827C7.59686 18.8348 7.55478 18.8835 7.51167 18.9322C7.47944 18.9688 7.44883 19.0062 7.41922 19.0452C7.37972 19.0973 7.33764 19.146 7.29453 19.1947C7.26229 19.2313 7.23168 19.2687 7.20207 19.3077C7.16257 19.3598 7.12049 19.4085 7.07738 19.4572C7.04515 19.4938 7.01454 19.5312 6.98492 19.5703C6.94542 19.6223 6.90334 19.671 6.86023 19.7197C6.828 19.7563 6.79739 19.7937 6.76777 19.8328C6.72827 19.8849 6.68619 19.9336 6.64308 19.9822C6.61085 20.0189 6.58024 20.0563 6.55062 20.0953C6.51113 20.1474 6.46905 20.1961 6.42593 20.2448C6.3937 20.2814 6.36309 20.3188 6.33348 20.3578C6.29398 20.4099 6.2519 20.4586 6.20879 20.5073C6.17655 20.5439 6.14595 20.5813 6.11633 20.6204C6.07683 20.6724 6.03475 20.7211 5.99164 20.7698C5.95941 20.8064 5.9288 20.8438 5.89918 20.8829C5.85968 20.935 5.8176 20.9837 5.77449 21.0323C5.74226 21.069 5.71165 21.1064 5.68203 21.1454C5.64253 21.1975 5.60045 21.2462 5.55734 21.2949C5.52511 21.3315 5.4945 21.3689 5.46489 21.4079C5.42538 21.46 5.38329 21.5087 5.34017 21.5574C5.30815 21.5938 5.27776 21.6309 5.24838 21.6698C5.20674 21.7247 5.16199 21.7757 5.11641 21.8269C5.07461 21.8741 5.0358 21.9232 4.99759 21.9737C4.97007 22.0087 4.9411 22.0419 4.91168 22.0752C4.87395 22.1178 4.83767 22.1609 4.8031 22.2064C4.7636 22.2585 4.72152 22.3072 4.67841 22.3559C4.64618 22.3925 4.61557 22.4299 4.58595 22.469C4.54645 22.521 4.50437 22.5697 4.46126 22.6184C4.42099 22.6642 4.38369 22.7119 4.34671 22.7606C4.31301 22.8034 4.27728 22.844 4.24121 22.8846C4.21882 22.9098 4.19804 22.9341 4.17968 22.9628C4.15683 22.9885 4.15683 22.9885 4.12809 22.9953C4.11692 22.9953 4.10575 22.9953 4.09425 22.9953C4.07489 22.9954 4.07489 22.9954 4.05514 22.9956C4.0408 22.9954 4.02645 22.9953 4.0121 22.9951C3.99688 22.9951 3.98166 22.9952 3.96644 22.9953C3.92456 22.9954 3.88269 22.9952 3.84081 22.9949C3.79567 22.9946 3.75053 22.9947 3.70539 22.9948C3.62717 22.9948 3.54894 22.9946 3.47072 22.9943C3.35762 22.9939 3.24452 22.9937 3.13141 22.9937C2.94792 22.9935 2.76443 22.9932 2.58094 22.9927C2.40268 22.9922 2.22442 22.9918 2.04615 22.9915C2.02967 22.9915 2.02967 22.9915 2.01286 22.9915C1.95776 22.9914 1.90265 22.9914 1.84754 22.9913C1.39025 22.9907 0.932953 22.9898 0.475657 22.9885C0.475657 22.9415 0.502491 22.922 0.531883 22.8901C0.571702 22.8457 0.610161 22.8012 0.646273 22.7534C0.685773 22.7013 0.727852 22.6526 0.770963 22.6039C0.803195 22.5673 0.833804 22.5299 0.863421 22.4908C0.90292 22.4388 0.945 22.3901 0.988111 22.3414C1.02034 22.3048 1.05095 22.2674 1.08057 22.2283C1.12007 22.1762 1.16215 22.1275 1.20526 22.0788C1.23749 22.0422 1.2681 22.0048 1.29772 21.9658C1.33722 21.9137 1.3793 21.865 1.42241 21.8163C1.45464 21.7797 1.48525 21.7423 1.51486 21.7033C1.55436 21.6512 1.59644 21.6025 1.63955 21.5538C1.67179 21.5172 1.7024 21.4798 1.73201 21.4407C1.77151 21.3887 1.81359 21.34 1.8567 21.2913C1.88893 21.2547 1.91954 21.2173 1.94916 21.1782C1.98866 21.1261 2.03074 21.0774 2.07385 21.0288C2.10608 20.9921 2.13669 20.9547 2.16631 20.9157C2.20581 20.8636 2.24789 20.8149 2.291 20.7662C2.32323 20.7296 2.35384 20.6922 2.38346 20.6532C2.42296 20.6011 2.46503 20.5524 2.50815 20.5037C2.54038 20.4671 2.57099 20.4297 2.6006 20.3906C2.6401 20.3386 2.68218 20.2899 2.72529 20.2412C2.75753 20.2046 2.78813 20.1672 2.81775 20.1281C2.85725 20.076 2.89933 20.0273 2.94244 19.9787C2.97467 19.942 3.00528 19.9046 3.0349 19.8656C3.0744 19.8135 3.11648 19.7648 3.15959 19.7161C3.19182 19.6795 3.22243 19.6421 3.25205 19.6031C3.29155 19.551 3.33363 19.5023 3.37674 19.4536C3.40897 19.417 3.43958 19.3796 3.46919 19.3405C3.50869 19.2885 3.55077 19.2398 3.59388 19.1911C3.62612 19.1545 3.65673 19.1171 3.68634 19.078C3.72584 19.0259 3.76792 18.9773 3.81103 18.9286C3.84326 18.8919 3.87387 18.8546 3.90349 18.8155C3.94299 18.7634 3.98507 18.7147 4.02818 18.666C4.06041 18.6294 4.09102 18.592 4.12064 18.553C4.16014 18.5009 4.20222 18.4522 4.24533 18.4035C4.27756 18.3669 4.30817 18.3295 4.33779 18.2905C4.37729 18.2384 4.41936 18.1897 4.46248 18.141C4.49471 18.1044 4.52532 18.067 4.55493 18.0279C4.59443 17.9759 4.63651 17.9272 4.67962 17.8785C4.71186 17.8419 4.74246 17.8045 4.77208 17.7654C4.81158 17.7133 4.85366 17.6646 4.89677 17.6159C4.929 17.5793 4.95961 17.5419 4.98923 17.5029C5.02873 17.4508 5.07081 17.4021 5.11392 17.3534C5.14615 17.3168 5.17676 17.2794 5.20638 17.2404C5.24588 17.1883 5.28796 17.1396 5.33107 17.0909C5.3633 17.0543 5.39391 17.0169 5.42352 16.9778C5.46302 16.9258 5.5051 16.8771 5.54821 16.8284C5.58045 16.7918 5.61106 16.7544 5.64067 16.7153C5.68017 16.6632 5.72225 16.6145 5.76536 16.5658C5.79759 16.5292 5.8282 16.4918 5.85782 16.4528C5.89732 16.4007 5.9394 16.352 5.98251 16.3033C6.01474 16.2667 6.04535 16.2293 6.07497 16.1903C6.11447 16.1382 6.15655 16.0895 6.19966 16.0408C6.23189 16.0042 6.2625 15.9668 6.29212 15.9277C6.33161 15.8757 6.37369 15.827 6.41681 15.7783C6.44904 15.7417 6.47965 15.7043 6.50926 15.6652C6.54876 15.6131 6.59084 15.5644 6.63395 15.5158C6.66619 15.4791 6.69679 15.4417 6.72641 15.4027C6.76591 15.3506 6.80799 15.3019 6.8511 15.2532C6.88333 15.2166 6.91394 15.1792 6.94356 15.1402C6.98306 15.0881 7.02514 15.0394 7.06825 14.9907C7.10048 14.9541 7.13109 14.9167 7.16071 14.8776C7.20021 14.8256 7.24229 14.7769 7.2854 14.7282C7.31763 14.6916 7.34824 14.6542 7.37785 14.6151C7.41735 14.563 7.45943 14.5143 7.50254 14.4657C7.53478 14.429 7.56539 14.3916 7.595 14.3526C7.6345 14.3005 7.67658 14.2518 7.71969 14.2031C7.75192 14.1665 7.78253 14.1291 7.81215 14.0901C7.85165 14.038 7.89373 13.9893 7.93684 13.9406C7.96907 13.904 7.99968 13.8666 8.0293 13.8275C8.0688 13.7755 8.11088 13.7268 8.15399 13.6781C8.18622 13.6415 8.21683 13.6041 8.24645 13.565C8.28594 13.5129 8.32802 13.4643 8.37114 13.4156C8.40337 13.379 8.43398 13.3416 8.46359 13.3025C8.50309 13.2504 8.54517 13.2017 8.58828 13.153C8.62051 13.1164 8.65112 13.079 8.68074 13.04C8.71531 12.9944 8.75158 12.9513 8.78931 12.9087C8.83529 12.8568 8.8784 12.8033 8.92051 12.7478C8.96431 12.6919 9.01134 12.6391 9.05816 12.586C9.03121 12.5424 9.00313 12.5007 8.97286 12.4596C8.96375 12.4471 8.95465 12.4347 8.94555 12.4223C8.93798 12.4119 8.93798 12.4119 8.93026 12.4014C8.89687 12.3555 8.8638 12.3094 8.83068 12.2633C8.786 12.2013 8.74129 12.1392 8.69625 12.0774C8.65122 12.0156 8.60651 11.9535 8.56183 11.8914C8.49181 11.7941 8.42151 11.6971 8.35082 11.6003C8.30433 11.5366 8.25834 11.4726 8.21284 11.4081C8.16188 11.3359 8.10979 11.2647 8.05734 11.1937C8.01292 11.1335 7.96944 11.0726 7.9263 11.0113C7.88718 10.9559 7.84723 10.9013 7.80698 10.8468C7.75634 10.7783 7.70657 10.7092 7.65745 10.6394C7.61833 10.584 7.57838 10.5294 7.53813 10.4749C7.48749 10.4064 7.43772 10.3372 7.3886 10.2675C7.34948 10.2121 7.30953 10.1575 7.26928 10.103C7.21864 10.0345 7.16887 9.96534 7.11975 9.89559C7.08063 9.8402 7.04068 9.78556 7.00043 9.73108C6.9498 9.66255 6.90002 9.59343 6.8509 9.52368C6.81178 9.46829 6.77183 9.41365 6.73158 9.35918C6.68095 9.29064 6.63117 9.22152 6.58205 9.15177C6.54294 9.09638 6.50298 9.04174 6.46273 8.98727C6.4121 8.91873 6.36232 8.84961 6.3132 8.77986C6.27409 8.72447 6.23413 8.66983 6.19388 8.61536C6.14325 8.54682 6.09347 8.47771 6.04435 8.40795C6.00524 8.35257 5.96528 8.29792 5.92503 8.24345C5.8744 8.17492 5.82463 8.1058 5.7755 8.03605C5.73639 7.98066 5.69643 7.92601 5.65618 7.87154C5.60555 7.80301 5.55578 7.73389 5.50665 7.66414C5.46754 7.60875 5.42758 7.5541 5.38733 7.49963C5.3367 7.4311 5.28693 7.36198 5.2378 7.29223C5.19869 7.23684 5.15873 7.1822 5.11848 7.12772C5.06785 7.05919 5.01808 6.99007 4.96895 6.92032C4.92984 6.86493 4.88988 6.81029 4.84963 6.75581C4.799 6.68728 4.74923 6.61816 4.7001 6.54841C4.66099 6.49302 4.62103 6.43838 4.58078 6.38391C4.53015 6.31537 4.48038 6.24625 4.43125 6.1765C4.39214 6.12111 4.35218 6.06647 4.31193 6.012C4.2613 5.94346 4.21153 5.87434 4.1624 5.80459C4.12329 5.74921 4.08333 5.69456 4.04308 5.64009C3.99764 5.57859 3.95275 5.51673 3.90866 5.45413C3.85953 5.38441 3.80934 5.31564 3.75873 5.24711C3.69661 5.16287 3.6355 5.07784 3.57438 4.99279C3.54461 4.9514 3.51472 4.91011 3.4847 4.86893C3.43967 4.80712 3.39496 4.74506 3.35028 4.68297C3.28847 4.59709 3.22646 4.51139 3.16415 4.42592C3.1426 4.3963 3.12107 4.36667 3.09953 4.33704C3.07789 4.30727 3.05623 4.27751 3.03454 4.24778C2.98513 4.18003 2.93627 4.1119 2.88783 4.04337C2.85029 3.99058 2.81213 3.9383 2.77397 3.886C2.74803 3.85044 2.72216 3.81482 2.69628 3.7792C2.67463 3.74942 2.65296 3.71966 2.63126 3.68992C2.58185 3.62217 2.53299 3.55403 2.48456 3.4855C2.44702 3.43271 2.40885 3.38043 2.3707 3.32814C2.34476 3.29257 2.31889 3.25695 2.293 3.22134C2.27135 3.19156 2.24969 3.16179 2.22799 3.13205C2.17858 3.06431 2.12972 2.99617 2.08128 2.92764C2.04374 2.87485 2.00558 2.82257 1.96742 2.77028C1.94148 2.73471 1.91561 2.69909 1.88973 2.66348C1.86808 2.6337 1.84641 2.60393 1.82471 2.57419C1.77531 2.50644 1.72645 2.43831 1.67801 2.36978C1.64047 2.31699 1.60231 2.26471 1.56415 2.21241C1.53821 2.17685 1.51234 2.14123 1.48645 2.10562C1.4648 2.07583 1.44314 2.04607 1.42144 2.01633C1.37203 1.94858 1.32317 1.88045 1.27473 1.81192C1.23719 1.75912 1.19903 1.70684 1.16087 1.65455C1.13491 1.61895 1.10902 1.5833 1.08311 1.54766C1.06185 1.51841 1.04057 1.48919 1.01925 1.46C0.9666 1.38788 0.914662 1.31523 0.863068 1.24225C0.813812 1.17266 0.763732 1.10377 0.713486 1.03498C0.69191 1.00535 0.670361 0.975685 0.648808 0.946028C0.627554 0.91679 0.606276 0.887573 0.584958 0.858387C0.537886 0.793906 0.491351 0.729046 0.445282 0.663758C0.40088 0.600853 0.355596 0.538798 0.30955 0.477233C0.271908 0.426815 0.235387 0.37558 0.199093 0.324067C0.173905 0.288511 0.148411 0.253223 0.122792 0.218015C0.118481 0.212072 0.114169 0.20613 0.109728 0.200008C0.0899933 0.172867 0.0700721 0.145932 0.049763 0.119269C0.0431517 0.110569 0.0365403 0.10187 0.0297286 0.0929059C0.0239436 0.0854327 0.0181587 0.0779595 0.0121984 0.0702598C0 0.0505193 0 0.0505193 0 0.0177038ZM4.31193 2.23822C4.32881 2.27516 4.34852 2.30599 4.37204 2.33872C4.37607 2.34434 4.3801 2.34996 4.38425 2.35576C4.39802 2.37495 4.41184 2.39409 4.42568 2.41323C4.43611 2.4277 4.44655 2.44217 4.45698 2.45665C4.48549 2.49615 4.51406 2.53561 4.54263 2.57506C4.57088 2.61408 4.5991 2.65312 4.62732 2.69216C4.63852 2.70766 4.64972 2.72316 4.66092 2.73865C4.99698 3.20354 4.99698 3.20354 5.01379 3.22679C5.02497 3.24226 5.03615 3.25772 5.04733 3.27318C5.07572 3.31246 5.10412 3.35174 5.1325 3.39103C5.18224 3.45987 5.23199 3.52869 5.28199 3.59733C5.335 3.67015 5.38761 3.74329 5.44024 3.81643C5.47763 3.86837 5.5151 3.92026 5.55278 3.97197C5.59781 4.03377 5.64252 4.09583 5.6872 4.15792C5.74053 4.23202 5.79399 4.306 5.84772 4.37977C5.89548 4.44536 5.94293 4.5112 5.99045 4.57698C6.01862 4.61596 6.04679 4.65494 6.07497 4.69391C6.08617 4.70941 6.09737 4.7249 6.10857 4.7404C6.11412 4.74807 6.11966 4.75574 6.12538 4.76364C7.38561 6.50696 7.38561 6.50696 7.40242 6.53022C7.4136 6.54568 7.42477 6.56114 7.43595 6.5766C7.46435 6.61588 7.49274 6.65517 7.52112 6.69446C7.57086 6.7633 7.62062 6.83212 7.67062 6.90075C7.72363 6.97357 7.77624 7.04672 7.82886 7.11985C7.86626 7.1718 7.90372 7.22368 7.9414 7.27539C7.98644 7.3372 8.03115 7.39926 8.07583 7.46135C8.12915 7.53545 8.18261 7.60943 8.23635 7.68319C8.2841 7.74879 8.33156 7.81462 8.37908 7.88041C8.40724 7.91939 8.43542 7.95836 8.46359 7.99733C8.4748 8.01283 8.486 8.02833 8.4972 8.04382C8.50274 8.05149 8.50829 8.05916 8.514 8.06707C9.77423 9.81039 9.77423 9.81039 9.79105 9.83364C9.80222 9.8491 9.8134 9.86456 9.82458 9.88002C9.85297 9.91931 9.88137 9.95859 9.90975 9.99788C9.95949 10.0667 10.0092 10.1355 10.0592 10.2042C10.1123 10.277 10.1649 10.3501 10.2175 10.4233C10.2549 10.4752 10.2923 10.5271 10.33 10.5788C10.3824 10.6507 10.4344 10.723 10.4863 10.7952C10.5237 10.8471 10.5612 10.899 10.5989 10.9507C10.6439 11.0125 10.6886 11.0746 10.7333 11.1367C10.7866 11.2108 10.8401 11.2848 10.8938 11.3585C10.9416 11.4241 10.989 11.49 11.0366 11.5557C11.0647 11.5947 11.0929 11.6337 11.1211 11.6727C11.1323 11.6882 11.1435 11.7037 11.1547 11.7192C11.1602 11.7268 11.1658 11.7345 11.1715 11.7424C12.4317 13.4857 12.4317 13.4857 12.4485 13.509C12.4597 13.5244 12.4709 13.5399 12.4821 13.5554C12.5104 13.5946 12.5388 13.6339 12.5672 13.6732C12.617 13.7421 12.6667 13.8109 12.7167 13.8795C12.7697 13.9523 12.8223 14.0255 12.875 14.0986C12.9124 14.1506 12.9498 14.2024 12.9875 14.2542C13.0325 14.316 13.0772 14.378 13.1219 14.4401C13.1753 14.5142 13.2287 14.5882 13.2824 14.662C13.3302 14.7275 13.3777 14.7934 13.4252 14.8592C13.4533 14.8981 13.4815 14.9371 13.5097 14.9761C13.5209 14.9916 13.5321 15.0071 13.5433 15.0226C13.5488 15.0303 13.5544 15.0379 13.5601 15.0458C14.8203 16.7891 14.8203 16.7891 14.8371 16.8124C14.8483 16.8279 14.8595 16.8433 14.8707 16.8588C14.8991 16.8981 14.9275 16.9373 14.9559 16.9766C15.0056 17.0455 15.0553 17.1143 15.1053 17.1829C15.1584 17.2558 15.211 17.3289 15.2636 17.402C15.301 17.454 15.3384 17.5059 15.3761 17.5576C15.4212 17.6194 15.4659 17.6814 15.5106 17.7435C15.5639 17.8176 15.6173 17.8916 15.6711 17.9654C15.7188 18.031 15.7663 18.0968 15.8138 18.1626C15.842 18.2016 15.8701 18.2405 15.8983 18.2795C15.9095 18.295 15.9207 18.3105 15.9319 18.326C15.9375 18.3337 15.943 18.3413 15.9487 18.3492C17.209 20.0926 17.209 20.0926 17.2258 20.1158C17.2369 20.1313 17.2481 20.1467 17.2593 20.1622C17.2877 20.2015 17.3161 20.2408 17.3445 20.2801C17.356 20.296 17.3674 20.3119 17.3789 20.3277C17.3845 20.3355 17.3901 20.3432 17.3958 20.3511C17.4383 20.4099 17.4809 20.4685 17.5237 20.5271C17.5476 20.5602 17.5476 20.5602 17.5567 20.5822C17.5714 20.6121 17.5837 20.6278 17.6096 20.6477C17.6738 20.6611 17.7376 20.6588 17.8027 20.6576C17.8227 20.6576 17.8427 20.6576 17.8627 20.6577C17.9168 20.6577 17.971 20.6572 18.0252 20.6566C18.0818 20.656 18.1385 20.656 18.1951 20.6559C18.3023 20.6556 18.4096 20.6549 18.5168 20.654C18.6389 20.653 18.7609 20.6525 18.883 20.6521C19.1341 20.6512 19.3853 20.6496 19.6364 20.6477C19.6182 20.6153 19.5999 20.584 19.5784 20.554C19.5734 20.5469 19.5684 20.5399 19.5632 20.5326C19.5579 20.5253 19.5526 20.5179 19.5472 20.5103C19.536 20.4946 19.5248 20.4789 19.5136 20.4632C19.5081 20.4555 19.5026 20.4478 19.4969 20.4399C19.4756 20.4101 19.4545 20.3802 19.4334 20.3503C19.4025 20.3067 19.3713 20.2635 19.3397 20.2204C19.2972 20.1623 19.256 20.1033 19.215 20.044C19.1606 19.9655 19.1049 19.8883 19.0481 19.8116C18.9931 19.7372 18.9395 19.6618 18.8862 19.5861C18.805 19.4709 18.7232 19.3564 18.6408 19.2422C18.5975 19.1822 18.5545 19.122 18.5118 19.0615C18.4886 19.0289 18.4652 18.9965 18.4417 18.9641C18.3878 18.8899 18.3347 18.8152 18.2824 18.7396C18.2292 18.6627 18.1745 18.5872 18.1189 18.5122C18.0693 18.4451 18.0216 18.3767 17.9741 18.308C17.9329 18.2485 17.8906 18.1899 17.8475 18.1318C17.7909 18.0555 17.7361 17.978 17.6819 17.8997C17.6382 17.8367 17.5936 17.7745 17.5482 17.7128C17.5301 17.6877 17.5128 17.6623 17.4959 17.6362C17.4891 17.6265 17.4823 17.6168 17.4752 17.6068C17.4684 17.6068 17.4616 17.6068 17.4545 17.6068C17.4518 17.5988 17.4491 17.5908 17.4463 17.5825C17.4338 17.5519 17.4197 17.5294 17.4004 17.5031C17.3937 17.4938 17.387 17.4846 17.3801 17.4751C17.3729 17.4653 17.3657 17.4555 17.3582 17.4455C17.3508 17.4353 17.3434 17.4251 17.3358 17.4146C17.3206 17.3937 17.3054 17.3729 17.2901 17.3521C17.2595 17.3102 17.229 17.2681 17.1986 17.226C17.1905 17.2148 17.1905 17.2148 17.1822 17.2033C17.1199 17.1172 17.0585 17.0303 16.9972 16.9434C16.9546 16.8832 16.9119 16.8233 16.8684 16.7639C16.8259 16.7058 16.7847 16.6467 16.7436 16.5875C16.6893 16.5089 16.6335 16.4317 16.5768 16.355C16.5218 16.2807 16.4682 16.2052 16.4148 16.1295C16.3337 16.0143 16.2518 15.8998 16.1694 15.7856C16.1262 15.7256 16.0832 15.6654 16.0405 15.6049C16.0173 15.5723 15.9938 15.5399 15.9703 15.5076C15.9164 15.4333 15.8633 15.3586 15.8111 15.2831C15.7578 15.2061 15.7032 15.1306 15.6476 15.0556C15.598 14.9885 15.5503 14.9202 15.5028 14.8515C15.4615 14.7919 15.4192 14.7334 15.3761 14.6753C15.3195 14.599 15.2647 14.5214 15.2106 14.4432C15.1669 14.3801 15.1222 14.318 15.0769 14.2562C15.0587 14.2311 15.0415 14.2057 15.0246 14.1796C15.0177 14.1699 15.0109 14.1602 15.0039 14.1502C14.9971 14.1502 14.9902 14.1502 14.9832 14.1502C14.9805 14.1422 14.9778 14.1342 14.9749 14.126C14.9624 14.0953 14.9483 14.0728 14.929 14.0465C14.9223 14.0373 14.9156 14.028 14.9087 14.0185C14.9015 14.0087 14.8943 13.999 14.8869 13.9889C14.8795 13.9787 14.8721 13.9685 14.8644 13.958C14.8492 13.9372 14.834 13.9163 14.8188 13.8955C14.7881 13.8536 14.7577 13.8115 14.7273 13.7694C14.7219 13.762 14.7164 13.7545 14.7109 13.7468C14.6452 13.656 14.5806 13.5644 14.5159 13.4728C14.458 13.3909 14.3994 13.3095 14.3407 13.2281C14.2977 13.1685 14.255 13.1086 14.2125 13.0485C14.1767 12.998 14.1404 12.9479 14.1043 12.8978C14.0453 12.816 13.9866 12.7341 13.9285 12.6517C13.8522 12.5437 13.7754 12.4362 13.6981 12.3291C13.6548 12.269 13.6118 12.2088 13.5692 12.1484C13.5459 12.1158 13.5225 12.0834 13.499 12.051C13.4451 11.9768 13.392 11.902 13.3397 11.8265C13.2865 11.7496 13.2318 11.674 13.1762 11.599C13.1267 11.532 13.0789 11.4636 13.0315 11.3949C12.9902 11.3353 12.9479 11.2768 12.9048 11.2187C12.8482 11.1424 12.7934 11.0649 12.7392 10.9866C12.6955 10.9235 12.6509 10.8614 12.6055 10.7997C12.5874 10.7746 12.5701 10.7491 12.5532 10.7231C12.5464 10.7134 12.5396 10.7037 12.5325 10.6937C12.5257 10.6937 12.5189 10.6937 12.5118 10.6937C12.5091 10.6857 12.5064 10.6776 12.5036 10.6694C12.4911 10.6387 12.477 10.6163 12.4577 10.5899C12.451 10.5807 12.4443 10.5715 12.4374 10.5619C12.4302 10.5522 12.423 10.5424 12.4156 10.5323C12.4081 10.5221 12.4007 10.5119 12.3931 10.5014C12.3779 10.4806 12.3627 10.4598 12.3474 10.439C12.3168 10.3971 12.2863 10.355 12.2559 10.3129C12.2505 10.3054 12.2451 10.2979 12.2395 10.2902C12.1739 10.1994 12.1092 10.1078 12.0446 10.0163C11.9867 9.9343 11.928 9.85292 11.8693 9.77156C11.8263 9.71191 11.7836 9.65206 11.7412 9.59196C11.7054 9.54148 11.6691 9.49138 11.6329 9.44121C11.574 9.35945 11.5153 9.2775 11.4571 9.1951C11.3809 9.08712 11.304 8.97964 11.2267 8.87249C11.1835 8.81248 11.1405 8.75227 11.0978 8.6918C11.0746 8.65919 11.0511 8.6268 11.0276 8.59443C10.9734 8.5197 10.9198 8.4445 10.8671 8.36856C10.8611 8.35997 10.8551 8.35139 10.849 8.34254C10.825 8.30809 10.8011 8.27364 10.7772 8.23912C10.7601 8.21431 10.7428 8.18956 10.7255 8.16483C10.7204 8.15728 10.7152 8.14974 10.7098 8.14197C10.6975 8.12434 10.6844 8.10726 10.6713 8.09031C10.6644 8.09031 10.6576 8.09031 10.6506 8.09031C10.6479 8.0823 10.6451 8.07429 10.6423 8.06603C10.6298 8.03538 10.6157 8.0129 10.5964 7.98657C10.5897 7.97733 10.583 7.9681 10.5761 7.95859C10.5689 7.94881 10.5617 7.93904 10.5543 7.92897C10.5469 7.91878 10.5394 7.90859 10.5318 7.89809C10.5166 7.87724 10.5014 7.85642 10.4862 7.83561C10.4555 7.7937 10.4251 7.75162 10.3947 7.70951C10.3892 7.70203 10.3838 7.69456 10.3783 7.68685C10.3251 7.61328 10.2726 7.53919 10.2201 7.465C10.2066 7.44581 10.193 7.42665 10.1793 7.40751C10.1713 7.39617 10.1632 7.38484 10.1549 7.37316C10.1475 7.36282 10.1402 7.35248 10.1326 7.34184C10.1154 7.31727 10.0989 7.29238 10.0825 7.26719C10.0755 7.25726 10.0684 7.24734 10.0612 7.23711C10.0544 7.23711 10.0475 7.23711 10.0405 7.23711C10.0378 7.2291 10.0351 7.22108 10.0323 7.21283C10.0197 7.18218 10.0056 7.1597 9.98633 7.13336C9.97963 7.12413 9.97292 7.1149 9.96601 7.10538C9.95521 7.09072 9.95521 7.09072 9.9442 7.07577C9.93678 7.06558 9.92936 7.05539 9.92172 7.04489C9.90653 7.02404 9.89133 7.00322 9.8761 6.98241C9.84544 6.9405 9.815 6.89842 9.78458 6.85631C9.77916 6.84883 9.77375 6.84135 9.76817 6.83365C9.70253 6.74286 9.63789 6.65128 9.57324 6.55969C9.51531 6.47774 9.45667 6.39636 9.39799 6.315C9.35499 6.25534 9.31226 6.1955 9.26982 6.1354C9.23403 6.08491 9.19775 6.03482 9.16157 5.98465C9.10261 5.90289 9.04394 5.82093 8.98578 5.73853C8.90953 5.63055 8.83269 5.52307 8.75539 5.41593C8.71212 5.35592 8.66914 5.29571 8.62645 5.23524C8.60324 5.20263 8.57979 5.17023 8.55628 5.13787C8.50202 5.06314 8.44847 4.98793 8.39573 4.912C8.38976 4.90341 8.38379 4.89482 8.37764 4.88598C8.35369 4.85153 8.32975 4.81708 8.30589 4.78256C8.28872 4.75775 8.27147 4.733 8.2542 4.70827C8.24642 4.69695 8.24642 4.69695 8.23849 4.6854C8.22613 4.66778 8.21309 4.6507 8.19991 4.63375C8.19309 4.63375 8.18626 4.63375 8.17923 4.63375C8.17651 4.62573 8.17379 4.61772 8.17099 4.60947C8.15845 4.57882 8.14434 4.55634 8.12507 4.53C8.11836 4.52077 8.11165 4.51154 8.10474 4.50202C8.09755 4.49225 8.09035 4.48248 8.08294 4.4724C8.07552 4.46221 8.0681 4.45202 8.06045 4.44153C8.04527 4.42068 8.03006 4.39986 8.01483 4.37905C7.98417 4.33714 7.95373 4.29506 7.92331 4.25295C7.9179 4.24547 7.91248 4.23799 7.90691 4.23029C7.85372 4.15672 7.80121 4.08262 7.74879 4.00844C7.73522 3.98925 7.72161 3.97009 7.70798 3.95095C7.69991 3.93961 7.69185 3.92827 7.68354 3.91659C7.67618 3.90626 7.66883 3.89592 7.66124 3.88527C7.64405 3.86071 7.62751 3.83582 7.61116 3.81063C7.60412 3.8007 7.59708 3.79077 7.58983 3.78054C7.58301 3.78054 7.57618 3.78054 7.56915 3.78054C7.56643 3.77253 7.56371 3.76452 7.5609 3.75626C7.54837 3.72561 7.53426 3.70314 7.51499 3.6768C7.50828 3.66757 7.50157 3.65833 7.49466 3.64882C7.48746 3.63905 7.48027 3.62927 7.47286 3.6192C7.46544 3.60901 7.45801 3.59882 7.45037 3.58832C7.43519 3.56748 7.41998 3.54665 7.40475 3.52585C7.37409 3.48393 7.34365 3.44185 7.31323 3.39975C7.30781 3.39227 7.3024 3.38479 7.29682 3.37708C7.23119 3.28629 7.16654 3.19471 7.1019 3.10313C7.04396 3.02118 6.98532 2.9398 6.92664 2.85844C6.88364 2.79878 6.84092 2.73893 6.79847 2.67883C6.76268 2.62835 6.7264 2.57826 6.69022 2.52809C6.51795 2.28921 6.51795 2.28921 6.50321 2.25887C6.47759 2.23214 6.45758 2.23297 6.42257 2.23257C6.41004 2.23276 6.41004 2.23276 6.39724 2.23296C6.38835 2.23292 6.37946 2.23288 6.37029 2.23284C6.34038 2.23277 6.31047 2.23301 6.28056 2.23325C6.25916 2.23326 6.23776 2.23326 6.21636 2.23323C6.15817 2.23322 6.09998 2.23348 6.04178 2.23378C5.98101 2.23405 5.92023 2.23408 5.85945 2.23413C5.74431 2.23427 5.62918 2.23463 5.51404 2.23507C5.38298 2.23556 5.25192 2.2358 5.12086 2.23602C4.85122 2.23647 4.58158 2.23724 4.31193 2.23822Z" fill="#121010"/>
</svg>
