<svg width="40" height="39" viewBox="0 0 40 39" fill="none" xmlns="http://www.w3.org/2000/svg">
<path d="M19.9999 18.6665C17.4256 18.6665 15.2264 17.7545 13.4025 15.9306C11.5786 14.1067 10.6667 11.9076 10.6667 9.33324C10.6667 6.7589 11.5786 4.55978 13.4025 2.73587C15.2264 0.911956 17.4256 0 19.9999 0C22.5742 0 24.7734 0.911956 26.5973 2.73587C28.4212 4.55978 29.3331 6.7589 29.3331 9.33324C29.3331 11.9076 28.4212 14.1067 26.5973 15.9306C24.7734 17.7545 22.5742 18.6665 19.9999 18.6665ZM0 38.9741V33.046C0 31.74 0.354698 30.5306 1.0641 29.4178C1.77349 28.305 2.72135 27.4495 3.90767 26.8512C6.54355 25.5589 9.20252 24.5897 11.8846 23.9435C14.5666 23.2974 17.2717 22.9743 19.9999 22.9743C22.7281 22.9743 25.4332 23.2974 28.1152 23.9435C30.7973 24.5897 33.4563 25.5589 36.0921 26.8512C37.2785 27.4495 38.2263 28.305 38.9357 29.4178C39.6451 30.5306 39.9998 31.74 39.9998 33.046V38.9741H0ZM3.9999 34.9742H35.9999V33.046C35.9999 32.5058 35.8435 32.0058 35.5307 31.546C35.2178 31.0862 34.793 30.7109 34.2563 30.4203C31.9589 29.2887 29.6162 28.4314 27.2284 27.8485C24.8406 27.2656 22.4311 26.9742 19.9999 26.9742C17.5687 26.9742 15.1592 27.2656 12.7714 27.8485C10.3836 28.4314 8.04095 29.2887 5.74352 30.4203C5.20676 30.7109 4.78197 31.0862 4.46914 31.546C4.15631 32.0058 3.9999 32.5058 3.9999 33.046V34.9742ZM19.9999 14.6666C21.4666 14.6666 22.7221 14.1443 23.7666 13.0999C24.811 12.0555 25.3332 10.7999 25.3332 9.33324C25.3332 7.86657 24.811 6.61101 23.7666 5.56657C22.7221 4.52212 21.4666 3.9999 19.9999 3.9999C18.5332 3.9999 17.2777 4.52212 16.2332 5.56657C15.1888 6.61101 14.6666 7.86657 14.6666 9.33324C14.6666 10.7999 15.1888 12.0555 16.2332 13.0999C17.2777 14.1443 18.5332 14.6666 19.9999 14.6666Z" fill="#6D7590"/>
</svg>
