<svg width="17" height="12" viewBox="0 0 17 12" fill="none" xmlns="http://www.w3.org/2000/svg">
<path d="M13.1767 0.000833333H3.45417C1.54583 0.000833333 0 1.53 0 3.41667V8.22333C0 10.11 1.54667 11.64 3.45417 11.64H13.1767C15.085 11.64 16.6308 10.11 16.6308 8.22333V3.41667C16.6308 1.53 15.0842 0 13.1767 0V0.000833333ZM10.8408 6.05333L6.29333 8.19917C6.2656 8.21252 6.23493 8.21864 6.20419 8.21696C6.17346 8.21528 6.14364 8.20585 6.11753 8.18955C6.09141 8.17325 6.06985 8.15061 6.05483 8.12373C6.03982 8.09685 6.03185 8.06662 6.03167 8.03583V3.61167C6.03222 3.58073 6.0406 3.55043 6.05602 3.5236C6.07144 3.49678 6.0934 3.47429 6.11985 3.45823C6.1463 3.44218 6.17639 3.43308 6.20731 3.43178C6.23822 3.43049 6.26897 3.43704 6.29667 3.45083L10.845 5.73C10.8753 5.74511 10.9007 5.76845 10.9183 5.79736C10.936 5.82626 10.9451 5.85954 10.9446 5.89339C10.9442 5.92724 10.9342 5.96028 10.9159 5.98872C10.8975 6.01716 10.8715 6.03984 10.8408 6.05417V6.05333Z" fill="#333333"/>
</svg>
