<svg width="33" height="23" viewBox="0 0 33 23" fill="none" xmlns="http://www.w3.org/2000/svg">
<path fill-rule="evenodd" clip-rule="evenodd" d="M13.1239 15.7486V6.5292C16.3968 8.06927 18.9316 9.557 21.9296 11.161C19.4569 12.5323 16.3968 14.0709 13.1239 15.7486ZM31.3638 1.94397C30.7992 1.20015 29.837 0.621146 28.8126 0.429457C25.8015 -0.142339 7.01662 -0.143965 4.00718 0.429457C3.18568 0.583459 2.45416 0.955702 1.82576 1.53405C-0.822024 3.9916 0.00766586 17.1706 0.645884 19.3055C0.914261 20.2295 1.2612 20.8959 1.69814 21.3334C2.26108 21.9117 3.03184 22.3099 3.91716 22.4885C6.39639 23.0013 19.1689 23.288 28.7602 22.5655C29.6439 22.4115 30.4261 22.0005 31.043 21.3975C33.4911 18.9498 33.3243 5.03065 31.3638 1.94397Z" fill="#FF0000"/>
</svg>
