<svg width="122" height="98" viewBox="0 0 122 98" fill="none" xmlns="http://www.w3.org/2000/svg">
<path d="M62.3177 0C65.5662 0.01825 73.6935 0.0973331 82.3318 0.444083L85.3978 0.577915C94.0909 0.985499 102.778 1.69117 107.091 2.88958C112.84 4.50775 117.354 9.21625 118.881 15.1901C121.314 24.6801 121.618 43.1856 121.654 47.669L121.661 48.5937V49.6522C121.618 54.1356 121.314 72.6472 118.881 82.1311C117.335 88.1232 112.815 92.8378 107.091 94.4316C102.778 95.63 94.0909 96.3357 85.3978 96.7432L82.3318 96.8832C73.6935 97.2238 65.5662 97.309 62.3177 97.3212L60.8881 97.3273H59.3368C52.4627 97.2847 23.7128 96.9744 14.5635 94.4316C8.82083 92.8134 4.30092 88.1049 2.774 82.1311C0.340667 72.6411 0.0365 54.1356 0 49.6522V47.669C0.0365 43.1856 0.340667 24.674 2.774 15.1901C4.31917 9.198 8.83908 4.48342 14.5696 2.89567C23.7128 0.346749 52.4688 0.0365 59.3429 0H62.3177ZM48.6606 27.375V69.9583L85.1606 48.6667L48.6606 27.375Z" fill="#005BBF"/>
</svg>
